

<svg aria-hidden="true" style="position:absolute;width:0;height:0" xmlns="http://www.w3.org/2000/svg" overflow="hidden">
    <defs>
        <symbol id="clock" viewBox="0 0 32 32">
            <path
                  d="M30.740,9.503 C29.156,5.807 26.193,2.843 22.497,1.260 C23.497,0.473 24.755,-0.000 26.126,-0.000 C29.370,-0.000 32.000,2.630 32.000,5.874 C32.000,7.245 31.527,8.503 30.740,9.503 ZM30.500,16.000 C30.500,19.852 28.988,23.343 26.537,25.940 L28.566,27.968 C28.834,28.237 29.000,28.607 29.000,29.017 C29.000,29.836 28.336,30.500 27.517,30.500 C27.107,30.500 26.736,30.334 26.468,30.065 L24.290,27.887 C21.939,29.529 19.085,30.500 16.000,30.500 C12.921,30.500 10.072,29.534 7.724,27.897 L5.561,30.060 C5.289,30.332 4.914,30.500 4.500,30.500 C3.672,30.500 3.000,29.828 3.000,28.999 C3.000,28.586 3.168,28.210 3.439,27.939 L5.451,25.927 C3.008,23.332 1.500,19.845 1.500,16.000 C1.500,7.992 7.992,1.500 16.000,1.500 C24.008,1.500 30.500,7.992 30.500,16.000 ZM16.000,4.500 C9.649,4.500 4.500,9.648 4.500,16.000 C4.500,22.351 9.649,27.500 16.000,27.500 C22.351,27.500 27.500,22.351 27.500,16.000 C27.500,9.648 22.351,4.500 16.000,4.500 ZM22.000,17.500 L16.000,17.500 C15.172,17.500 14.500,16.828 14.500,16.000 L14.500,8.000 C14.500,7.172 15.172,6.500 16.000,6.500 C16.828,6.500 17.500,7.172 17.500,8.000 L17.500,14.499 L22.000,14.499 C22.828,14.499 23.500,15.171 23.500,16.000 C23.500,16.828 22.828,17.500 22.000,17.500 ZM1.287,9.705 C0.483,8.685 -0.000,7.400 -0.000,6.000 C-0.000,2.686 2.686,-0.000 6.000,-0.000 C7.400,-0.000 8.685,0.483 9.706,1.287 C5.931,2.904 2.904,5.931 1.287,9.705 Z"/>
        </symbol>

        <symbol id="home" viewBox="0 0 32 32">
            <path
                  d="M32.000,16.500 C32.000,17.328 31.328,17.999 30.500,17.999 C30.105,17.999 29.748,17.844 29.480,17.594 L29.477,17.598 L16.038,4.159 L16.038,4.159 L16.000,4.122 L16.000,4.122 L2.554,17.568 L2.553,17.568 C2.282,17.835 1.910,17.999 1.500,17.999 C0.672,17.999 -0.000,17.328 -0.000,16.500 C-0.000,16.075 0.177,15.692 0.461,15.419 L14.919,0.960 C15.192,0.677 15.575,0.500 16.000,0.500 L16.000,0.500 L16.000,0.500 C16.000,0.500 16.000,0.500 16.001,0.500 C16.027,0.500 16.053,0.500 16.080,0.502 C16.084,0.502 16.088,0.503 16.092,0.503 C16.115,0.504 16.137,0.506 16.160,0.508 C16.161,0.508 16.162,0.508 16.164,0.509 C16.531,0.549 16.858,0.721 17.097,0.977 L17.098,0.976 L23.000,6.878 L23.000,5.500 C23.000,4.671 23.671,4.000 24.500,4.000 C25.328,4.000 26.000,4.671 26.000,5.500 L26.000,9.878 L31.598,15.476 L31.594,15.480 C31.844,15.748 32.000,16.105 32.000,16.500 ZM29.000,19.000 L29.000,23.500 L29.000,25.500 L29.000,29.500 C29.000,30.328 28.328,31.000 27.500,31.000 L24.500,31.000 L24.500,19.000 L18.500,19.000 L18.500,31.000 L4.500,31.000 C3.672,31.000 3.000,30.328 3.000,29.500 L3.000,25.500 L3.000,23.500 L3.000,19.000 L16.000,6.000 L29.000,19.000 ZM13.500,19.000 L7.500,19.000 L7.500,25.000 L13.500,25.000 L13.500,19.000 Z"/>
        </symbol>
    </defs>



</svg>