<svg width="293" height="339" viewBox="0 0 293 339" fill="none" xmlns="http://www.w3.org/2000/svg">
<path d="M143.996 0H0V255.89H143.996V0Z" transform="translate(141.708 41.1876)" fill="#F7F7F7"/>
<path d="M93.5318 51.4613C93.5318 41.9644 90.3985 33.1691 84.1786 25.1693V77.8001C90.3985 70.0341 93.5318 61.2389 93.5318 51.4613ZM77.7717 84.2095H25.16C28.3401 86.7825 32.5023 88.8877 37.6466 90.8058C42.7441 92.6303 47.3739 93.566 51.4425 93.566C55.5579 93.566 60.141 92.6303 65.2385 90.8058C70.3827 88.8877 74.5449 86.7825 77.7717 84.2095ZM46.766 74.8529L28.0596 37.4264V74.8529H46.766ZM74.8254 37.4264L56.1192 74.8529H74.8254V37.4264ZM51.4425 63.2974L68.9797 28.0698H33.9053L51.4425 63.2974ZM77.7717 18.7132C70.0086 12.4911 61.2166 9.3566 51.4425 9.3566C41.6685 9.3566 32.8764 12.4911 25.16 18.7132H77.7717ZM18.7064 77.8001V25.1693C12.4865 33.1691 9.35318 41.9644 9.35318 51.4613C9.35318 61.2389 12.4865 70.0341 18.7064 77.8001ZM102.885 51.4613C102.885 65.6365 97.9278 77.8001 87.8264 87.8585C77.7717 97.9637 65.6126 102.922 51.4425 102.922C37.2725 102.922 25.16 97.9637 15.0586 87.8585C4.95719 77.8001 0 65.6365 0 51.4613C0 37.286 4.95719 25.1693 15.0586 15.0641C25.16 4.959 37.2725 0 51.4425 0C65.6126 0 77.7717 4.959 87.8264 15.0641C97.9278 25.1693 102.885 37.286 102.885 51.4613Z" transform="translate(165.902 115.223)" fill="#80E5FF"/>
<path d="M20.5759 0C9.17728 0 0 9.17735 0 20.576V317.691C0 329.09 9.17728 338.265 20.5759 338.265H138.011C149.41 338.265 158.587 329.09 158.587 317.691V20.576C158.587 9.17735 149.41 0 138.011 0H20.5759ZM7.29567 41.1876H151.292V297.079H7.29567V41.1876Z" transform="translate(134.412)" fill="#80E5FF"/>
<path d="M116.768 45.0464H107.787V36.0417H116.768V45.0464ZM71.8577 45.0464H62.8755V36.0417H71.8577V45.0464ZM121.529 19.4729L133.296 7.6766C135.003 5.96569 135.003 3.08415 133.296 1.28319C131.5 -0.427729 128.625 -0.427729 126.919 1.28319L113.625 14.6103C106.439 11.0985 98.3552 9.02731 89.822 9.02731C81.1992 9.02731 73.1151 11.0985 65.9295 14.7003L52.5459 1.28319C50.8393 -0.427729 47.965 -0.427729 46.2584 1.28319C44.4619 3.08415 44.4619 5.96569 46.2584 7.6766L58.0251 19.4729C44.6416 29.3782 35.9289 45.0464 35.9289 63.056H143.715C143.715 45.0464 134.733 29.2881 121.529 19.4729ZM166.171 72.0609C162.597 72.0609 159.171 73.484 156.644 76.017C154.117 78.5501 152.697 81.9857 152.697 85.5681V148.602C152.697 152.184 154.117 155.62 156.644 158.153C159.171 160.686 162.597 162.109 166.171 162.109C169.744 162.109 173.172 160.686 175.698 158.153C178.225 155.62 179.644 152.184 179.644 148.602V85.5681C179.644 81.9857 178.225 78.5501 175.698 76.017C173.172 73.484 169.744 72.0609 166.171 72.0609ZM13.4733 72.0609C9.89997 72.0609 6.47298 73.484 3.94624 76.017C1.4195 78.5501 0 81.9857 0 85.5681V148.602C0 152.184 1.4195 155.62 3.94624 158.153C6.47298 160.686 9.89997 162.109 13.4733 162.109C17.0466 162.109 20.4736 160.686 23.0004 158.153C25.5271 155.62 26.9466 152.184 26.9466 148.602V85.5681C26.9466 81.9857 25.5271 78.5501 23.0004 76.017C20.4736 73.484 17.0466 72.0609 13.4733 72.0609ZM35.9289 162.109C35.9289 164.497 36.8752 166.788 38.5597 168.476C40.2442 170.165 42.5288 171.114 44.9111 171.114H53.8933V202.63C53.8933 206.213 55.3127 209.648 57.8395 212.181C60.3662 214.715 63.7932 216.138 67.3666 216.138C70.9399 216.138 74.3669 214.715 76.8936 212.181C79.4204 209.648 80.8399 206.213 80.8399 202.63V171.114H98.8043V202.63C98.8043 206.213 100.224 209.648 102.751 212.181C105.277 214.715 108.704 216.138 112.278 216.138C115.851 216.138 119.278 214.715 121.805 212.181C124.331 209.648 125.751 206.213 125.751 202.63V171.114H134.733C137.115 171.114 139.4 170.165 141.084 168.476C142.769 166.788 143.715 164.497 143.715 162.109V72.0609H35.9289V162.109Z" transform="translate(0 122.126)" fill="#00CCFF"/>
<path d="M4.87597 9.74031C7.56889 9.74031 9.75194 7.55987 9.75194 4.87016C9.75194 2.18044 7.56889 0 4.87597 0C2.18304 0 0 2.18044 0 4.87016C0 7.55987 2.18304 9.74031 4.87597 9.74031Z" transform="translate(147.583 14.7142)" fill="#F9F9F9"/>
<path d="M54.1251 0H1.46105C0.65414 0 0 0.654133 0 1.46105C0 2.26796 0.65414 2.92209 1.46105 2.92209H54.1251C54.932 2.92209 55.5861 2.26796 55.5861 1.46105C55.5861 0.654133 54.932 0 54.1251 0Z" transform="translate(185.913 19.6761)" fill="#F9F9F9"/>
<path d="M9.26727 0H2.43509C1.09023 0 0 1.09022 0 2.43508C0 3.77993 1.09023 4.87016 2.43509 4.87016H9.26727C10.6121 4.87016 11.7024 3.77993 11.7024 2.43508C11.7024 1.09022 10.6121 0 9.26727 0Z" transform="translate(207.855 30.8773)" fill="#F9F9F9"/>
</svg>
