<svg width="205" height="205" viewBox="0 0 205 205" fill="none" xmlns="http://www.w3.org/2000/svg">
<path fill-rule="evenodd" clip-rule="evenodd" d="M2.48501 124.492C3.65692 124.492 4.67068 125.305 4.95612 126.442C14.0191 162.531 42.6911 190.874 79.0341 199.539C80.1846 199.814 81.0122 200.833 81.0122 202.016C81.0122 203.609 79.548 204.801 77.9985 204.433C39.7487 195.363 9.56396 165.531 0.0739425 127.535C-0.314942 125.978 0.880139 124.492 2.48501 124.492ZM204.925 76.4294C205.314 77.9867 204.119 79.4723 202.514 79.4723C201.342 79.4723 200.329 78.6603 200.043 77.5241C191.135 42.1051 163.338 14.1531 127.942 4.95133C126.815 4.65848 126.014 3.64938 126.014 2.48545C126.014 0.871887 127.513 -0.324994 129.076 0.0790402C166.332 9.71487 195.597 39.1367 204.925 76.4294Z" transform="translate(204.5) rotate(90)" fill="#00CCFF"/>
<path fill-rule="evenodd" clip-rule="evenodd" d="M2.48501 80.0096C3.65694 80.0096 4.67071 79.1971 4.95613 78.0604C14.019 41.9697 42.6926 13.6258 79.0372 4.96105C80.1877 4.68676 81.0154 3.66682 81.0154 2.48408C81.0154 0.891666 79.5512 -0.30043 78.0017 0.0669368C39.7502 9.13613 9.56389 38.9692 0.073936 76.9675C-0.314929 78.5246 0.880152 80.0096 2.48501 80.0096ZM126.013 202.016C126.013 200.852 126.815 199.843 127.942 199.55C163.338 190.348 191.135 162.396 200.043 126.978C200.329 125.841 201.343 125.029 202.514 125.029C204.119 125.029 205.315 126.515 204.925 128.072C195.596 165.365 166.331 194.786 129.075 204.422C127.513 204.826 126.013 203.629 126.013 202.016Z" transform="translate(205 0.000244141) rotate(90)" fill="#80E5FF"/>
<path d="M70.85 28.1361H65.4V22.5117H70.85V28.1361ZM43.6 28.1361H38.15V22.5117H43.6V28.1361ZM73.7385 12.1628L80.878 4.79481C81.9135 3.72617 81.9135 1.92636 80.878 0.801479C79.788 -0.26716 78.044 -0.26716 77.0085 0.801479L68.9425 9.12561C64.5825 6.93209 59.6775 5.63848 54.5 5.63848C49.268 5.63848 44.363 6.93209 40.003 9.18186L31.8825 0.801479C30.847 -0.26716 29.103 -0.26716 28.0675 0.801479C26.9775 1.92636 26.9775 3.72617 28.0675 4.79481L35.207 12.1628C27.0865 18.3497 21.8 28.1361 21.8 39.385H87.2C87.2 28.1361 81.75 18.2934 73.7385 12.1628ZM100.825 45.0094C98.6569 45.0094 96.5775 45.8982 95.0444 47.4804C93.5113 49.0626 92.65 51.2085 92.65 53.446V92.8169C92.65 95.0544 93.5113 97.2003 95.0444 98.7825C96.5775 100.365 98.6569 101.254 100.825 101.254C102.993 101.254 105.072 100.365 106.606 98.7825C108.139 97.2003 109 95.0544 109 92.8169V53.446C109 51.2085 108.139 49.0626 106.606 47.4804C105.072 45.8982 102.993 45.0094 100.825 45.0094ZM8.175 45.0094C6.00686 45.0094 3.92751 45.8982 2.3944 47.4804C0.861292 49.0626 0 51.2085 0 53.446V92.8169C0 95.0544 0.861292 97.2003 2.3944 98.7825C3.92751 100.365 6.00686 101.254 8.175 101.254C10.3431 101.254 12.4225 100.365 13.9556 98.7825C15.4887 97.2003 16.35 95.0544 16.35 92.8169V53.446C16.35 51.2085 15.4887 49.0626 13.9556 47.4804C12.4225 45.8982 10.3431 45.0094 8.175 45.0094ZM21.8 101.254C21.8 102.745 22.3742 104.176 23.3963 105.231C24.4183 106.285 25.8046 106.878 27.25 106.878H32.7V126.563C32.7 128.801 33.5613 130.947 35.0944 132.529C36.6275 134.111 38.7069 135 40.875 135C43.0431 135 45.1225 134.111 46.6556 132.529C48.1887 130.947 49.05 128.801 49.05 126.563V106.878H59.95V126.563C59.95 128.801 60.8113 130.947 62.3444 132.529C63.8775 134.111 65.9569 135 68.125 135C70.2931 135 72.3725 134.111 73.9056 132.529C75.4387 130.947 76.3 128.801 76.3 126.563V106.878H81.75C83.1954 106.878 84.5817 106.285 85.6037 105.231C86.6258 104.176 87.2 102.745 87.2 101.254V45.0094H21.8V101.254Z" transform="translate(47.4586 34.8901)" fill="#00CCFF"/>
</svg>
