<svg width="824" height="244" viewBox="0 0 824 244" fill="none" xmlns="http://www.w3.org/2000/svg">
<g clip-path="url(#clip0)">
<rect width="824" height="244" fill="white"/>
<rect width="195" height="30" transform="translate(113 106)" fill="#80E5FF"/>
<g opacity="0.15">
<path d="M819.168 9.02927e-08C816.725 0.00290475 814.36 0.861192 812.483 2.42607C810.607 3.99095 809.337 6.16373 808.893 8.56756L212.065 20.1378C211.551 17.8154 210.26 15.7377 208.408 14.2471C206.555 12.7565 204.25 11.9419 201.873 11.9375C200.499 11.9373 199.138 12.208 197.869 12.734C196.6 13.2601 195.446 14.0311 194.475 15.0033C193.503 15.9754 192.733 17.1296 192.207 18.3999C191.681 19.6701 191.411 21.0314 191.411 22.4062C191.414 24.0377 191.799 25.6458 192.533 27.1022C193.268 28.5585 194.333 29.8228 195.643 30.7943L19.6108 405.825C19.4317 405.809 19.2522 405.798 19.0726 405.792C17.6987 405.792 16.3382 406.063 15.0688 406.589C13.7995 407.115 12.6461 407.886 11.6746 408.858C10.7031 409.83 9.93248 410.984 9.40679 412.254C8.8811 413.525 8.61062 414.886 8.6108 416.261C8.61395 418.262 9.19015 420.22 10.2711 421.903C11.3521 423.586 12.8926 424.924 14.7101 425.759L0 1257.78L1.42698 1257.82L0.277242 1258.9L288.584 1732.83C287.204 1734.3 286.434 1736.23 286.431 1738.24C286.43 1740.34 287.261 1742.35 288.739 1743.83C290.218 1745.31 292.224 1746.14 294.316 1746.14C295.353 1746.14 296.38 1745.94 297.338 1745.54C298.296 1745.14 299.166 1744.56 299.899 1743.83C300.632 1743.1 301.213 1742.22 301.61 1741.27C302.006 1740.31 302.21 1739.28 302.21 1738.24C302.206 1737.67 302.14 1737.1 302.014 1736.55L607.648 1576.53C608.386 1577.32 609.277 1577.95 610.267 1578.38C611.257 1578.81 612.326 1579.03 613.405 1579.03C614.94 1579.03 616.441 1578.58 617.724 1577.74C619.007 1576.9 620.017 1575.7 620.63 1574.29L957.911 1624.22L958.041 1623.67L1230.64 1573.07C1231.67 1576.23 1233.67 1578.98 1236.36 1580.93C1239.05 1582.89 1242.28 1583.94 1245.61 1583.95C1249.76 1583.94 1253.74 1582.3 1256.69 1579.38C1259.65 1576.46 1261.33 1572.49 1261.38 1568.34L1652.57 1520.45C1653.18 1521.96 1654.22 1523.25 1655.56 1524.16C1656.91 1525.08 1658.5 1525.56 1660.12 1525.56C1661.22 1525.56 1662.3 1525.34 1663.31 1524.91C1664.31 1524.48 1665.22 1523.85 1665.98 1523.06L1832.07 1596.81L1831.07 1599.57L1835.04 1597.83L2234.18 1630.59L2747.75 1657.49L3005.41 1505.66C3006.66 1507.17 3008.22 1508.38 3009.98 1509.21C3011.75 1510.04 3013.67 1510.48 3015.62 1510.48C3019.14 1510.48 3022.5 1509.08 3024.99 1506.6C3027.47 1504.11 3028.86 1500.74 3028.87 1497.23C3028.86 1494.92 3028.25 1492.65 3027.1 1490.65C3025.95 1488.64 3024.3 1486.98 3022.31 1485.81L3098.07 1292.1L3223.66 991.062C3223.9 991.088 3224.13 991.101 3224.37 991.103C3225.31 991.103 3226.23 990.918 3227.1 990.559C3227.96 990.2 3228.75 989.674 3229.41 989.011C3230.07 988.348 3230.6 987.561 3230.96 986.695C3231.31 985.829 3231.5 984.901 3231.5 983.964C3231.49 982.162 3230.81 980.429 3229.58 979.111C3228.36 977.793 3226.68 976.987 3224.88 976.857L3130.67 565.916L3131.1 562.383L3128.54 563.688L2825.13 420.798L2311.48 277.369L1888.86 390.126L1888.86 389.416L1886.77 389.449L1887.57 387.507L1224.73 112.162C1224.74 112.086 1224.74 112.009 1224.75 111.933C1224.75 111.147 1224.59 110.369 1224.29 109.642C1223.99 108.916 1223.55 108.256 1223 107.699C1222.44 107.143 1221.79 106.702 1221.06 106.401C1220.33 106.099 1219.56 105.944 1218.77 105.944C1217.81 105.944 1216.86 106.178 1216 106.626C1215.15 107.074 1214.41 107.721 1213.86 108.514L829.605 10.9502C829.617 10.7899 829.625 10.6294 829.629 10.4687C829.63 9.09392 829.359 7.73246 828.833 6.46226C828.308 5.19206 827.537 4.03798 826.566 3.06583C825.594 2.09369 824.441 1.32262 823.171 0.796579C821.902 0.270542 820.542 -0.000180503 819.168 9.02927e-08ZM808.975 12.7534C809.279 14.1091 809.85 15.3906 810.655 16.5231L436.982 416.359C435.333 415.338 433.433 414.795 431.494 414.792C430.392 414.794 429.296 414.97 428.249 415.314L208.771 30.2557C210.535 28.7063 211.727 26.6084 212.155 24.2992L808.975 12.7534ZM828.586 15.0055L1212.83 112.57C1212.9 113.261 1213.09 113.935 1213.4 114.56L673.575 683.936C672.969 683.535 672.328 683.191 671.659 682.908L818.972 20.9293C819.037 20.9326 819.102 20.9354 819.168 20.9375C821.136 20.9357 823.064 20.378 824.73 19.3286C826.396 18.2793 827.733 16.7809 828.586 15.0055ZM813.704 19.379C814.09 19.6169 814.49 19.8295 814.903 20.0154L667.606 682.01C667.432 681.995 667.258 681.985 667.084 681.978C664.934 681.981 662.825 682.571 660.985 683.683L439.803 431.593C441.193 429.775 441.95 427.55 441.956 425.261C441.954 423.087 441.275 420.969 440.015 419.198L813.704 19.379ZM205.151 32.3364L424.596 417.403C423.478 418.384 422.582 419.593 421.967 420.948C421.353 422.303 421.034 423.773 421.032 425.261C421.036 426.687 421.331 428.097 421.899 429.404C422.467 430.712 423.296 431.89 424.335 432.866L269.756 683.038C269.468 682.988 269.176 682.96 268.884 682.957C268.237 682.961 267.597 683.079 266.992 683.308L26.55 423.572C28.4586 421.62 29.5296 419 29.5344 416.269C29.5316 414.317 28.9835 412.405 27.9518 410.748C26.9201 409.091 25.446 407.756 23.696 406.894L199.426 32.573C200.227 32.7698 201.048 32.8711 201.873 32.8749C202.987 32.8713 204.094 32.6895 205.151 32.3364ZM1223.13 116.013L1882.41 389.914L1498.87 653.427C1497.39 651.784 1495.58 650.469 1493.57 649.568C1491.55 648.667 1489.37 648.2 1487.16 648.197C1485.48 648.201 1483.81 648.474 1482.22 649.005L1223.08 116.062C1223.1 116.046 1223.12 116.029 1223.13 116.013ZM1216.43 117.441C1216.43 117.441 1216.44 117.441 1216.44 117.441C1217.18 117.753 1217.97 117.914 1218.77 117.914C1218.96 117.912 1219.15 117.901 1219.33 117.881L1478.44 650.832C1476.49 652.129 1474.85 653.844 1473.64 655.854C1472.43 657.864 1471.69 660.118 1471.46 662.452L678.631 691.312C678.278 689.685 677.586 688.15 676.6 686.808L1216.43 117.441ZM2312.78 282.093L2823.66 424.747L3123.82 566.095L2566.75 849.828C2565.52 848.142 2563.92 846.769 2562.06 845.822C2560.2 844.875 2558.15 844.38 2556.06 844.378C2554.02 844.382 2552.01 844.858 2550.18 845.769C2548.35 846.681 2546.76 848.003 2545.53 849.632L2151.27 772.859C2150.6 769.817 2149.25 766.966 2147.32 764.522C2145.39 762.077 2142.93 760.101 2140.13 758.743L2312.78 282.093ZM2308.13 282.599L2136.15 757.307C2134.52 756.892 2132.85 756.679 2131.16 756.67C2127.82 756.67 2124.53 757.484 2121.56 759.042C2118.6 760.6 2116.07 762.855 2114.17 765.613L1897.62 723.453C1897.57 721.754 1896.98 720.116 1895.92 718.782C1894.87 717.449 1893.42 716.491 1891.77 716.052L1888.9 394.442L2308.13 282.599ZM1884.69 393.398H1884.7V393.422L1887.59 716.068C1886.23 716.456 1885 717.203 1884.03 718.231L1622.74 577.633C1622.72 577.02 1622.56 576.42 1622.28 575.877C1622 575.333 1621.6 574.86 1621.11 574.491L1884.69 393.398ZM23.7449 426.705L263.926 686.155C263.599 686.867 263.43 687.641 263.429 688.424C263.432 689.567 263.794 690.68 264.464 691.606L192.177 808.606C191.452 808.391 190.7 808.281 189.943 808.28C189.575 808.278 189.207 808.303 188.842 808.353L23.7449 426.705ZM18.885 426.738C18.9475 426.741 19.0101 426.744 19.0726 426.746C19.1215 426.744 19.1705 426.741 19.2194 426.738L185.002 810.026C184.083 810.766 183.341 811.703 182.832 812.767C182.322 813.832 182.058 814.998 182.058 816.178C182.06 817.757 182.535 819.3 183.421 820.606C184.308 821.912 185.566 822.922 187.032 823.505L129.097 1336.56C127.639 1336.79 126.274 1337.43 125.158 1338.39L4.17493 1256.74L18.885 426.738ZM436.68 434.334V434.343L657.829 686.474C656.162 688.564 655.251 691.158 655.244 693.833C655.247 695.789 655.733 697.713 656.659 699.434C657.585 701.155 658.923 702.62 660.553 703.698L546.125 968.101C544.73 967.704 543.287 967.501 541.836 967.498C538.579 967.504 535.403 968.518 532.744 970.402L273.833 690.7C274.164 689.987 274.336 689.21 274.339 688.424C274.336 687.284 273.977 686.174 273.311 685.25L427.906 435.077C429.055 435.5 430.27 435.718 431.494 435.721C433.314 435.718 435.101 435.24 436.68 434.334ZM3126.02 569.661L3079.45 953.61L2568.84 854.169C2568.78 853.961 2568.71 853.754 2568.64 853.549L3126.02 569.661ZM3129.19 578.114L3220.81 977.787C3219.65 978.453 3218.7 979.432 3218.07 980.61L3083.56 954.41L3129.19 578.114ZM1614.68 578.906C1614.85 579.512 1615.16 580.071 1615.58 580.539C1616 581.007 1616.53 581.372 1617.11 581.607L1649.71 792.083C1647.47 792.747 1645.4 793.9 1643.66 795.461L1500.37 672.594C1502.04 670.035 1502.93 667.048 1502.94 663.994C1502.94 661.513 1502.35 659.067 1501.23 656.854L1614.68 578.906ZM1621.35 581.582L1882.06 721.894C1881.93 722.477 1881.85 723.074 1881.85 723.673C1881.85 723.861 1881.86 724.049 1881.87 724.236L1668.2 800.039C1666.88 797.449 1664.87 795.276 1662.39 793.759C1659.91 792.241 1657.06 791.438 1654.15 791.438C1654.05 791.44 1653.94 791.443 1653.83 791.447L1621.35 581.582ZM1471.6 666.629C1471.87 668.222 1472.38 669.763 1473.12 671.199L1221.17 846.597C1218.95 844.377 1215.94 843.13 1212.8 843.129C1210.61 843.134 1208.45 843.75 1206.59 844.908C1204.72 846.067 1203.21 847.722 1202.23 849.69L679.927 695.441L1471.6 666.629ZM1475.52 674.634C1476.65 675.875 1477.97 676.927 1479.43 677.751L1236.42 1287.07L1235.12 1285.7L1215.43 866.506C1218.04 865.912 1220.38 864.447 1222.05 862.351C1223.73 860.255 1224.64 857.652 1224.64 854.969C1224.64 853.26 1224.26 851.574 1223.54 850.024L1475.52 674.634ZM1497.64 675.76H1497.64L1640.94 798.635C1639.27 801.191 1638.38 804.176 1638.38 807.227C1638.38 811.414 1640.04 815.43 1643 818.391C1645.96 821.352 1649.97 823.016 1654.15 823.016C1656.75 823.015 1659.31 822.371 1661.6 821.143C1663.89 819.914 1665.84 818.139 1667.28 815.974L1792.53 877.359C1792.43 877.848 1792.39 878.345 1792.38 878.844C1792.38 880.53 1792.92 882.171 1793.92 883.527L1555.36 1187.63C1554.51 1187.41 1553.63 1187.3 1552.76 1187.29C1552.05 1187.3 1551.34 1187.37 1550.65 1187.51L1491.04 679.277C1493.49 678.65 1495.75 677.444 1497.64 675.76ZM1483.3 679.277C1484.47 679.577 1485.68 679.741 1486.89 679.766L1546.63 1189.21C1545.18 1190.21 1544 1191.54 1543.18 1193.1C1542.36 1194.65 1541.93 1196.38 1541.93 1198.14C1541.93 1198.25 1541.93 1198.36 1541.94 1198.46L1244.13 1294.05C1243.15 1292.21 1241.7 1290.66 1239.93 1289.56L1483.3 679.277ZM270.767 693.548L529.678 973.226C529.297 973.692 528.944 974.18 528.618 974.686L197.706 817.573C197.791 817.113 197.834 816.646 197.836 816.178C197.83 814.192 197.076 812.28 195.724 810.826L268.036 693.809C268.316 693.856 268.599 693.88 268.884 693.882C269.526 693.883 270.164 693.77 270.767 693.548ZM677.652 699.121L1201.04 853.68C1201 854.108 1200.97 854.538 1200.97 854.969C1200.97 857.838 1202.02 860.608 1203.91 862.765C1205.8 864.922 1208.41 866.318 1211.25 866.694L1230.71 1281.09L676.633 700.81C677.019 700.276 677.36 699.711 677.652 699.121ZM673.624 703.682V703.69L1231 1287.43L1231.03 1288.07C1229.12 1288.51 1227.35 1289.42 1225.88 1290.71C1224.41 1292.01 1223.28 1293.65 1222.59 1295.49L862.809 1230.28C862.638 1228.31 861.737 1226.48 860.284 1225.14C858.83 1223.81 856.929 1223.07 854.956 1223.06C854.771 1223.06 854.586 1223.07 854.402 1223.08L672.898 704.115C673.145 703.979 673.387 703.835 673.624 703.682ZM664.361 705.338C665.253 705.555 666.167 705.668 667.084 705.673C667.705 705.667 668.323 705.613 668.935 705.51L850.463 1224.48C850.403 1224.52 850.343 1224.56 850.284 1224.61L555.388 991.324C556.838 988.89 557.607 986.111 557.615 983.278C557.609 980.561 556.903 977.891 555.565 975.527C554.226 973.162 552.3 971.184 549.974 969.782L664.361 705.338ZM1896.62 727.516L2112.09 769.465C2111.07 771.952 2110.54 774.616 2110.53 777.306C2110.54 781.185 2111.64 784.983 2113.7 788.267C2115.77 791.55 2118.71 794.185 2122.2 795.869L2047.98 1000.78L1808.15 878.322C1808.02 876.425 1807.22 874.637 1805.88 873.287L1887.76 731.294C1888.41 731.468 1889.08 731.558 1889.74 731.563C1891.15 731.561 1892.52 731.184 1893.73 730.473C1894.94 729.762 1895.94 728.741 1896.62 727.516ZM1883.27 728.177C1883.53 728.549 1883.82 728.899 1884.13 729.222L1802.27 871.215C1801.62 871.043 1800.95 870.955 1800.28 870.953C1798.8 870.958 1797.35 871.379 1796.09 872.169L1790.3 869.207L1791.54 872.251L1669.11 812.221C1669.65 810.611 1669.93 808.925 1669.93 807.227C1669.93 806.141 1669.81 805.058 1669.58 803.996L1883.27 728.177ZM2151.79 777.216L2543.49 853.508C2543.05 854.838 2542.82 856.229 2542.82 857.629C2542.82 861.143 2544.22 864.514 2546.7 866.999C2549.18 869.484 2552.55 870.88 2556.06 870.88C2558.12 870.877 2560.15 870.394 2561.99 869.468L2782.41 1176.24L2583.58 1263.76C2582.38 1261.89 2580.74 1260.36 2578.79 1259.3C2576.85 1258.24 2574.67 1257.69 2572.46 1257.68C2570.38 1257.69 2568.32 1258.18 2566.46 1259.13C2564.61 1260.08 2563 1261.45 2561.77 1263.14L2051.74 1002.71L2126.16 797.297C2127.79 797.716 2129.48 797.933 2131.16 797.942C2136.63 797.941 2141.88 795.767 2145.75 791.897C2149.61 788.027 2151.79 782.779 2151.79 777.306C2151.79 777.276 2151.79 777.246 2151.79 777.216ZM195.912 821.327L526.816 978.456C526.314 980.017 526.059 981.647 526.058 983.286C526.06 986.167 526.85 988.992 528.342 991.456C529.834 993.92 531.971 995.928 534.522 997.264L429.162 1285.77C428.948 1285.75 428.733 1285.74 428.518 1285.74C426.559 1285.74 424.67 1286.47 423.218 1287.78C421.767 1289.1 420.857 1290.91 420.665 1292.86L137.438 1341.03C136.592 1339.21 135.085 1337.78 133.223 1337.03L191.174 823.979C193.017 823.683 194.696 822.744 195.912 821.327ZM2569.26 858.526L3078.95 957.788L3068.36 1045.07C3066.72 1045.36 3065.22 1046.23 3064.15 1047.51C3063.07 1048.79 3062.48 1050.41 3062.48 1052.09C3062.48 1052.37 3062.5 1052.64 3062.54 1052.92L2786.32 1174.51L2565.39 867.037C2567.67 864.765 2569.05 861.74 2569.26 858.526ZM1807.23 882.556L2046.54 1004.75L1956.01 1254.67C1955.61 1254.62 1955.21 1254.59 1954.81 1254.58C1954.28 1254.59 1953.74 1254.63 1953.21 1254.72L1801.94 886.538C1803.06 886.298 1804.11 885.817 1805.02 885.13C1805.94 884.442 1806.69 883.564 1807.23 882.556ZM1796.27 887.346L1659.76 1509.31C1659.7 1509.31 1659.64 1509.31 1659.58 1509.32L1558.12 1207.55C1559.78 1206.61 1561.17 1205.24 1562.13 1203.59C1563.09 1201.93 1563.6 1200.06 1563.6 1198.14C1563.6 1196.46 1563.2 1194.79 1562.44 1193.29C1561.68 1191.78 1560.58 1190.47 1559.23 1189.46L1796.27 887.346ZM1799.57 891.769L1949.34 1256.32C1948.08 1257.2 1947.06 1258.37 1946.34 1259.73C1945.63 1261.1 1945.26 1262.61 1945.26 1264.15C1945.26 1265.75 1945.66 1267.32 1946.43 1268.73C1947.2 1270.13 1948.31 1271.32 1949.66 1272.18L1833.49 1592.87L1668 1519.41C1668.17 1518.76 1668.25 1518.1 1668.25 1517.43C1668.25 1515.94 1667.84 1514.47 1667.06 1513.2C1666.29 1511.92 1665.18 1510.88 1663.85 1510.2L1799.57 891.769ZM3083.05 958.587L3217.28 984.731C3217.29 984.755 3217.29 984.78 3217.29 984.804L3075 1047.44C3074.31 1046.64 3073.46 1046 3072.5 1045.58L3083.05 958.587ZM3218.98 988.623C3219.23 988.92 3219.51 989.195 3219.81 989.447L3094.21 1290.53L3019.67 1481.12L3070.85 1059.11C3072.5 1058.82 3074 1057.96 3075.07 1056.67C3076.15 1055.39 3076.74 1053.76 3076.74 1052.09C3076.74 1051.81 3076.72 1051.54 3076.68 1051.26L3218.98 988.623ZM552.812 994.628L847.683 1227.89C847.274 1228.87 847.063 1229.91 847.063 1230.96C847.065 1232.79 847.699 1234.55 848.857 1235.96L616.113 1563.74C615.611 1563.56 615.092 1563.43 614.563 1563.35L545.799 998.561C548.437 997.878 550.853 996.523 552.812 994.628ZM538.444 998.7C539.502 998.932 540.582 999.056 541.665 999.067L610.242 1562.65L434.462 1298.81C435.713 1297.37 436.402 1295.53 436.403 1293.63C436.401 1292.37 436.098 1291.13 435.519 1290.01C434.941 1288.89 434.103 1287.93 433.076 1287.2L538.444 998.7ZM2050.31 1006.68L2559.86 1266.86C2559.44 1268.18 2559.22 1269.55 2559.22 1270.94C2559.22 1272.07 2559.37 1273.2 2559.66 1274.29L2052.89 1497.36L1960.29 1271.96C1961.55 1271.08 1962.57 1269.91 1963.28 1268.55C1963.99 1267.19 1964.36 1265.68 1964.36 1264.15C1964.36 1262.54 1963.96 1260.97 1963.19 1259.56C1962.41 1258.15 1961.3 1256.96 1959.95 1256.1L2050.31 1006.68ZM3064.21 1056.75C3064.9 1057.54 3065.76 1058.18 3066.72 1058.61L3015.13 1483.99C3013.24 1484.06 3011.39 1484.54 3009.69 1485.39L2788.81 1177.98L3064.21 1056.75ZM2784.9 1179.7L3006.29 1487.82C3005.8 1488.32 3005.34 1488.85 3004.93 1489.43L2585.05 1275.02C2585.48 1273.7 2585.7 1272.32 2585.7 1270.94C2585.7 1269.8 2585.55 1268.68 2585.26 1267.58L2784.9 1179.7ZM1542.88 1202.56C1543.27 1203.43 1543.77 1204.25 1544.37 1204.99L1253.99 1554.81C1251.88 1553.48 1249.48 1552.67 1247 1552.44L1236.29 1311.14C1238.9 1310.55 1241.24 1309.08 1242.92 1306.99C1244.6 1304.89 1245.51 1302.29 1245.52 1299.6L1247.02 1298.17L1246.54 1297.67L1542.88 1202.56ZM1547.59 1207.67C1549.18 1208.53 1550.96 1208.99 1552.77 1208.99C1553.23 1208.98 1553.7 1208.94 1554.16 1208.87L1655.65 1510.63C1654.68 1511.27 1653.86 1512.11 1653.25 1513.09C1652.63 1514.07 1652.23 1515.17 1652.07 1516.32L1260.87 1564.18C1260.22 1561.67 1258.95 1559.36 1257.19 1557.46L1547.59 1207.67ZM862.059 1234.37L1221.84 1299.56C1221.84 1299.57 1221.84 1299.59 1221.84 1299.6C1221.85 1300.91 1222.07 1302.21 1222.51 1303.45L1009.68 1422.38C1008.95 1421.63 1008.07 1421.04 1007.1 1420.64C1006.14 1420.23 1005.1 1420.03 1004.06 1420.03C1003.06 1420.03 1002.07 1420.22 1001.14 1420.59L861.569 1235.25C861.751 1234.97 861.914 1234.68 862.059 1234.37ZM858.446 1238.04L997.809 1423.1C996.747 1424.48 996.171 1426.18 996.17 1427.92C996.172 1429.32 996.549 1430.7 997.261 1431.91C997.974 1433.12 998.996 1434.12 1000.22 1434.8L954.771 1619.55L621.225 1570.2C621.047 1568.72 620.454 1567.32 619.513 1566.16L852.265 1238.38C853.128 1238.7 854.038 1238.86 854.956 1238.86C856.167 1238.86 857.361 1238.58 858.446 1238.04ZM8.81466 1264.89L122.834 1341.84C122.56 1342.66 122.419 1343.51 122.419 1344.36C122.42 1346.46 123.251 1348.46 124.729 1349.94C126.208 1351.42 128.213 1352.25 130.304 1352.25C130.639 1352.25 130.974 1352.22 131.307 1352.17L281.759 1713.57L8.81466 1264.89ZM1956.43 1273.56L2049.07 1499.05L1838.34 1591.8L1953.6 1273.62C1954 1273.67 1954.41 1273.7 1954.81 1273.7C1955.36 1273.7 1955.9 1273.66 1956.43 1273.56ZM2561.32 1278.12C2562.52 1279.98 2564.17 1281.51 2566.12 1282.57C2568.06 1283.63 2570.24 1284.19 2572.46 1284.19C2573.65 1284.19 2574.84 1284.03 2575.98 1283.71L2743.92 1653.11L2234.46 1626.43L1843.06 1594.29L2561.32 1278.12ZM2583.14 1278.74L3003.02 1493.15C3002.6 1494.47 3002.38 1495.84 3002.37 1497.23C3002.37 1498.88 3002.69 1500.52 3003.29 1502.06L2748.17 1652.4L2579.77 1281.98C2581.07 1281.11 2582.22 1280.01 2583.14 1278.74ZM421.375 1296.97C422.016 1298.34 423.038 1299.5 424.318 1300.3L294.512 1730.37C294.447 1730.37 294.382 1730.36 294.316 1730.36C293.989 1730.37 293.662 1730.39 293.338 1730.43L135.163 1350.57C136.001 1349.91 136.698 1349.09 137.213 1348.16C137.727 1347.23 138.048 1346.21 138.156 1345.15L421.375 1296.97ZM431.013 1301.11L607.469 1565.95C606.209 1567.39 605.514 1569.24 605.512 1571.15C605.517 1571.72 605.583 1572.28 605.708 1572.83L300.09 1732.88C299.624 1732.38 299.095 1731.94 298.516 1731.58L428.322 1301.52C428.387 1301.52 428.452 1301.52 428.518 1301.53C429.366 1301.52 430.209 1301.38 431.013 1301.11ZM1224.55 1307.12C1226.45 1309.42 1229.15 1310.93 1232.1 1311.33L1242.83 1552.63C1239.18 1553.28 1235.88 1555.2 1233.51 1558.04C1231.13 1560.88 1229.83 1564.46 1229.83 1568.16C1229.83 1568.43 1229.84 1568.7 1229.86 1568.96L959.142 1619.24L1004.27 1435.8C1006.32 1435.75 1008.27 1434.89 1009.71 1433.42C1011.14 1431.95 1011.95 1429.97 1011.95 1427.92C1011.95 1427.28 1011.87 1426.65 1011.71 1426.03L1224.55 1307.12Z" transform="translate(0 -95) scale(0.264583)" fill="#00CCFF"/>
</g>
</g>
<defs>
<clipPath id="clip0">
<rect width="824" height="244" fill="white"/>
</clipPath>
</defs>
</svg>
