<svg width="867" height="530" viewBox="0 0 867 530" fill="none" xmlns="http://www.w3.org/2000/svg">
<rect width="417" height="4" transform="translate(225 526)" fill="#00CCFF"/>
<path d="M2.04 7.368C2.648 7.224 3.304 7.128 4.008 7.08C4.712 7.032 5.408 7.008 6.096 7.008C6.832 7.008 7.576 7.08 8.328 7.224C9.096 7.368 9.792 7.632 10.416 8.016C11.04 8.4 11.544 8.928 11.928 9.6C12.328 10.272 12.528 11.128 12.528 12.168C12.528 13.192 12.344 14.056 11.976 14.76C11.608 15.464 11.12 16.04 10.512 16.488C9.904 16.92 9.208 17.232 8.424 17.424C7.64 17.616 6.832 17.712 6 17.712C5.92 17.712 5.784 17.712 5.592 17.712C5.416 17.712 5.224 17.712 5.016 17.712C4.824 17.696 4.632 17.68 4.44 17.664C4.248 17.648 4.112 17.632 4.032 17.616V24H2.04V7.368ZM6.144 8.736C5.728 8.736 5.328 8.744 4.944 8.76C4.56 8.776 4.256 8.816 4.032 8.88V15.84C4.112 15.872 4.24 15.896 4.416 15.912C4.592 15.912 4.776 15.92 4.968 15.936C5.16 15.936 5.344 15.936 5.52 15.936C5.696 15.936 5.824 15.936 5.904 15.936C6.448 15.936 6.984 15.888 7.512 15.792C8.056 15.68 8.544 15.488 8.976 15.216C9.408 14.944 9.752 14.56 10.008 14.064C10.28 13.568 10.416 12.936 10.416 12.168C10.416 11.512 10.288 10.968 10.032 10.536C9.792 10.088 9.464 9.736 9.048 9.48C8.648 9.208 8.192 9.016 7.68 8.904C7.168 8.792 6.656 8.736 6.144 8.736ZM14.2419 12.888C14.8499 12.52 15.5539 12.248 16.3539 12.072C17.1699 11.896 18.0179 11.808 18.8979 11.808C19.7299 11.808 20.3939 11.92 20.8899 12.144C21.4019 12.368 21.7859 12.664 22.0419 13.032C22.3139 13.384 22.4899 13.776 22.5699 14.208C22.6659 14.64 22.7139 15.072 22.7139 15.504C22.7139 16.464 22.6899 17.4 22.6419 18.312C22.5939 19.224 22.5699 20.088 22.5699 20.904C22.5699 21.496 22.5939 22.056 22.6419 22.584C22.6899 23.112 22.7779 23.6 22.9059 24.048H21.4899L20.9859 22.368H20.8659C20.7219 22.592 20.5379 22.816 20.3139 23.04C20.1059 23.248 19.8499 23.44 19.5459 23.616C19.2419 23.776 18.8899 23.912 18.4899 24.024C18.0899 24.136 17.6339 24.192 17.1219 24.192C16.6099 24.192 16.1299 24.112 15.6819 23.952C15.2499 23.792 14.8739 23.568 14.5539 23.28C14.2339 22.976 13.9779 22.616 13.7859 22.2C13.6099 21.784 13.5219 21.312 13.5219 20.784C13.5219 20.08 13.6659 19.496 13.9539 19.032C14.2419 18.552 14.6419 18.176 15.1539 17.904C15.6819 17.616 16.3059 17.416 17.0259 17.304C17.7619 17.176 18.5699 17.112 19.4499 17.112C19.6739 17.112 19.8899 17.112 20.0979 17.112C20.3219 17.112 20.5459 17.128 20.7699 17.16C20.8179 16.68 20.8419 16.248 20.8419 15.864C20.8419 14.984 20.6659 14.368 20.3139 14.016C19.9619 13.664 19.3219 13.488 18.3939 13.488C18.1219 13.488 17.8259 13.512 17.5059 13.56C17.2019 13.592 16.8819 13.648 16.5459 13.728C16.2259 13.792 15.9139 13.88 15.6099 13.992C15.3219 14.088 15.0659 14.2 14.8419 14.328L14.2419 12.888ZM17.6499 22.512C18.0979 22.512 18.4979 22.456 18.8499 22.344C19.2019 22.216 19.5059 22.064 19.7619 21.888C20.0179 21.696 20.2259 21.488 20.3859 21.264C20.5619 21.04 20.6899 20.824 20.7699 20.616V18.624C20.5459 18.608 20.3139 18.6 20.0739 18.6C19.8499 18.584 19.6259 18.576 19.4019 18.576C18.9059 18.576 18.4179 18.608 17.9379 18.672C17.4739 18.72 17.0579 18.824 16.6899 18.984C16.3379 19.128 16.0499 19.336 15.8259 19.608C15.6179 19.864 15.5139 20.192 15.5139 20.592C15.5139 21.152 15.7139 21.616 16.1139 21.984C16.5139 22.336 17.0259 22.512 17.6499 22.512ZM27.4922 18.648V17.088H29.1722C29.4602 17.088 29.7402 17.04 30.0122 16.944C30.3002 16.848 30.5562 16.72 30.7802 16.56C31.0042 16.384 31.1802 16.184 31.3082 15.96C31.4522 15.72 31.5242 15.472 31.5242 15.216C31.5242 14.592 31.3082 14.152 30.8762 13.896C30.4442 13.64 29.7962 13.512 28.9322 13.512C28.3082 13.512 27.7322 13.608 27.2042 13.8C26.6922 13.992 26.2922 14.176 26.0042 14.352L25.4522 12.864C25.9322 12.592 26.4922 12.352 27.1322 12.144C27.7882 11.936 28.5642 11.832 29.4602 11.832C32.1162 11.832 33.4442 12.816 33.4442 14.784C33.4442 15.344 33.2602 15.896 32.8922 16.44C32.5402 16.968 32.0282 17.344 31.3562 17.568V17.664C32.3002 17.84 32.9562 18.176 33.3242 18.672C33.7082 19.168 33.9002 19.824 33.9002 20.64C33.9002 21.152 33.7962 21.624 33.5882 22.056C33.3802 22.488 33.0682 22.864 32.6522 23.184C32.2362 23.504 31.7082 23.76 31.0682 23.952C30.4442 24.128 29.7162 24.216 28.8842 24.216C28.0682 24.216 27.3882 24.144 26.8442 24C26.3162 23.856 25.8362 23.68 25.4042 23.472L25.9562 21.888C26.3242 22.096 26.7642 22.256 27.2762 22.368C27.8042 22.48 28.3722 22.536 28.9802 22.536C29.9562 22.536 30.7002 22.368 31.2122 22.032C31.7242 21.696 31.9802 21.184 31.9802 20.496C31.9802 19.92 31.7402 19.472 31.2602 19.152C30.7802 18.816 29.9882 18.648 28.8842 18.648H27.4922ZM36.9339 12H38.2539L38.6139 13.44H38.7099C39.0779 12.88 39.5499 12.456 40.1259 12.168C40.7179 11.864 41.3899 11.712 42.1419 11.712C43.7419 11.712 44.9339 12.184 45.7179 13.128C46.5019 14.072 46.8939 15.616 46.8939 17.76C46.8939 18.768 46.7579 19.68 46.4859 20.496C46.2299 21.296 45.8619 21.976 45.3819 22.536C44.9019 23.096 44.3179 23.528 43.6299 23.832C42.9579 24.136 42.2059 24.288 41.3739 24.288C40.7819 24.288 40.3099 24.248 39.9579 24.168C39.6219 24.104 39.2539 23.984 38.8539 23.808V28.8H36.9339V12ZM41.7819 13.392C40.9659 13.392 40.3179 13.608 39.8379 14.04C39.3739 14.456 39.0459 15.096 38.8539 15.96V21.912C39.1419 22.136 39.4699 22.312 39.8379 22.44C40.2059 22.552 40.6939 22.608 41.3019 22.608C42.4059 22.608 43.2779 22.2 43.9179 21.384C44.5739 20.552 44.9019 19.336 44.9019 17.736C44.9019 17.08 44.8459 16.488 44.7339 15.96C44.6219 15.416 44.4379 14.96 44.1819 14.592C43.9419 14.208 43.6219 13.912 43.2219 13.704C42.8379 13.496 42.3579 13.392 41.7819 13.392ZM49.7263 12.888C50.3343 12.52 51.0383 12.248 51.8383 12.072C52.6543 11.896 53.5023 11.808 54.3823 11.808C55.2143 11.808 55.8783 11.92 56.3743 12.144C56.8863 12.368 57.2703 12.664 57.5263 13.032C57.7983 13.384 57.9743 13.776 58.0543 14.208C58.1503 14.64 58.1983 15.072 58.1983 15.504C58.1983 16.464 58.1743 17.4 58.1263 18.312C58.0783 19.224 58.0543 20.088 58.0543 20.904C58.0543 21.496 58.0783 22.056 58.1263 22.584C58.1743 23.112 58.2623 23.6 58.3903 24.048H56.9743L56.4703 22.368H56.3503C56.2063 22.592 56.0223 22.816 55.7983 23.04C55.5903 23.248 55.3343 23.44 55.0303 23.616C54.7263 23.776 54.3743 23.912 53.9743 24.024C53.5743 24.136 53.1183 24.192 52.6063 24.192C52.0943 24.192 51.6143 24.112 51.1663 23.952C50.7343 23.792 50.3583 23.568 50.0383 23.28C49.7183 22.976 49.4623 22.616 49.2703 22.2C49.0943 21.784 49.0063 21.312 49.0063 20.784C49.0063 20.08 49.1503 19.496 49.4383 19.032C49.7263 18.552 50.1263 18.176 50.6383 17.904C51.1663 17.616 51.7903 17.416 52.5103 17.304C53.2463 17.176 54.0543 17.112 54.9343 17.112C55.1583 17.112 55.3743 17.112 55.5823 17.112C55.8063 17.112 56.0303 17.128 56.2543 17.16C56.3023 16.68 56.3263 16.248 56.3263 15.864C56.3263 14.984 56.1503 14.368 55.7983 14.016C55.4463 13.664 54.8063 13.488 53.8783 13.488C53.6063 13.488 53.3103 13.512 52.9903 13.56C52.6863 13.592 52.3663 13.648 52.0303 13.728C51.7103 13.792 51.3983 13.88 51.0943 13.992C50.8063 14.088 50.5503 14.2 50.3263 14.328L49.7263 12.888ZM53.1343 22.512C53.5823 22.512 53.9823 22.456 54.3343 22.344C54.6863 22.216 54.9903 22.064 55.2463 21.888C55.5023 21.696 55.7103 21.488 55.8703 21.264C56.0463 21.04 56.1743 20.824 56.2543 20.616V18.624C56.0303 18.608 55.7983 18.6 55.5583 18.6C55.3343 18.584 55.1103 18.576 54.8863 18.576C54.3903 18.576 53.9023 18.608 53.4223 18.672C52.9583 18.72 52.5423 18.824 52.1743 18.984C51.8223 19.128 51.5343 19.336 51.3103 19.608C51.1023 19.864 50.9983 20.192 50.9983 20.592C50.9983 21.152 51.1983 21.616 51.5983 21.984C51.9983 22.336 52.5103 22.512 53.1343 22.512ZM62.9286 14.136C63.4566 13.368 64.0406 12.832 64.6806 12.528C65.3206 12.208 66.1206 12.048 67.0806 12.048C68.5526 12.048 69.6806 12.528 70.4646 13.488C71.2646 14.448 71.6646 15.864 71.6646 17.736C71.6646 19.896 71.2006 21.528 70.2726 22.632C69.3606 23.736 68.0806 24.288 66.4326 24.288C64.6726 24.288 63.3526 23.68 62.4726 22.464C61.5926 21.248 61.1526 19.336 61.1526 16.728C61.1526 15.352 61.2166 14.176 61.3446 13.2C61.4886 12.224 61.6886 11.4 61.9446 10.728C62.2166 10.056 62.5366 9.52 62.9046 9.12C63.2886 8.72 63.7126 8.408 64.1766 8.184C64.6566 7.944 65.1766 7.776 65.7366 7.68C66.2966 7.584 66.8966 7.504 67.5366 7.44C68.3686 7.36 69.0166 7.272 69.4806 7.176C69.9606 7.064 70.3446 6.872 70.6326 6.6L70.8486 8.328C70.6886 8.472 70.5126 8.592 70.3206 8.688C70.1286 8.784 69.8966 8.864 69.6246 8.928C69.3526 8.992 69.0246 9.048 68.6406 9.096C68.2726 9.144 67.8406 9.184 67.3446 9.216C66.6566 9.264 66.0486 9.352 65.5206 9.48C65.0086 9.592 64.5606 9.824 64.1766 10.176C63.8086 10.512 63.5126 11 63.2886 11.64C63.0806 12.264 62.9366 13.096 62.8566 14.136H62.9286ZM63.1446 18.024C63.1446 18.632 63.2086 19.216 63.3366 19.776C63.4646 20.336 63.6566 20.832 63.9126 21.264C64.1846 21.68 64.5286 22.008 64.9446 22.248C65.3606 22.488 65.8486 22.608 66.4086 22.608C67.5126 22.608 68.3286 22.216 68.8566 21.432C69.4006 20.632 69.6726 19.456 69.6726 17.904C69.6726 17.296 69.6166 16.736 69.5046 16.224C69.3926 15.712 69.2166 15.272 68.9766 14.904C68.7366 14.52 68.4326 14.232 68.0646 14.04C67.6966 13.832 67.2566 13.728 66.7446 13.728C65.4966 13.712 64.5846 14.08 64.0086 14.832C63.4326 15.568 63.1446 16.632 63.1446 18.024ZM74.0197 18C74.0197 15.968 74.4677 14.416 75.3637 13.344C76.2757 12.256 77.5798 11.712 79.2758 11.712C80.1718 11.712 80.9478 11.864 81.6038 12.168C82.2758 12.456 82.8277 12.88 83.2597 13.44C83.6917 13.984 84.0117 14.648 84.2198 15.432C84.4277 16.2 84.5317 17.056 84.5317 18C84.5317 20.032 84.0757 21.592 83.1638 22.68C82.2678 23.752 80.9718 24.288 79.2758 24.288C78.3798 24.288 77.5957 24.144 76.9238 23.856C76.2677 23.552 75.7237 23.128 75.2917 22.584C74.8598 22.024 74.5398 21.36 74.3317 20.592C74.1237 19.808 74.0197 18.944 74.0197 18ZM76.0117 18C76.0117 18.608 76.0677 19.192 76.1797 19.752C76.3077 20.312 76.4998 20.8 76.7558 21.216C77.0118 21.632 77.3478 21.968 77.7637 22.224C78.1798 22.48 78.6838 22.608 79.2758 22.608C81.4518 22.624 82.5398 21.088 82.5398 18C82.5398 17.376 82.4758 16.784 82.3477 16.224C82.2357 15.664 82.0517 15.176 81.7957 14.76C81.5397 14.344 81.2037 14.016 80.7878 13.776C80.3718 13.52 79.8678 13.392 79.2758 13.392C77.0998 13.376 76.0117 14.912 76.0117 18ZM94.8399 13.68H91.0719V24H89.1519V13.68H85.3839V12H94.8399V13.68ZM99.7704 18.6H98.6664V24H96.7464V12H98.6664V17.424L99.6984 17.088L103.538 12H105.626L101.906 16.824L100.898 17.616L102.146 18.576L106.154 24H103.778L99.7704 18.6ZM108.015 12.888C108.623 12.52 109.327 12.248 110.127 12.072C110.943 11.896 111.791 11.808 112.671 11.808C113.503 11.808 114.167 11.92 114.663 12.144C115.175 12.368 115.559 12.664 115.815 13.032C116.087 13.384 116.263 13.776 116.343 14.208C116.439 14.64 116.487 15.072 116.487 15.504C116.487 16.464 116.463 17.4 116.415 18.312C116.367 19.224 116.343 20.088 116.343 20.904C116.343 21.496 116.367 22.056 116.415 22.584C116.463 23.112 116.551 23.6 116.679 24.048H115.263L114.759 22.368H114.639C114.495 22.592 114.311 22.816 114.087 23.04C113.879 23.248 113.623 23.44 113.319 23.616C113.015 23.776 112.663 23.912 112.263 24.024C111.863 24.136 111.407 24.192 110.895 24.192C110.383 24.192 109.903 24.112 109.455 23.952C109.023 23.792 108.647 23.568 108.327 23.28C108.007 22.976 107.751 22.616 107.559 22.2C107.383 21.784 107.295 21.312 107.295 20.784C107.295 20.08 107.439 19.496 107.727 19.032C108.015 18.552 108.415 18.176 108.927 17.904C109.455 17.616 110.079 17.416 110.799 17.304C111.535 17.176 112.343 17.112 113.223 17.112C113.447 17.112 113.663 17.112 113.871 17.112C114.095 17.112 114.319 17.128 114.543 17.16C114.591 16.68 114.615 16.248 114.615 15.864C114.615 14.984 114.439 14.368 114.087 14.016C113.735 13.664 113.095 13.488 112.167 13.488C111.895 13.488 111.599 13.512 111.279 13.56C110.975 13.592 110.655 13.648 110.319 13.728C109.999 13.792 109.687 13.88 109.383 13.992C109.095 14.088 108.839 14.2 108.615 14.328L108.015 12.888ZM111.423 22.512C111.871 22.512 112.271 22.456 112.623 22.344C112.975 22.216 113.279 22.064 113.535 21.888C113.791 21.696 113.999 21.488 114.159 21.264C114.335 21.04 114.463 20.824 114.543 20.616V18.624C114.319 18.608 114.087 18.6 113.847 18.6C113.623 18.584 113.399 18.576 113.175 18.576C112.679 18.576 112.191 18.608 111.711 18.672C111.247 18.72 110.831 18.824 110.463 18.984C110.111 19.128 109.823 19.336 109.599 19.608C109.391 19.864 109.287 20.192 109.287 20.592C109.287 21.152 109.487 21.616 109.887 21.984C110.287 22.336 110.799 22.512 111.423 22.512ZM133.736 13.68H128.432V24H126.512V12H135.656V24H133.736V13.68ZM139.356 12H140.676L141.036 13.44H141.132C141.5 12.88 141.972 12.456 142.548 12.168C143.14 11.864 143.812 11.712 144.564 11.712C146.164 11.712 147.356 12.184 148.14 13.128C148.924 14.072 149.316 15.616 149.316 17.76C149.316 18.768 149.18 19.68 148.908 20.496C148.652 21.296 148.284 21.976 147.804 22.536C147.324 23.096 146.74 23.528 146.052 23.832C145.38 24.136 144.628 24.288 143.796 24.288C143.204 24.288 142.732 24.248 142.38 24.168C142.044 24.104 141.676 23.984 141.276 23.808V28.8H139.356V12ZM144.204 13.392C143.388 13.392 142.74 13.608 142.26 14.04C141.796 14.456 141.468 15.096 141.276 15.96V21.912C141.564 22.136 141.892 22.312 142.26 22.44C142.628 22.552 143.116 22.608 143.724 22.608C144.828 22.608 145.7 22.2 146.34 21.384C146.996 20.552 147.324 19.336 147.324 17.736C147.324 17.08 147.268 16.488 147.156 15.96C147.044 15.416 146.86 14.96 146.604 14.592C146.364 14.208 146.044 13.912 145.644 13.704C145.26 13.496 144.78 13.392 144.204 13.392ZM151.668 18C151.668 15.968 152.116 14.416 153.012 13.344C153.924 12.256 155.228 11.712 156.924 11.712C157.82 11.712 158.596 11.864 159.252 12.168C159.924 12.456 160.476 12.88 160.908 13.44C161.34 13.984 161.66 14.648 161.868 15.432C162.076 16.2 162.18 17.056 162.18 18C162.18 20.032 161.724 21.592 160.812 22.68C159.916 23.752 158.62 24.288 156.924 24.288C156.028 24.288 155.244 24.144 154.572 23.856C153.916 23.552 153.372 23.128 152.94 22.584C152.508 22.024 152.188 21.36 151.98 20.592C151.772 19.808 151.668 18.944 151.668 18ZM153.66 18C153.66 18.608 153.716 19.192 153.828 19.752C153.956 20.312 154.148 20.8 154.404 21.216C154.66 21.632 154.996 21.968 155.412 22.224C155.828 22.48 156.332 22.608 156.924 22.608C159.1 22.624 160.188 21.088 160.188 18C160.188 17.376 160.124 16.784 159.996 16.224C159.884 15.664 159.7 15.176 159.444 14.76C159.188 14.344 158.852 14.016 158.436 13.776C158.02 13.52 157.516 13.392 156.924 13.392C154.748 13.376 153.66 14.912 153.66 18ZM172.215 13.68H167.127V24H165.207V12H172.215V13.68ZM174.067 12H175.387L175.747 13.44H175.843C176.211 12.88 176.683 12.456 177.259 12.168C177.851 11.864 178.523 11.712 179.275 11.712C180.875 11.712 182.067 12.184 182.851 13.128C183.635 14.072 184.027 15.616 184.027 17.76C184.027 18.768 183.891 19.68 183.619 20.496C183.363 21.296 182.995 21.976 182.515 22.536C182.035 23.096 181.451 23.528 180.763 23.832C180.091 24.136 179.339 24.288 178.507 24.288C177.915 24.288 177.443 24.248 177.091 24.168C176.755 24.104 176.387 23.984 175.987 23.808V28.8H174.067V12ZM178.915 13.392C178.099 13.392 177.451 13.608 176.971 14.04C176.507 14.456 176.179 15.096 175.987 15.96V21.912C176.275 22.136 176.603 22.312 176.971 22.44C177.339 22.552 177.827 22.608 178.435 22.608C179.539 22.608 180.411 22.2 181.051 21.384C181.707 20.552 182.035 19.336 182.035 17.736C182.035 17.08 181.979 16.488 181.867 15.96C181.755 15.416 181.571 14.96 181.315 14.592C181.075 14.208 180.755 13.912 180.355 13.704C179.971 13.496 179.491 13.392 178.915 13.392ZM186.859 12.888C187.467 12.52 188.171 12.248 188.971 12.072C189.787 11.896 190.635 11.808 191.515 11.808C192.347 11.808 193.011 11.92 193.507 12.144C194.019 12.368 194.403 12.664 194.659 13.032C194.931 13.384 195.107 13.776 195.187 14.208C195.283 14.64 195.331 15.072 195.331 15.504C195.331 16.464 195.307 17.4 195.259 18.312C195.211 19.224 195.187 20.088 195.187 20.904C195.187 21.496 195.211 22.056 195.259 22.584C195.307 23.112 195.395 23.6 195.523 24.048H194.107L193.603 22.368H193.483C193.339 22.592 193.155 22.816 192.931 23.04C192.723 23.248 192.467 23.44 192.163 23.616C191.859 23.776 191.507 23.912 191.107 24.024C190.707 24.136 190.251 24.192 189.739 24.192C189.227 24.192 188.747 24.112 188.299 23.952C187.867 23.792 187.491 23.568 187.171 23.28C186.851 22.976 186.595 22.616 186.403 22.2C186.227 21.784 186.139 21.312 186.139 20.784C186.139 20.08 186.283 19.496 186.571 19.032C186.859 18.552 187.259 18.176 187.771 17.904C188.299 17.616 188.923 17.416 189.643 17.304C190.379 17.176 191.187 17.112 192.067 17.112C192.291 17.112 192.507 17.112 192.715 17.112C192.939 17.112 193.163 17.128 193.387 17.16C193.435 16.68 193.459 16.248 193.459 15.864C193.459 14.984 193.283 14.368 192.931 14.016C192.579 13.664 191.939 13.488 191.011 13.488C190.739 13.488 190.443 13.512 190.123 13.56C189.819 13.592 189.499 13.648 189.163 13.728C188.843 13.792 188.531 13.88 188.227 13.992C187.939 14.088 187.683 14.2 187.459 14.328L186.859 12.888ZM190.267 22.512C190.715 22.512 191.115 22.456 191.467 22.344C191.819 22.216 192.123 22.064 192.379 21.888C192.635 21.696 192.843 21.488 193.003 21.264C193.179 21.04 193.307 20.824 193.387 20.616V18.624C193.163 18.608 192.931 18.6 192.691 18.6C192.467 18.584 192.243 18.576 192.019 18.576C191.523 18.576 191.035 18.608 190.555 18.672C190.091 18.72 189.675 18.824 189.307 18.984C188.955 19.128 188.667 19.336 188.443 19.608C188.235 19.864 188.131 20.192 188.131 20.592C188.131 21.152 188.331 21.616 188.731 21.984C189.131 22.336 189.643 22.512 190.267 22.512ZM208.869 16.872L209.013 14.592H208.893L208.029 16.44L205.125 21.144H204.453L201.429 16.44L200.637 14.592H200.541L200.733 16.848V24H198.957V12H200.853L204.213 17.376L204.909 18.768H204.957L205.677 17.328L208.821 12H210.741V24H208.869V16.872ZM224.338 16.872L224.482 14.592H224.362L223.498 16.44L220.594 21.144H219.922L216.898 16.44L216.106 14.592H216.01L216.202 16.848V24H214.426V12H216.322L219.682 17.376L220.378 18.768H220.426L221.146 17.328L224.29 12H226.21V24H224.338V16.872ZM237.239 18.696H231.815V24H229.895V12H231.815V17.016H237.239V12H239.159V24H237.239V18.696ZM242.184 18C242.184 15.968 242.632 14.416 243.528 13.344C244.44 12.256 245.744 11.712 247.44 11.712C248.336 11.712 249.112 11.864 249.768 12.168C250.44 12.456 250.992 12.88 251.424 13.44C251.856 13.984 252.176 14.648 252.384 15.432C252.592 16.2 252.696 17.056 252.696 18C252.696 20.032 252.24 21.592 251.328 22.68C250.432 23.752 249.136 24.288 247.44 24.288C246.544 24.288 245.76 24.144 245.088 23.856C244.432 23.552 243.888 23.128 243.456 22.584C243.024 22.024 242.704 21.36 242.496 20.592C242.288 19.808 242.184 18.944 242.184 18ZM244.176 18C244.176 18.608 244.232 19.192 244.344 19.752C244.472 20.312 244.664 20.8 244.92 21.216C245.176 21.632 245.512 21.968 245.928 22.224C246.344 22.48 246.848 22.608 247.44 22.608C249.616 22.624 250.704 21.088 250.704 18C250.704 17.376 250.64 16.784 250.512 16.224C250.4 15.664 250.216 15.176 249.96 14.76C249.704 14.344 249.368 14.016 248.952 13.776C248.536 13.52 248.032 13.392 247.44 13.392C245.264 13.376 244.176 14.912 244.176 18ZM262.731 13.68H257.643V24H255.723V12H262.731V13.68ZM263.535 18C263.535 15.968 263.983 14.416 264.879 13.344C265.791 12.256 267.095 11.712 268.791 11.712C269.687 11.712 270.463 11.864 271.119 12.168C271.791 12.456 272.343 12.88 272.775 13.44C273.207 13.984 273.527 14.648 273.735 15.432C273.943 16.2 274.047 17.056 274.047 18C274.047 20.032 273.591 21.592 272.679 22.68C271.783 23.752 270.487 24.288 268.791 24.288C267.895 24.288 267.111 24.144 266.439 23.856C265.783 23.552 265.239 23.128 264.807 22.584C264.375 22.024 264.055 21.36 263.847 20.592C263.639 19.808 263.535 18.944 263.535 18ZM265.527 18C265.527 18.608 265.583 19.192 265.695 19.752C265.823 20.312 266.015 20.8 266.271 21.216C266.527 21.632 266.863 21.968 267.279 22.224C267.695 22.48 268.199 22.608 268.791 22.608C270.967 22.624 272.055 21.088 272.055 18C272.055 17.376 271.991 16.784 271.863 16.224C271.751 15.664 271.567 15.176 271.311 14.76C271.055 14.344 270.719 14.016 270.303 13.776C269.887 13.52 269.383 13.392 268.791 13.392C266.615 13.376 265.527 14.912 265.527 18ZM282.801 18C282.801 15.968 283.249 14.416 284.145 13.344C285.057 12.256 286.361 11.712 288.057 11.712C288.953 11.712 289.729 11.864 290.385 12.168C291.057 12.456 291.609 12.88 292.041 13.44C292.473 13.984 292.793 14.648 293.001 15.432C293.209 16.2 293.313 17.056 293.313 18C293.313 20.032 292.857 21.592 291.945 22.68C291.049 23.752 289.753 24.288 288.057 24.288C287.161 24.288 286.377 24.144 285.705 23.856C285.049 23.552 284.505 23.128 284.073 22.584C283.641 22.024 283.321 21.36 283.113 20.592C282.905 19.808 282.801 18.944 282.801 18ZM284.793 18C284.793 18.608 284.849 19.192 284.961 19.752C285.089 20.312 285.281 20.8 285.537 21.216C285.793 21.632 286.129 21.968 286.545 22.224C286.961 22.48 287.465 22.608 288.057 22.608C290.233 22.624 291.321 21.088 291.321 18C291.321 17.376 291.257 16.784 291.129 16.224C291.017 15.664 290.833 15.176 290.577 14.76C290.321 14.344 289.985 14.016 289.569 13.776C289.153 13.52 288.649 13.392 288.057 13.392C285.881 13.376 284.793 14.912 284.793 18ZM297.444 14.136C297.972 13.368 298.556 12.832 299.196 12.528C299.836 12.208 300.636 12.048 301.596 12.048C303.068 12.048 304.196 12.528 304.98 13.488C305.78 14.448 306.18 15.864 306.18 17.736C306.18 19.896 305.716 21.528 304.788 22.632C303.876 23.736 302.596 24.288 300.948 24.288C299.188 24.288 297.868 23.68 296.988 22.464C296.108 21.248 295.668 19.336 295.668 16.728C295.668 15.352 295.732 14.176 295.86 13.2C296.004 12.224 296.204 11.4 296.46 10.728C296.732 10.056 297.052 9.52 297.42 9.12C297.804 8.72 298.228 8.408 298.692 8.184C299.172 7.944 299.692 7.776 300.252 7.68C300.812 7.584 301.412 7.504 302.052 7.44C302.884 7.36 303.532 7.272 303.996 7.176C304.476 7.064 304.86 6.872 305.148 6.6L305.364 8.328C305.204 8.472 305.028 8.592 304.836 8.688C304.644 8.784 304.412 8.864 304.14 8.928C303.868 8.992 303.54 9.048 303.156 9.096C302.788 9.144 302.356 9.184 301.86 9.216C301.172 9.264 300.564 9.352 300.036 9.48C299.524 9.592 299.076 9.824 298.692 10.176C298.324 10.512 298.028 11 297.804 11.64C297.596 12.264 297.452 13.096 297.372 14.136H297.444ZM297.66 18.024C297.66 18.632 297.724 19.216 297.852 19.776C297.98 20.336 298.172 20.832 298.428 21.264C298.7 21.68 299.044 22.008 299.46 22.248C299.876 22.488 300.364 22.608 300.924 22.608C302.028 22.608 302.844 22.216 303.372 21.432C303.916 20.632 304.188 19.456 304.188 17.904C304.188 17.296 304.132 16.736 304.02 16.224C303.908 15.712 303.732 15.272 303.492 14.904C303.252 14.52 302.948 14.232 302.58 14.04C302.212 13.832 301.772 13.728 301.26 13.728C300.012 13.712 299.1 14.08 298.524 14.832C297.948 15.568 297.66 16.632 297.66 18.024ZM317.967 23.04C317.487 23.424 316.879 23.728 316.143 23.952C315.423 24.176 314.655 24.288 313.839 24.288C312.927 24.288 312.135 24.144 311.463 23.856C310.791 23.552 310.239 23.128 309.807 22.584C309.375 22.024 309.055 21.36 308.847 20.592C308.639 19.824 308.535 18.96 308.535 18C308.535 15.952 308.991 14.392 309.903 13.32C310.815 12.248 312.119 11.712 313.815 11.712C314.359 11.712 314.903 11.776 315.447 11.904C315.991 12.016 316.479 12.24 316.911 12.576C317.343 12.912 317.695 13.392 317.967 14.016C318.239 14.624 318.375 15.432 318.375 16.44C318.375 16.968 318.327 17.552 318.231 18.192H310.527C310.527 18.896 310.599 19.52 310.743 20.064C310.887 20.608 311.111 21.072 311.415 21.456C311.719 21.824 312.111 22.112 312.591 22.32C313.087 22.512 313.687 22.608 314.391 22.608C314.935 22.608 315.479 22.512 316.023 22.32C316.567 22.128 316.975 21.904 317.247 21.648L317.967 23.04ZM313.839 13.392C312.895 13.392 312.135 13.64 311.559 14.136C310.999 14.632 310.663 15.48 310.551 16.68H316.503C316.503 15.464 316.271 14.616 315.807 14.136C315.343 13.64 314.687 13.392 313.839 13.392ZM329.321 23.208C328.841 23.56 328.273 23.824 327.617 24C326.961 24.192 326.273 24.288 325.553 24.288C324.625 24.288 323.841 24.144 323.201 23.856C322.561 23.552 322.033 23.128 321.617 22.584C321.217 22.024 320.921 21.36 320.729 20.592C320.553 19.808 320.465 18.944 320.465 18C320.465 15.968 320.913 14.416 321.809 13.344C322.705 12.256 323.993 11.712 325.673 11.712C326.441 11.712 327.089 11.776 327.617 11.904C328.161 12.016 328.649 12.184 329.081 12.408L328.529 14.064C328.161 13.856 327.753 13.696 327.305 13.584C326.857 13.456 326.377 13.392 325.865 13.392C323.593 13.392 322.457 14.928 322.457 18C322.457 18.608 322.513 19.192 322.625 19.752C322.753 20.296 322.953 20.784 323.225 21.216C323.513 21.632 323.881 21.968 324.329 22.224C324.793 22.48 325.361 22.608 326.033 22.608C326.609 22.608 327.121 22.52 327.569 22.344C328.033 22.168 328.409 21.968 328.697 21.744L329.321 23.208ZM339.189 13.68H333.885V24H331.965V12H341.109V24H339.189V13.68ZM353.569 23.04C353.089 23.424 352.481 23.728 351.745 23.952C351.025 24.176 350.257 24.288 349.441 24.288C348.529 24.288 347.737 24.144 347.065 23.856C346.393 23.552 345.841 23.128 345.409 22.584C344.977 22.024 344.657 21.36 344.449 20.592C344.241 19.824 344.137 18.96 344.137 18C344.137 15.952 344.593 14.392 345.505 13.32C346.417 12.248 347.721 11.712 349.417 11.712C349.961 11.712 350.505 11.776 351.049 11.904C351.593 12.016 352.081 12.24 352.513 12.576C352.945 12.912 353.297 13.392 353.569 14.016C353.841 14.624 353.977 15.432 353.977 16.44C353.977 16.968 353.929 17.552 353.833 18.192H346.129C346.129 18.896 346.201 19.52 346.345 20.064C346.489 20.608 346.713 21.072 347.017 21.456C347.321 21.824 347.713 22.112 348.193 22.32C348.689 22.512 349.289 22.608 349.993 22.608C350.537 22.608 351.081 22.512 351.625 22.32C352.169 22.128 352.577 21.904 352.849 21.648L353.569 23.04ZM349.441 13.392C348.497 13.392 347.737 13.64 347.161 14.136C346.601 14.632 346.265 15.48 346.153 16.68H352.105C352.105 15.464 351.873 14.616 351.409 14.136C350.945 13.64 350.289 13.392 349.441 13.392ZM358.244 12V15.264C358.244 15.696 358.268 16.088 358.316 16.44C358.364 16.776 358.46 17.072 358.604 17.328C358.748 17.568 358.956 17.76 359.228 17.904C359.5 18.032 359.86 18.096 360.308 18.096C361.028 18.096 361.62 18.016 362.084 17.856C362.548 17.696 362.9 17.52 363.14 17.328V12H365.06V24H363.14V18.96C362.884 19.12 362.5 19.296 361.988 19.488C361.492 19.68 360.804 19.776 359.924 19.776C359.332 19.776 358.812 19.712 358.364 19.584C357.916 19.456 357.54 19.232 357.236 18.912C356.932 18.592 356.7 18.168 356.54 17.64C356.396 17.112 356.324 16.448 356.324 15.648V12H358.244ZM377.522 23.04C377.042 23.424 376.434 23.728 375.698 23.952C374.978 24.176 374.21 24.288 373.394 24.288C372.482 24.288 371.69 24.144 371.018 23.856C370.346 23.552 369.794 23.128 369.362 22.584C368.93 22.024 368.61 21.36 368.402 20.592C368.194 19.824 368.09 18.96 368.09 18C368.09 15.952 368.546 14.392 369.458 13.32C370.37 12.248 371.674 11.712 373.37 11.712C373.914 11.712 374.458 11.776 375.002 11.904C375.546 12.016 376.034 12.24 376.466 12.576C376.898 12.912 377.25 13.392 377.522 14.016C377.794 14.624 377.93 15.432 377.93 16.44C377.93 16.968 377.882 17.552 377.786 18.192H370.082C370.082 18.896 370.154 19.52 370.298 20.064C370.442 20.608 370.666 21.072 370.97 21.456C371.274 21.824 371.666 22.112 372.146 22.32C372.642 22.512 373.242 22.608 373.946 22.608C374.49 22.608 375.034 22.512 375.578 22.32C376.122 22.128 376.53 21.904 376.802 21.648L377.522 23.04ZM373.394 13.392C372.45 13.392 371.69 13.64 371.114 14.136C370.554 14.632 370.218 15.48 370.106 16.68H376.058C376.058 15.464 375.826 14.616 375.362 14.136C374.898 13.64 374.242 13.392 373.394 13.392ZM388.294 18.696H382.87V24H380.95V12H382.87V17.016H388.294V12H390.214V24H388.294V18.696ZM401.398 16.896L401.47 15.408H401.398L400.414 16.944L395.015 24H393.91V12H395.831V19.32L395.758 20.736H395.855L396.79 19.248L402.19 12H403.319V24H401.398V16.896ZM412.988 19.032L411.14 19.32L407.972 24H405.644L408.524 19.896L409.484 19.008C408.652 18.88 407.94 18.544 407.348 18C406.772 17.456 406.484 16.72 406.484 15.792C406.484 15.072 406.604 14.456 406.844 13.944C407.1 13.432 407.46 13.008 407.924 12.672C408.388 12.336 408.94 12.096 409.58 11.952C410.22 11.792 410.94 11.712 411.74 11.712C412.332 11.712 412.884 11.752 413.396 11.832C413.908 11.912 414.412 12 414.908 12.096V24H412.988V19.032ZM412.988 13.632C412.78 13.552 412.548 13.496 412.292 13.464C412.036 13.416 411.812 13.392 411.62 13.392C410.596 13.392 409.812 13.576 409.268 13.944C408.74 14.312 408.476 14.896 408.476 15.696C408.476 16.416 408.756 16.976 409.316 17.376C409.892 17.76 410.644 17.952 411.572 17.952C411.588 17.952 411.612 17.952 411.644 17.952C411.676 17.952 411.74 17.952 411.836 17.952C411.932 17.952 412.068 17.952 412.244 17.952C412.42 17.936 412.668 17.92 412.988 17.904V13.632Z" transform="translate(225 488)" fill="#555555"/>
<g opacity="0.25">
<path d="M217.32 0.000739294C215.982 0.00232488 214.837 0.95693 214.594 2.27143L56.2595 5.33783C55.9782 4.06998 54.8546 3.16695 53.5555 3.16453C52.0226 3.1643 50.7799 4.40661 50.78 5.93899C50.7819 6.81573 51.1982 7.64001 51.9028 8.16202L19.1914 107.555C19.144 107.551 19.0963 107.546 19.0487 107.546C17.5157 107.546 16.273 108.788 16.2732 110.32C16.2749 111.403 16.9067 112.386 17.8913 112.838L0 333.346L0.378571 333.354L0.0735529 333.641L76.5594 459.246C76.1932 459.633 75.989 460.146 75.9883 460.68C75.9878 461.835 76.9243 462.772 78.0802 462.773C79.2369 462.773 80.1747 461.836 80.1742 460.68C80.1732 460.528 80.1557 460.378 80.1223 460.23L81.5003 459.51L254.151 430.876L380.963 458.126L381.056 458.095L728.992 439.833L728.961 439.275L797.315 399.039C797.983 399.847 798.976 400.315 800.024 400.315C801.964 400.315 803.537 398.743 803.537 396.803C803.535 395.558 802.873 394.407 801.798 393.778L821.896 342.44L855.215 262.657C855.277 262.666 855.34 262.67 855.403 262.67C856.448 262.67 857.295 261.822 857.294 260.778C857.293 259.788 856.527 258.966 855.54 258.894L830.545 149.984L830.66 149.048L829.981 149.394L828.343 148.624L736.04 28.3462L735.747 28.4524L326.018 30.1867L324.913 29.7283C324.914 29.7062 324.916 29.6887 324.917 29.6675C324.918 28.7914 324.208 28.0806 323.331 28.0802C322.812 28.0805 322.325 28.3348 322.029 28.7614L220.087 2.90222C220.09 2.85818 220.092 2.81718 220.093 2.77446C220.094 1.24208 218.851 -0.000220191 217.318 2.92742e-08L217.32 0.000739294ZM214.616 3.38079C214.696 3.74019 214.848 4.07972 215.061 4.37988L115.928 110.347C115.491 110.076 114.987 109.933 114.472 109.932C114.18 109.932 113.889 109.979 113.612 110.07L55.3856 8.01928C55.8535 7.60879 56.1697 7.05274 56.2833 6.44075L214.616 3.38079ZM219.818 3.97758L321.755 29.8346C321.774 30.0178 321.825 30.1966 321.906 30.3622L178.695 181.261C178.534 181.155 178.364 181.064 178.187 180.989L217.268 5.54745C217.285 5.54833 217.303 5.54902 217.32 5.5496C218.385 5.54863 219.356 4.93761 219.818 3.97745V3.97758ZM215.87 5.13668C215.972 5.19967 216.079 5.25604 216.188 5.30537L177.111 180.751C177.065 180.747 177.019 180.742 176.973 180.742C176.403 180.743 175.843 180.9 175.355 181.194L116.677 114.384C117.046 113.902 117.246 113.313 117.248 112.706C117.247 112.13 117.067 111.568 116.733 111.099L215.87 5.13668ZM54.4251 8.57077L112.642 110.623C112.042 111.149 111.698 111.908 111.697 112.706C111.699 113.47 112.016 114.199 112.573 114.721L71.5645 181.024C71.4881 181.01 71.4107 181.002 71.3331 181.002C71.1616 181.003 70.9916 181.032 70.8312 181.094L21.0324 112.258C21.5387 111.741 21.8228 111.047 21.8241 110.323C21.8226 109.267 21.2223 108.304 20.2752 107.838L52.9065 8.63347C53.1189 8.68545 53.3368 8.71237 53.5555 8.71325C53.8511 8.71228 54.1447 8.66388 54.4251 8.5705V8.57077ZM732.648 29.5751L614.926 72.306C614.535 71.7504 613.899 71.419 613.22 71.4172C612.388 71.4177 611.636 71.91 611.303 72.6716L331.807 31.2727L732.648 29.5751ZM735.646 29.6681L826.159 147.593L749.489 111.523L615.233 74.0728C615.285 73.89 615.312 73.7007 615.313 73.5106C615.312 73.4551 615.31 73.3995 615.304 73.344L735.646 29.6681ZM324.489 30.7471V30.756L324.485 30.7824L324.476 30.7603C324.48 30.756 324.485 30.7515 324.489 30.7471H324.489ZM322.711 31.1255H322.713C322.909 31.2083 323.119 31.251 323.332 31.251C323.382 31.2504 323.431 31.2475 323.481 31.2422L392.22 172.488C391.171 173.184 390.491 174.315 390.368 175.567L180.036 183.216C179.943 182.785 179.759 182.378 179.497 182.023L322.711 31.1255ZM324.762 31.3461L326.583 31.6166L498.472 102.957C498.459 103.043 498.45 103.128 498.45 103.215C498.451 103.448 498.49 103.68 498.569 103.9L397.638 173.176C396.846 172.295 395.717 171.791 394.532 171.79C394.086 171.791 393.644 171.863 393.221 172.004L324.762 31.3461ZM331.067 32.2803L611.145 73.7656C611.158 73.8612 611.176 73.9559 611.199 74.0488L502.626 102.987C502.51 101.926 501.615 101.122 500.547 101.121C499.903 101.122 499.295 101.42 498.899 101.928L331.067 32.2803ZM611.796 75.0394C611.912 75.1477 612.04 75.2429 612.177 75.3226L566.705 200.706C566.273 200.597 565.829 200.54 565.384 200.538C563.582 200.538 561.896 201.424 560.875 202.908L503.426 191.734C503.4 190.81 502.769 190.012 501.875 189.773L501.12 105.226C501.667 105.07 502.127 104.698 502.394 104.196L611.796 75.0394ZM614.623 75.0614L749.097 112.572L827.634 149.518L828.224 150.288L680.942 225.23C680.282 224.323 679.228 223.786 678.106 223.785C677.008 223.787 675.974 224.302 675.311 225.178L570.718 204.831C570.357 203.197 569.267 201.819 567.761 201.089L613.261 75.604C613.766 75.5952 614.25 75.4005 614.623 75.0612V75.0614ZM499.195 104.813C499.431 105.012 499.708 105.156 500.006 105.235L500.765 189.78C500.404 189.883 500.078 190.08 499.82 190.353L430.503 153.091C430.49 152.762 430.331 152.456 430.068 152.258L499.195 104.813ZM20.2882 113.089L70.0178 181.85C69.9312 182.038 69.8861 182.244 69.8858 182.451C69.8868 182.754 69.9829 183.049 70.1606 183.294L50.9834 214.302C50.791 214.245 50.5914 214.216 50.3907 214.216C50.293 214.216 50.1954 214.225 50.0987 214.238L20.2882 113.089ZM18.9989 113.098C19.0157 113.099 19.032 113.099 19.0487 113.1C19.0614 113.099 19.0747 113.098 19.0874 113.098L49.0796 214.679C48.5857 215.076 48.2985 215.676 48.2986 216.309C48.2996 217.166 48.8223 217.935 49.6182 218.251L34.2483 354.225C33.8616 354.286 33.4996 354.453 33.2035 354.709L1.10743 333.069L18.9989 113.098ZM115.848 115.111V115.113L174.518 181.934C174.075 182.488 173.834 183.176 173.832 183.885C173.833 184.937 174.362 185.919 175.24 186.499L144.883 256.573C144.513 256.468 144.13 256.414 143.746 256.413C142.881 256.415 142.039 256.683 141.333 257.183L72.6461 183.054C72.7338 182.865 72.7795 182.659 72.7802 182.451C72.7795 182.149 72.6842 181.855 72.5077 181.61L113.521 115.307C113.825 115.42 114.148 115.477 114.472 115.478C114.955 115.477 115.43 115.351 115.848 115.11L115.848 115.111ZM829.313 150.976L816.958 252.732L681.496 226.378C681.478 226.323 681.461 226.268 681.444 226.214L829.313 150.976ZM830.154 153.216L854.458 259.14C854.151 259.317 853.9 259.576 853.733 259.888L818.046 252.944L830.154 153.216ZM428.364 153.426C428.456 153.751 428.694 154.016 429.008 154.142L437.657 209.923C437.062 210.099 436.514 210.405 436.052 210.819L398.039 178.256C398.481 177.578 398.717 176.786 398.719 175.977C398.719 175.319 398.564 174.671 398.266 174.084L428.364 153.426ZM430.133 154.135L499.299 191.322C499.263 191.476 499.243 191.634 499.242 191.793C499.242 191.843 499.243 191.893 499.246 191.943L442.563 212.032C441.847 210.633 440.408 209.753 438.836 209.753C438.805 209.754 438.778 209.754 438.749 209.755L430.133 154.135ZM390.405 176.675C390.477 177.097 390.614 177.505 390.81 177.886L323.968 224.371C323.379 223.783 322.581 223.452 321.748 223.452C320.56 223.454 319.475 224.127 318.945 225.191L180.38 184.311L390.405 176.675ZM391.446 178.796C391.746 179.125 392.096 179.404 392.484 179.623L328.015 341.107L327.669 340.746L322.445 229.648C323.873 229.323 324.888 228.054 324.889 226.59C324.888 226.137 324.788 225.69 324.597 225.279L391.446 178.796ZM397.312 179.095H397.315L435.329 211.66C434.888 212.337 434.652 213.128 434.65 213.937C434.65 216.248 436.524 218.121 438.836 218.121C440.236 218.121 441.543 217.42 442.319 216.255L475.546 232.523C475.52 232.653 475.507 232.785 475.507 232.917C475.507 233.364 475.65 233.799 475.916 234.158L412.624 314.752C412.399 314.695 412.167 314.665 411.934 314.664C411.746 314.665 411.559 314.686 411.374 314.722L395.561 180.027C396.21 179.861 396.811 179.541 397.311 179.095L397.312 179.095ZM393.509 180.027C393.821 180.106 394.14 180.15 394.461 180.157L410.311 315.172C409.531 315.708 409.064 316.594 409.063 317.54C409.064 317.567 409.064 317.597 409.065 317.625L330.059 342.958C329.799 342.47 329.415 342.059 328.945 341.767L393.509 180.027ZM71.8327 183.809L140.52 257.931C140.419 258.055 140.325 258.184 140.239 258.318L52.4501 216.679C52.4725 216.557 52.4844 216.433 52.4849 216.309C52.4833 215.783 52.2832 215.276 51.9246 214.891L71.1082 183.878C71.1825 183.892 71.2578 183.9 71.3332 183.9C71.5037 183.901 71.6729 183.87 71.8329 183.812L71.8327 183.809ZM179.777 185.286L318.629 226.248C318.616 226.361 318.609 226.475 318.609 226.589C318.611 228.162 319.777 229.491 321.337 229.697L326.499 339.521L179.506 185.733C179.608 185.592 179.699 185.442 179.776 185.285L179.777 185.286ZM178.708 186.495V186.497L326.577 341.202L326.585 341.373C325.556 341.61 324.714 342.349 324.346 343.339L228.897 326.056C228.804 324.975 227.899 324.145 226.814 324.144C226.765 324.144 226.716 324.145 226.667 324.148L178.515 186.609C178.581 186.574 178.645 186.535 178.708 186.495ZM176.25 186.934C176.487 186.992 176.729 187.022 176.973 187.023C177.138 187.021 177.302 187.005 177.464 186.979L225.622 324.518C225.606 324.531 225.59 324.54 225.575 324.553L147.341 262.727C147.725 262.082 147.929 261.346 147.931 260.595C147.928 259.13 147.16 257.774 145.904 257.018L176.25 186.934ZM503.16 192.812L560.324 203.929C560.052 204.588 559.912 205.294 559.911 206.007C559.914 208.105 561.116 210.016 563.007 210.927L543.315 265.234L479.689 232.779C479.654 232.276 479.442 231.802 479.088 231.445L500.811 193.813C500.983 193.859 501.159 193.883 501.337 193.884C502.094 193.883 502.791 193.472 503.16 192.812H503.16ZM499.619 192.987C499.687 193.086 499.764 193.178 499.848 193.263L478.129 230.895C477.957 230.85 477.78 230.827 477.602 230.827C477.209 230.828 476.824 230.939 476.492 231.149L474.954 230.364L475.285 231.17L442.803 215.261C442.947 214.834 443.021 214.387 443.022 213.937C443.021 213.649 442.991 213.362 442.929 213.081L499.619 192.987ZM570.855 205.984L674.77 226.203C674.654 226.555 674.594 226.924 674.593 227.295C674.593 229.234 676.166 230.807 678.106 230.807C678.652 230.806 679.19 230.678 679.679 230.433L738.155 311.734L685.407 334.929C684.76 333.927 683.649 333.321 682.456 333.32C681.334 333.322 680.281 333.858 679.62 334.765L544.313 265.744L564.055 211.306C564.489 211.417 564.935 211.474 565.384 211.476C568.405 211.476 570.854 209.028 570.854 206.008C570.854 205.999 570.854 205.99 570.854 205.981L570.855 205.984ZM51.9742 217.674L139.761 259.317C139.628 259.731 139.56 260.163 139.56 260.597C139.561 262.153 140.426 263.58 141.805 264.302L113.854 340.763C113.797 340.759 113.74 340.754 113.683 340.754C112.606 340.754 111.705 341.571 111.6 342.642L36.4616 355.407C36.2372 354.925 35.8372 354.546 35.3432 354.348L50.7173 218.376C51.2063 218.298 51.6516 218.049 51.9742 217.673L51.9742 217.674ZM681.608 227.533L816.824 253.839L814.016 276.972C813.114 277.132 812.455 277.915 812.454 278.832C812.456 278.905 812.463 278.979 812.472 279.052L739.192 311.278L680.581 229.788C681.186 229.186 681.552 228.384 681.609 227.533L681.608 227.533ZM479.447 233.901L542.933 266.287L518.915 332.522C518.81 332.509 518.704 332.5 518.599 332.496C518.456 332.497 518.313 332.509 518.173 332.535L478.042 234.957C478.642 234.828 479.156 234.442 479.446 233.902L479.447 233.901ZM476.537 235.171L440.324 400.007C440.307 400.008 440.293 400.008 440.277 400.009L413.359 320.034C414.257 319.523 414.811 318.572 414.813 317.54C414.811 316.633 414.382 315.78 413.654 315.239L476.537 235.171ZM477.413 236.343L517.148 332.959C516.47 333.432 516.065 334.206 516.064 335.033C516.065 335.895 516.505 336.698 517.232 337.163L488.033 417.685C487.513 417.496 486.965 417.397 486.412 417.396C484.531 417.398 482.828 418.507 482.066 420.226L442.509 402.684C442.553 402.512 442.575 402.336 442.576 402.159C442.575 401.352 442.125 400.613 441.408 400.243L477.413 236.343ZM817.912 254.051L853.524 260.98C853.524 260.989 853.525 260.993 853.526 261.002L815.777 277.601C815.595 277.39 815.368 277.222 815.113 277.108L817.912 254.051ZM853.974 262.012C854.041 262.09 854.115 262.164 854.194 262.23L820.874 342.024L801.097 392.536L814.676 280.693C815.58 280.534 816.238 279.749 816.238 278.832C816.236 278.758 816.229 278.685 816.22 278.613L853.974 262.012ZM146.657 263.603L224.885 325.425C224.776 325.682 224.72 325.958 224.72 326.238C224.721 326.721 224.889 327.19 225.196 327.563L163.451 414.434C163.317 414.385 163.18 414.35 163.039 414.33L144.797 264.646C145.497 264.465 146.138 264.105 146.657 263.603V263.603ZM142.846 264.682C143.126 264.744 143.413 264.776 143.7 264.78L161.893 414.143L115.26 344.219C115.592 343.838 115.774 343.351 115.775 342.846C115.774 342.168 115.445 341.533 114.892 341.142L142.846 264.682ZM543.933 266.797L679.114 335.753C679.001 336.101 678.944 336.465 678.943 336.832C678.944 337.132 678.983 337.431 679.06 337.721L544.619 396.839L520.053 337.104C520.728 336.631 521.131 335.858 521.132 335.033C521.131 334.169 520.69 333.365 519.962 332.9L543.933 266.797ZM812.915 280.066C813.098 280.278 813.324 280.446 813.579 280.559L799.895 393.297C799.393 393.314 798.901 393.442 798.452 393.667L739.854 312.197L812.915 280.066ZM738.815 312.653L797.55 394.311C797.418 394.443 797.297 394.585 797.188 394.737L685.796 337.915C685.911 337.565 685.969 337.2 685.969 336.832C685.968 336.532 685.929 336.233 685.852 335.943L738.815 312.653ZM409.316 318.71C409.419 318.941 409.551 319.158 409.71 319.355L332.675 412.065C332.115 411.713 331.48 411.498 330.821 411.438L327.978 347.486C329.409 347.164 330.425 345.895 330.427 344.429L330.827 344.05L330.7 343.916L409.316 318.71ZM410.564 320.064C410.986 320.293 411.458 320.414 411.938 320.414C412.062 320.412 412.185 320.401 412.308 320.383L439.232 400.357C438.713 400.699 438.368 401.249 438.284 401.864L334.5 414.549C334.326 413.884 333.991 413.272 333.525 412.767L410.564 320.064ZM228.698 327.142L324.147 344.418C324.147 344.422 324.147 344.427 324.147 344.431C324.149 344.779 324.208 345.124 324.322 345.452L267.862 376.97C267.468 376.571 266.93 376.347 266.369 376.348C266.105 376.348 265.843 376.398 265.597 376.496L228.569 327.377C228.617 327.302 228.66 327.224 228.698 327.143L228.698 327.142ZM227.74 328.115L264.712 377.16C264.43 377.526 264.277 377.974 264.277 378.436C264.278 379.194 264.69 379.893 265.352 380.261L253.294 429.222L164.807 416.144C164.76 415.751 164.602 415.38 164.353 415.073L226.1 328.204C226.329 328.288 226.571 328.331 226.814 328.332C227.135 328.332 227.452 328.258 227.74 328.115V328.115ZM2.33849 335.229L32.5871 355.624C32.5143 355.839 32.477 356.065 32.4768 356.292C32.4775 357.447 33.4136 358.383 34.5687 358.383C34.6578 358.382 34.7466 358.375 34.8348 358.361L74.7488 454.141L2.33849 335.229ZM519.027 337.528L543.604 397.287L490.864 420.479C490.511 419.542 489.87 418.74 489.034 418.187L518.277 337.543C518.384 337.557 518.491 337.565 518.599 337.565C518.743 337.564 518.886 337.552 519.028 337.526L519.027 337.528ZM679.501 338.735C680.149 339.738 681.262 340.344 682.456 340.344C682.772 340.344 683.086 340.3 683.391 340.218L727.943 438.119L592.788 431.047L491.135 422.709C491.157 422.524 491.17 422.339 491.174 422.153C491.171 421.958 491.157 421.764 491.13 421.571L679.501 338.735ZM685.29 338.901L796.682 395.725C796.568 396.074 796.51 396.438 796.509 396.804C796.51 397.243 796.593 397.678 796.754 398.087L729.07 437.929L684.395 339.758C684.741 339.527 685.045 339.238 685.29 338.901ZM111.788 343.731C111.958 344.094 112.229 344.401 112.569 344.615L78.1321 458.594C78.1149 458.593 78.0973 458.592 78.0802 458.592C77.9933 458.594 77.9066 458.6 77.8206 458.614L35.858 357.937C36.3071 357.587 36.5938 357.068 36.6519 356.501L111.788 343.731ZM114.345 344.829L161.157 415.02C160.823 415.401 160.639 415.89 160.638 416.397C160.64 416.547 160.657 416.696 160.69 416.842L81.1801 458.44L79.5187 458.715L79.6074 459.256C79.485 459.125 79.3461 459.01 79.1943 458.914L113.631 344.937C113.648 344.938 113.666 344.938 113.683 344.939C113.908 344.938 114.132 344.899 114.345 344.828L114.345 344.829ZM324.865 346.421C325.368 347.032 326.084 347.43 326.869 347.537L329.713 411.488C327.718 411.845 326.266 413.58 326.265 415.606C326.266 415.676 326.269 415.747 326.274 415.817L254.454 429.141L266.425 380.525C267.558 380.495 268.462 379.569 268.463 378.436C268.463 378.268 268.442 378.1 268.401 377.937L324.865 346.421ZM438.416 402.959C438.467 403.084 438.528 403.203 438.6 403.316L380.77 456.946L255.568 430.055L326.479 416.905C327.041 418.622 328.643 419.785 330.451 419.788C332.743 419.786 334.608 417.942 334.634 415.651L438.416 402.959ZM441.973 403.651L481.735 421.291C481.682 421.575 481.654 421.864 481.653 422.154C481.655 422.527 481.701 422.898 481.79 423.261L383.196 456.209L439.416 404.066C439.726 404.229 440.07 404.314 440.42 404.315C441.006 404.314 441.567 404.074 441.973 403.651L441.973 403.651ZM164.649 417.23L251.906 430.133L84.6456 457.865L161.205 417.822C161.6 418.245 162.153 418.485 162.732 418.486C163.564 418.485 164.317 417.992 164.649 417.23ZM490.871 423.799L592.714 432.151L723.645 438.999L384.98 456.784L482.168 424.301C482.977 425.901 484.618 426.91 486.412 426.911C488.403 426.908 490.182 425.667 490.871 423.799Z" transform="translate(5.80865 3.31826)" fill="#00CCFF"/>
<path d="M52.1999 0L2.78813 19.4241L0 326.012L1.16172 326.021L3.94124 20.2157L52.6216 1.0841L52.1999 0Z" transform="translate(5.29865 10.94)" fill="#00CCFF"/>
<path d="M0.0602373 0L0 1.16992L519.237 28.4652L519.297 27.3039L0.0602373 0Z" transform="translate(222.187 5.09903)" fill="#00CCFF"/>
<path d="M626.588 0L0 4.06031L0.00880701 5.23023L625.737 1.16992L639.092 43.5709L612.338 153.113L613.474 153.397L640.305 43.5367L626.588 0Z" transform="translate(222.213 1.03878)" fill="#00CCFF"/>
<path d="M0.111936 0L0 1.16132L120.457 12.7659L120.569 11.6132L0.111936 0Z" transform="translate(741.399 32.4031)" fill="#00CCFF"/>
<path d="M106.921 0L0 31.3642L0.335742 32.4825L107.248 1.11831L106.921 0Z" transform="translate(741.287 1.06471)" fill="#00CCFF"/>
<path d="M0.567952 0L0 217.614L1.17032 217.623L1.72967 0.000134412L0.567952 0Z" transform="translate(860.763 44.5926)" fill="#00CCFF"/>
<path d="M470.075 0L468.913 0.00880397L470.451 192.665L0.0259841 197.063L0 198.224L471.63 193.852L470.075 0Z" transform="translate(390.774 262.456)" fill="#00CCFF"/>
<path d="M71.4843 0L70.5808 0.739803L124.749 54.7774L0.232209 42.5473L0 43.6914L127.735 56.5581L71.4843 0Z" transform="translate(734.669 399.749)" fill="#00CCFF"/>
<path d="M303.286 0L0 3.85386L0.00881542 5.02378L303.295 1.16132L303.286 0Z" transform="translate(83.2887 459.682)" fill="#00CCFF"/>
<path d="M1.15311 0L0 0.19772L17.4086 101.284L78.3343 129.758L78.8248 128.708L18.4498 100.484L1.15311 0Z" transform="translate(5.3075 336.858)" fill="#00CCFF"/>
<path d="M5.8826 11.761C9.13147 11.761 11.7652 9.12827 11.7652 5.88052C11.7652 2.63277 9.13147 0 5.8826 0C2.63373 0 0 2.63277 0 5.88052C0 9.12827 2.63373 11.761 5.8826 11.761Z" transform="translate(77.4116 458.239)" fill="#00CCFF"/>
<path d="M5.8826 11.7612C9.13147 11.7612 11.7652 9.12827 11.7652 5.88052C11.7652 2.63277 9.13147 0 5.8826 0C2.63373 0 0 2.63277 0 5.88052C0 9.12827 2.63373 11.7612 5.8826 11.7612Z" transform="translate(161.083 412.457)" fill="#00CCFF"/>
<path d="M5.8826 11.7612C9.13147 11.7612 11.7652 9.1284 11.7652 5.88065C11.7652 2.6329 9.13147 0 5.8826 0C2.63373 0 0 2.6329 0 5.88065C0 9.1284 2.63373 11.7612 5.8826 11.7612Z" transform="translate(0 331.079)" fill="#00CCFF"/>
<path d="M5.88262 11.7612C9.13148 11.7612 11.7652 9.12833 11.7652 5.88059C11.7652 2.63284 9.13148 0 5.88262 0C2.63375 0 0 2.63284 0 5.88059C0 9.12833 2.63375 11.7612 5.88262 11.7612Z" transform="translate(500.693 187.218)" fill="#00CCFF"/>
<path d="M5.88262 11.7612C9.13149 11.7612 11.7652 9.12833 11.7652 5.88059C11.7652 2.63284 9.13149 0 5.88262 0C2.63375 0 0 2.63284 0 5.88059C0 9.12833 2.63375 11.7612 5.88262 11.7612Z" transform="translate(853.452 258.439)" fill="#00CCFF"/>
<path d="M5.88262 11.7612C9.13148 11.7612 11.7652 9.12833 11.7652 5.88059C11.7652 2.63284 9.13148 0 5.88262 0C2.63375 0 0 2.63284 0 5.88059C0 9.12833 2.63375 11.7612 5.88262 11.7612Z" transform="translate(829.089 152.326)" fill="#00CCFF"/>
<path d="M5.88262 11.7612C9.13148 11.7612 11.7652 9.12833 11.7652 5.88059C11.7652 2.63284 9.13148 0 5.88262 0C2.63375 0 0 2.63284 0 5.88059C0 9.12833 2.63375 11.7612 5.88262 11.7612Z" transform="translate(735.603 27.6869)" fill="#00CCFF"/>
<path d="M5.88262 11.761C9.13149 11.761 11.7652 9.12827 11.7652 5.88052C11.7652 2.63277 9.13149 0 5.88262 0C2.63375 0 0 2.63277 0 5.88052C0 9.12827 2.63375 11.761 5.88262 11.761Z" transform="translate(728.919 437.269)" fill="#00CCFF"/>
<path d="M5.88262 11.7612C9.13149 11.7612 11.7652 9.12833 11.7652 5.88059C11.7652 2.63284 9.13149 0 5.88262 0C2.63375 0 0 2.63284 0 5.88059C0 9.12833 2.63375 11.7612 5.88262 11.7612Z" transform="translate(323.257 31.3985)" fill="#00CCFF"/>
<path d="M2.64276 5.28373C4.10232 5.28373 5.28553 4.10092 5.28553 2.64186C5.28553 1.18281 4.10232 0 2.64276 0C1.1832 0 0 1.18281 0 2.64186C0 4.10092 1.1832 5.28373 2.64276 5.28373Z" transform="translate(20.7238 435.066)" fill="#00CCFF"/>
<path d="M2.78813 5.57433C4.32797 5.57433 5.57625 4.32647 5.57625 2.78716C5.57625 1.24786 4.32797 0 2.78813 0C1.24829 0 0 1.24786 0 2.78716C0 4.32647 1.24829 5.57433 2.78813 5.57433Z" transform="translate(5.29865 27.5771)" fill="#00CCFF"/>
<path d="M5.77431 11.5446C8.96337 11.5446 11.5486 8.96028 11.5486 5.77232C11.5486 2.58435 8.96337 0 5.77431 0C2.58524 0 0 2.58435 0 5.77232C0 8.96028 2.58524 11.5446 5.77431 11.5446Z" transform="translate(855.452 449.348)" fill="#00CCFF"/>
<path d="M2.34287 4.68412C3.6368 4.68412 4.68574 3.63555 4.68574 2.34206C4.68574 1.04857 3.6368 0 2.34287 0C1.04893 0 0 1.04857 0 2.34206C0 3.63555 1.04893 4.68412 2.34287 4.68412Z" transform="translate(859.625 42.8268)" fill="#00CCFF"/>
<path d="M2.34287 4.68412C3.6368 4.68412 4.68574 3.63555 4.68574 2.34206C4.68574 1.04857 3.6368 0 2.34287 0C1.04893 0 0 1.04857 0 2.34206C0 3.63555 1.04893 4.68412 2.34287 4.68412Z" transform="translate(845.65)" fill="#00CCFF"/>
<path d="M1.92652 3.85171C2.99052 3.85171 3.85304 2.98948 3.85304 1.92585C3.85304 0.862221 2.99052 0 1.92652 0C0.862518 0 0 0.862221 0 1.92585C0 2.98948 0.862518 3.85171 1.92652 3.85171Z" transform="translate(820.707 255.232)" fill="#00CCFF"/>
</g>
<path d="M0 151.713H32.7877V55.2667L105.913 151.713H134.171V0H101.383V93.4116L30.6306 0H0V151.713Z" transform="translate(164.662 106.114)" fill="#4D4D4D"/>
<path d="M17.0381 0L0 4.59967L11.6248 30.3587L28.6628 25.7589L17.0381 0Z" transform="translate(339.583 177.107)" fill="#80E5FF"/>
<path d="M42.9532 0L0 33.5978L10.7881 47.5968L53.7812 13.9992L42.9532 0Z" transform="translate(345.674 105.073)" fill="#80E5FF"/>
<path d="M0 0V16.9128C0.207705 22.291 23.8297 20.161 8.65935 12.9177V0.0444241L0 0Z" transform="translate(344.609 281.576)" fill="#E9C6AF"/>
<path d="M52.6329 160.382C69.6738 160.382 80.675 152.363 88.6562 141.526V158.215H121.444V0H88.6562V57.2173C80.8907 47.8978 70.1053 39.8787 52.6329 39.8787C25.2379 39.8787 0 61.1185 0 99.9135C0 139.142 25.6693 160.382 52.6329 160.382ZM61.0455 132.423C45.7302 132.423 32.7877 119.636 32.7877 100.347C32.7877 80.4076 45.7302 67.8372 61.0455 67.8372C76.3608 67.8372 89.0876 80.6244 89.0876 99.9135C89.0876 119.636 76.3608 132.423 61.0455 132.423Z" transform="translate(437.681 104.643)" fill="#4D4D4D"/>
<path d="M0 0H5.16142V18.3632H0V0Z" transform="translate(666.268 238.882)" fill="#E9C6AF"/>
<path d="M0 0H5.16142V18.3632H0V0Z" transform="translate(681.098 238.882)" fill="#E9C6AF"/>
<path d="M0 0H44.3583V56.758H0V0Z" transform="translate(654.085 132.729)" fill="#BF3F1B"/>
<path d="M13.7392 0V36.8318C13.5315 48.5442 -10.0905 43.9055 5.07983 28.1314V0.0967555L13.7392 0Z" transform="translate(690.015 181.896)" fill="#E9C6AF"/>
<path d="M0 0V36.8318C0.207741 48.5442 23.8297 43.9055 8.65937 28.1314V0.096728L0 0Z" transform="translate(648.765 181.622)" fill="#E9C6AF"/>
<path d="M0 0H30.8838V19.3833H0V0Z" transform="translate(682.116 200.315)" fill="#B3B3B3"/>
<path d="M0 0H38.1909V57.5408H0V0Z" transform="translate(657.423 181.719)" fill="#5F8DD3"/>
<path d="M6.53201 9.79055e-09C5.67419 -4.70659e-05 4.82477 0.169671 4.03224 0.499482C3.23971 0.829294 2.51958 1.31275 1.91302 1.92221C1.30645 2.53166 0.825314 3.25519 0.497068 4.05149C0.168823 4.84778 -5.62466e-05 5.70123 1.40524e-08 6.56312H13.0621C13.0622 4.8228 12.3743 3.15371 11.1497 1.92292C9.92511 0.692131 8.26411 0.000439378 6.53201 9.79055e-09Z" transform="translate(662.317 253.963)" fill="#162D50"/>
<path d="M55.4767 27.87C55.4767 35.2615 52.5542 42.3504 47.3523 47.577C42.1503 52.8036 35.095 55.7399 27.7383 55.7399C20.3817 55.7399 13.3263 52.8036 8.12438 47.577C2.92243 42.3504 3.60976e-06 35.2615 0 27.87C-2.91623e-06 24.21 0.717481 20.5859 2.11146 17.2046C3.50544 13.8233 5.54863 10.7509 8.12438 8.16293C10.7001 5.57497 13.758 3.52208 17.1233 2.12148C20.4887 0.720884 24.0957 -9.45196e-08 27.7383 0C31.381 3.78073e-07 34.988 0.720883 38.3533 2.12148C41.7187 3.52208 44.7765 5.57497 47.3523 8.16293C49.928 10.7509 51.9712 13.8233 53.3652 17.2046C54.7592 20.5859 55.4767 24.21 55.4767 27.87Z" transform="translate(311.523 129.654)" fill="#00CCFF"/>
<path d="M85.4377 42.9216C85.4377 54.3051 80.937 65.2224 72.9256 73.2717C64.9143 81.3211 54.0486 85.8431 42.7188 85.8431C37.1089 85.8431 31.5539 84.733 26.371 82.5759C21.1882 80.4189 16.4789 77.2574 12.5121 73.2717C8.54524 69.2861 5.39859 64.5544 3.25177 59.3469C1.10494 54.1395 1.41108e-06 48.5581 0 42.9216C0 37.285 1.10494 31.7037 3.25177 26.4962C5.39859 21.2887 8.54524 16.5571 12.5121 12.5714C16.4789 8.58579 21.1882 5.42421 26.371 3.2672C31.5539 1.11019 37.1089 -1.41778e-06 42.7188 0C54.0486 9.54445e-07 64.9143 4.52207 72.9256 12.5714C80.937 20.6208 85.4377 31.5381 85.4377 42.9216Z" transform="translate(369.008 50.8851)" fill="#00CCFF"/>
<path d="M6.53204 8.64397e-09C5.67422 -4.42312e-05 4.82479 0.169724 4.03227 0.499537C3.23974 0.82935 2.51961 1.31275 1.91304 1.92221C1.30648 2.53166 0.82534 3.25519 0.497096 4.05149C0.168852 4.84778 -5.62464e-05 5.70123 1.40499e-08 6.56312H13.0621C13.0622 4.82279 12.3743 3.15371 11.1497 1.92292C9.92513 0.69213 8.26414 0.000430789 6.53204 8.64397e-09Z" transform="translate(372.994 352.011)" fill="black"/>
<path d="M39.6903 119.636C55.6528 119.636 66.6539 113.784 74.6351 104.898V117.469H106.344V50.0651C106.344 34.4604 102.462 21.6733 93.8332 13.004C85.6363 4.76816 72.6937 0 54.7899 0C35.1605 0 22.6494 3.68446 9.92258 9.3195L18.1195 34.4604C28.6892 30.5593 37.5333 28.1752 50.0444 28.1752C66.4382 28.1752 74.8509 35.7608 74.8509 49.415V51.3656C66.6539 48.5481 58.2413 46.5975 46.593 46.5975C19.1981 46.5975 0 58.301 0 83.6587C0 107.066 17.9038 119.636 39.6903 119.636ZM49.6129 96.8793C39.0432 96.8793 31.7091 91.6778 31.7091 82.7918C31.7091 71.9552 40.3375 66.3201 54.3585 66.3201C62.3398 66.3201 69.6738 68.0539 75.2822 70.6547V76.5065C75.2822 88.4268 64.9283 96.8793 49.6129 96.8793Z" transform="translate(249.102 326.499)" fill="#4D4D4D"/>
<path d="M44.3583 22.2844C44.3583 25.2108 43.7846 28.1086 42.67 30.8123C41.5554 33.516 39.9217 35.9726 37.8622 38.0419C35.8026 40.1112 33.3576 41.7526 30.6667 42.8725C27.9758 43.9924 25.0918 44.5688 22.1791 44.5688C19.2665 44.5688 16.3824 43.9924 13.6915 42.8725C11.0006 41.7526 8.55565 40.1112 6.49613 38.0419C4.43661 35.9726 2.80289 33.516 1.68828 30.8123C0.573678 28.1086 -5.17396e-07 25.2108 0 22.2844C-5.17396e-07 19.358 0.573678 16.4602 1.68828 13.7565C2.80289 11.0529 4.43661 8.59623 6.49613 6.52693C8.55565 4.45763 11.0006 2.81619 13.6915 1.6963C16.3824 0.5764 19.2665 -4.72593e-08 22.1791 0C25.0918 -4.72593e-08 27.9758 0.5764 30.6667 1.6963C33.3576 2.81619 35.8026 4.45763 37.8622 6.52693C39.9217 8.59623 41.5554 11.0529 42.67 13.7565C43.7846 16.4602 44.3583 19.358 44.3583 22.2844Z" transform="translate(349.929 210.941)" fill="#333333"/>
<path d="M0 0H9.38872V7.38257H0V0Z" transform="translate(367.415 253.459)" fill="#E9C6AF"/>
<path d="M31.7207 0C23.3076 0.000434795 15.2394 2.57874 9.29064 7.1677C3.34192 11.7567 9.26072e-06 17.9804 0 24.47C0.00857582 25.6727 0.132084 26.8734 0.369563 28.0622H63.0624C63.303 26.8736 63.4296 25.6729 63.4413 24.47C63.4413 17.9804 60.0993 11.7567 54.1506 7.1677C48.2019 2.57874 40.1336 0.000436261 31.7206 0H31.7207Z" transform="translate(340.387 259.319)" fill="#8DD35F"/>
<path d="M3.70949 0H12.0858C14.1408 0 15.7953 1.66231 15.7953 3.72712V23.3244C15.7953 25.3892 14.1408 27.0515 12.0858 27.0515H3.70949C1.65443 27.0515 0 25.3892 0 23.3244V3.72712C0 1.66231 1.65443 0 3.70949 0Z" transform="translate(353.684 260.093)" fill="#E6E6E6"/>
<path d="M52.6329 160.382C69.6739 160.382 80.675 152.363 88.6562 141.526V158.215H121.444V0H88.6562V57.2173C80.8907 47.8978 70.1053 39.8787 52.6329 39.8787C25.2379 39.8787 0 61.1185 0 99.9136C0 139.142 25.6693 160.382 52.6329 160.382ZM61.0455 132.423C45.7302 132.423 32.7877 119.636 32.7877 100.347C32.7877 80.4077 45.7302 67.8372 61.0455 67.8372C76.3608 67.8372 89.0876 80.6244 89.0876 99.9136C89.0876 119.636 76.3608 132.423 61.0455 132.423Z" transform="translate(361.856 285.753)" fill="#4D4D4D"/>
<path d="M35.5368 10.3455C35.5368 11.7041 35.0772 13.0494 34.1843 14.3046C33.2914 15.5598 31.9825 16.7002 30.3326 17.6609C28.6826 18.6216 26.7239 19.3837 24.5681 19.9036C22.4123 20.4235 20.1018 20.691 17.7684 20.691C15.435 20.691 13.1245 20.4235 10.9687 19.9036C8.81296 19.3837 6.85419 18.6216 5.20424 17.6609C3.55429 16.7002 2.24548 15.5598 1.35253 14.3046C0.459587 13.0494 -1.46014e-06 11.7041 0 10.3455C-1.46014e-06 8.98695 0.459587 7.64166 1.35253 6.38649C2.24548 5.13131 3.55429 3.99084 5.20424 3.03017C6.85419 2.0695 8.81296 1.30743 10.9687 0.78752C13.1245 0.267609 15.435 1.37014e-07 17.7684 0C20.1018 -1.37015e-07 22.4123 0.267609 24.5681 0.78752C26.7239 1.30743 28.6826 2.0695 30.3326 3.03017C31.9825 3.99084 33.2914 5.13131 34.1843 6.38649C35.0772 7.64166 35.5368 8.98695 35.5368 10.3455Z" transform="matrix(0.933815 -0.357756 0.35481 0.934938 437.047 427.657)" fill="#333333"/>
<path d="M5.76818 5.96666C5.82759 5.24451 5.74892 4.51731 5.53662 3.82662C5.32431 3.13593 4.98255 2.49527 4.53086 1.9412C4.07918 1.38714 3.52639 0.930516 2.90409 0.597446C2.28179 0.264376 1.60217 0.0613623 0.904014 0L0 10.9963C1.40968 11.1204 2.8093 10.6602 3.89102 9.71701C4.97273 8.7738 5.64794 7.42479 5.76818 5.96666Z" transform="translate(468.976 438.45)" fill="#CCCCCC"/>
<path d="M24.0632 46.6816C37.9682 46.6816 48.2929 36.2243 48.2929 23.3408C48.2929 10.29 38.0515 0 24.2297 0C10.3247 0 0 10.4574 0 23.3408C0 36.3916 10.2414 46.6816 24.0632 46.6816ZM24.2297 35.7223C17.2356 35.7223 12.4895 29.9499 12.4895 23.3408C12.4895 16.5644 16.8192 10.9593 24.0632 10.9593C31.0573 10.9593 35.8034 16.7318 35.8034 23.3408C35.8034 30.1172 31.4736 35.7223 24.2297 35.7223Z" transform="translate(314.248 192.991) scale(2.59067)" fill="#00CCFF"/>
<path d="M49.613 120.07C74.6351 120.07 93.8332 108.366 93.8332 82.575C93.8332 60.9018 75.0666 53.0994 58.8885 47.6811C46.3773 43.3464 35.3762 40.3122 35.3762 33.8102C35.3762 28.8254 39.4747 25.3577 47.4559 25.3577C55.8685 25.3577 67.301 29.4756 78.7336 36.1943L91.2447 13.4374C78.7336 4.98487 62.7712 0 48.103 0C24.8065 0 5.82414 13.2206 5.82414 36.8445C5.82414 59.8181 24.1594 67.4037 40.3375 72.1718C53.0643 76.073 64.2811 78.4571 64.2811 85.6092C64.2811 91.2443 59.9669 94.712 50.4758 94.712C39.6904 94.712 26.5321 89.9439 14.021 80.8411L0 102.514C15.3153 114.651 33.4348 120.07 49.613 120.07Z" transform="translate(488.909 326.065)" fill="#4D4D4D"/>
<path d="M6.53201 7.9239e-09C5.67419 -4.23413e-05 4.82476 0.169668 4.03224 0.499482C3.23971 0.829296 2.51963 1.31275 1.91307 1.92221C1.30651 2.53166 0.825366 3.25519 0.497123 4.05149C0.16888 4.84778 -5.62462e-05 5.70123 1.40473e-08 6.56312H13.0621C13.0622 4.82279 12.3743 3.15371 11.1497 1.92292C9.92515 0.69213 8.26412 0.000429835 6.53201 7.9239e-09Z" transform="translate(677.149 253.963)" fill="#162D50"/>
<path d="M44.3583 22.2844C44.3583 25.2108 43.7846 28.1086 42.67 30.8123C41.5554 33.5159 39.9217 35.9725 37.8621 38.0418C35.8026 40.1111 33.3576 41.7526 30.6667 42.8725C27.9758 43.9924 25.0918 44.5688 22.1791 44.5688C19.2665 44.5688 16.3824 43.9924 13.6915 42.8725C11.0006 41.7526 8.55563 40.1111 6.4961 38.0418C4.43658 35.9725 2.80289 33.5159 1.68828 30.8123C0.573678 28.1086 -5.17396e-07 25.2108 0 22.2844C2.75481e-06 16.3742 2.33671 10.7061 6.4961 6.52696C10.6555 2.34783 16.2969 -1.04989e-06 22.1791 0C28.0614 -1.04989e-06 33.7027 2.34783 37.8621 6.52696C42.0215 10.7061 44.3583 16.3742 44.3583 22.2844Z" transform="translate(654.085 111.209)" fill="#BF3F1B"/>
<path d="M0 0H9.38872V7.38255H0V0Z" transform="translate(671.57 153.726)" fill="#E9C6AF"/>
<path d="M27.8241 0C20.4445 0.000383578 13.3673 2.26195 8.14935 6.28721C2.93138 10.3125 2.70526e-06 15.7717 0 21.4641C0.00751058 22.5191 0.115853 23.5723 0.324147 24.615H55.3158C55.5268 23.5724 55.6379 22.5193 55.6481 21.4641C55.6481 15.7717 52.7167 10.3124 47.4988 6.28718C42.2808 2.26193 35.2036 0.000376251 27.824 0H27.8241Z" transform="translate(648.441 159.184)" fill="#5F8DD3"/>
<path d="M4.54712 2.28435C4.54712 2.89019 4.3076 3.47123 3.88123 3.89963C3.45486 4.32802 2.87654 4.5687 2.27356 4.5687C1.67058 4.56871 1.09232 4.32802 0.665946 3.89963C0.239567 3.47123 4.83522e-06 2.8902 0 2.28435C-2.30943e-06 1.98436 0.0588287 1.68733 0.173086 1.41018C0.287343 1.13302 0.45477 0.881175 0.665891 0.669052C0.877013 0.456928 1.12764 0.288679 1.40349 0.17388C1.67933 0.0590804 1.97499 -2.32039e-06 2.27356 0C2.87655 4.85817e-06 3.45486 0.240677 3.88123 0.669079C4.3076 1.09748 4.54713 1.6785 4.54712 2.28435Z" transform="translate(652.571 134.014)" fill="#E9C6AF"/>
<path d="M44.3583 19.4789C44.3583 24.6451 42.0215 29.5996 37.8621 33.2526C33.7027 36.9056 28.0614 38.9578 22.1791 38.9578C16.2969 38.9578 10.6555 36.9056 6.4961 33.2526C2.33671 29.5996 3.36895e-06 24.6451 0 19.4789C-3.71291e-06 16.9209 0.573679 14.388 1.68828 12.0247C2.80289 9.66138 4.43658 7.51404 6.4961 5.70525C8.55563 3.89646 11.0006 2.46165 13.6915 1.48274C16.3824 0.503834 19.2665 -6.60955e-07 22.1791 0C25.0918 -6.60955e-07 27.9758 0.503834 30.6667 1.48274C33.3576 2.46165 35.8027 3.89646 37.8622 5.70525C39.9217 7.51404 41.5554 9.66138 42.67 12.0247C43.7846 14.388 44.3583 16.9209 44.3583 19.4789Z" transform="translate(654.088 116.82)" fill="#E9C6AF"/>
<path d="M4.54712 2.28435C4.54712 2.8902 4.30761 3.47123 3.88123 3.89963C3.45485 4.32802 2.87655 4.56871 2.27356 4.5687C1.67058 4.5687 1.09232 4.32802 0.665946 3.89963C0.239575 3.47123 4.83517e-06 2.89019 0 2.28435C-4.66413e-06 1.6785 0.23952 1.09748 0.665891 0.669079C1.09226 0.240677 1.67058 4.85817e-06 2.27356 0C2.57213 -2.32039e-06 2.86779 0.0590804 3.14364 0.17388C3.41948 0.288679 3.67011 0.456928 3.88123 0.669052C4.09235 0.881175 4.25984 1.13302 4.37409 1.41018C4.48835 1.68733 4.54713 1.98436 4.54712 2.28435Z" transform="translate(695.375 134.014)" fill="#E9C6AF"/>
<path d="M11.2938 0C8.41691 0.00503823 5.56849 0.572133 2.90726 1.67002L0 7.74563L33.4177 20.7282C32.6043 9.05377 22.9415 0.000550606 11.2938 0Z" transform="translate(664.97 111.209)" fill="#BF3F1B"/>
<path d="M22.1777 0C9.9296 0.000813314 0.000787982 9.97678 0 22.283V22.3082L18.9425 6.69859C17.8436 6.52189 23.2905 0.0101576 22.1777 0.00107079V0Z" transform="translate(654.086 111.209)" fill="#BF3F1B"/>
<path d="M0 0C0.143433 1.29856 0.758005 2.49849 1.72632 3.37054C2.69464 4.2426 3.94878 4.72562 5.24914 4.72732C6.55015 4.72654 7.80521 4.24395 8.77431 3.37181C9.74341 2.49967 10.3585 1.2992 10.5021 0H0Z" transform="translate(671.015 143.192)" fill="#333333"/>
<path d="M60.3984 120.937C81.3221 120.937 96.8531 112.701 107.639 99.2634L88.8719 82.575C79.8121 91.0275 71.8309 94.4953 60.8298 94.4953C46.1616 94.4953 35.8076 86.6929 32.572 71.7384H113.031C113.247 68.7041 113.463 65.6699 113.463 63.0691C113.463 30.1258 95.7746 0 57.1628 0C23.5122 0 0 27.3083 0 60.4683C0 96.4459 25.6693 120.937 60.3984 120.937ZM32.1406 51.1488C34.7291 36.1943 43.5731 26.4413 57.1628 26.4413C70.9681 26.4413 79.5964 36.411 81.5378 51.1488H32.1406Z" transform="translate(563.705 144.088)" fill="#4D4D4D"/>
<path d="M3.14489 1.57991C3.14489 1.78739 3.10423 1.99284 3.0252 2.18452C2.94618 2.37621 2.83035 2.55036 2.68433 2.69707C2.53832 2.84378 2.36498 2.96016 2.1742 3.03956C1.98342 3.11896 1.77892 3.15982 1.57242 3.15982C1.36592 3.15982 1.16147 3.11896 0.970691 3.03956C0.779912 2.96016 0.606576 2.84378 0.46056 2.69707C0.314544 2.55036 0.198713 2.37621 0.11969 2.18452C0.040667 1.99284 -5.97354e-07 1.78739 0 1.57991C-5.97354e-07 1.37243 0.040667 1.16698 0.11969 0.975298C0.198713 0.783613 0.314544 0.609455 0.46056 0.462746C0.606576 0.316037 0.779912 0.199656 0.970691 0.120258C1.16147 0.04086 1.36592 -6.00189e-07 1.57242 0C1.77892 -6.00189e-07 1.98342 0.04086 2.1742 0.120258C2.36498 0.199656 2.53832 0.316037 2.68433 0.462746C2.83035 0.609455 2.94618 0.783613 3.0252 0.975298C3.10423 1.16698 3.14489 1.37243 3.14489 1.57991Z" transform="translate(679.5 131.937)" fill="#333333"/>
<path d="M3.14495 1.57991C3.14495 1.78739 3.10428 1.99284 3.02526 2.18452C2.94624 2.37621 2.8304 2.55036 2.68439 2.69707C2.53837 2.84378 2.36504 2.96016 2.17426 3.03956C1.98348 3.11896 1.77897 3.15982 1.57247 3.15982C1.36598 3.15982 1.16152 3.11896 0.970745 3.03956C0.779966 2.96016 0.606576 2.84378 0.46056 2.69707C0.314544 2.55036 0.198768 2.37621 0.119745 2.18452C0.0407216 1.99284 -5.97354e-07 1.78739 0 1.57991C-5.97354e-07 1.37243 0.0407216 1.16698 0.119745 0.975298C0.198768 0.783613 0.314544 0.609455 0.46056 0.462746C0.606576 0.316037 0.779966 0.199656 0.970745 0.120258C1.16152 0.04086 1.36598 -6.00189e-07 1.57247 0C1.77897 -6.00189e-07 1.98348 0.04086 2.17426 0.120258C2.36504 0.199656 2.53837 0.316037 2.68439 0.462746C2.8304 0.609455 2.94624 0.783613 3.02526 0.975298C3.10428 1.16698 3.14495 1.37243 3.14495 1.57991Z" transform="translate(669.887 131.937)" fill="#333333"/>
<path d="M12.2552 5.58217C12.2552 6.31523 12.0966 7.0411 11.7887 7.71836C11.4808 8.39562 11.0294 9.01102 10.4604 9.52937C9.89141 10.0477 9.21595 10.4589 8.47252 10.7394C7.72909 11.0199 6.93226 11.1643 6.12758 11.1643C5.32289 11.1643 4.52607 11.0199 3.78264 10.7394C3.03921 10.4589 2.36374 10.0477 1.79475 9.52937C1.22575 9.01102 0.774401 8.39562 0.466463 7.71836C0.158525 7.0411 -1.45254e-06 6.31523 0 5.58217C-1.45254e-06 4.8491 0.158525 4.12323 0.466463 3.44597C0.774401 2.76871 1.22575 2.15331 1.79475 1.63496C2.36374 1.11661 3.03921 0.705442 3.78264 0.424911C4.52607 0.144381 5.32289 -8.57004e-08 6.12758 0C6.93226 -8.57004e-08 7.72909 0.144381 8.47252 0.424911C9.21595 0.705442 9.89141 1.11661 10.4604 1.63496C11.0294 2.15331 11.4808 2.76871 11.7887 3.44597C12.0966 4.12323 12.2552 4.8491 12.2552 5.58217Z" transform="translate(690.759 214.118)" fill="#E9C6AF"/>
<path d="M7.32896 2.14814C7.48956 2.14814 7.64858 2.17993 7.79695 2.24169C7.94533 2.30344 8.08012 2.39394 8.19368 2.50804C8.30724 2.62214 8.39734 2.75759 8.4588 2.90667C8.52026 3.05575 8.55187 3.21553 8.55187 3.37689V5.00089C8.55187 5.16225 8.52026 5.32203 8.4588 5.47111C8.39734 5.62018 8.30724 5.75567 8.19368 5.86977C8.08012 5.98387 7.94533 6.07437 7.79695 6.13612C7.64858 6.19787 7.48956 6.22964 7.32896 6.22964H4.27588C4.27588 6.39734 4.41268 6.64211 4.57959 6.64211H6.41401V7.3639C6.41401 7.52527 6.3824 7.68504 6.32094 7.83412C6.25948 7.9832 6.16938 8.11866 6.05582 8.23275C5.94226 8.34686 5.80747 8.43738 5.65909 8.49914C5.51072 8.56089 5.35164 8.59265 5.19104 8.59265H3.36094C3.20034 8.59265 3.04132 8.56089 2.89294 8.49914C2.74457 8.43738 2.60972 8.34686 2.49616 8.23275C2.3826 8.11866 2.29256 7.9832 2.2311 7.83412C2.16964 7.68504 2.13802 7.52527 2.13802 7.3639V5.75278C2.13802 5.07395 2.68531 4.52832 3.36094 4.52832H5.60581C6.28143 4.52832 6.82451 3.9784 6.82451 3.29957V2.14814H7.32907H7.32896ZM5.49896 7.2135C5.32775 7.2135 5.19094 7.34235 5.19094 7.59588C5.19094 7.84923 5.32775 7.90103 5.49896 7.90103C5.53885 7.90105 5.57835 7.89319 5.61521 7.87786C5.65206 7.86253 5.68554 7.84003 5.71375 7.81169C5.74195 7.78335 5.76434 7.74971 5.7796 7.71268C5.79486 7.67565 5.80268 7.63596 5.80267 7.59588C5.80267 7.34253 5.66587 7.2135 5.49896 7.2135ZM1.22291 6.44448C0.547327 6.44448 0 5.89453 0 5.21574V3.59173C0 2.91287 0.547327 2.36299 1.22291 2.36299H4.27599C4.27599 2.19529 4.13919 1.95054 3.97228 1.95054H2.13786V1.22875C2.13786 0.549952 2.6852 0 3.36083 0H5.19094C5.86656 0 6.41385 0.549952 6.41385 1.22875V2.83984C6.41385 3.51867 5.86656 4.06433 5.19094 4.06433H2.94601C2.27039 4.06433 1.72736 4.61425 1.72736 5.29308V6.44448H1.22275H1.22291ZM3.05291 1.3791C3.22412 1.3791 3.36094 1.25027 3.36094 0.996741C3.36094 0.74339 3.22412 0.691566 3.05291 0.691566C2.886 0.691566 2.74921 0.74303 2.74921 0.996741C2.74921 1.25009 2.886 1.3791 3.05291 1.3791Z" transform="translate(700.091 205.611)" fill="#808080"/>
<path d="M4.67009 2.34613C4.6701 2.65423 4.60971 2.9593 4.49236 3.24394C4.37502 3.52859 4.20302 3.78722 3.98619 4.00508C3.76936 4.22295 3.51195 4.39578 3.22865 4.51368C2.94535 4.63159 2.64169 4.69226 2.33505 4.69226C2.0284 4.69226 1.72475 4.63159 1.44144 4.51368C1.15814 4.39578 0.900729 4.22294 0.683899 4.00508C0.46707 3.78722 0.295077 3.52859 0.177731 3.24394C0.0603858 2.9593 -3.39588e-06 2.65423 1.43231e-10 2.34613C2.64095e-06 1.7239 0.246021 1.12716 0.683927 0.687173C1.12183 0.24719 1.71575 7.44458e-07 2.33505 0C2.95434 -2.09982e-07 3.54826 0.24719 3.98617 0.687173C4.42407 1.12716 4.67009 1.7239 4.67009 2.34613Z" transform="translate(347.595 233.09)" fill="#E9C6AF"/>
<path d="M4.67009 2.34613C4.6701 2.65423 4.60971 2.9593 4.49236 3.24394C4.37502 3.52859 4.20302 3.78722 3.98619 4.00508C3.76936 4.22294 3.51195 4.39578 3.22865 4.51368C2.94535 4.63159 2.64169 4.69226 2.33505 4.69226C2.0284 4.69226 1.72475 4.63159 1.44144 4.51368C1.15814 4.39578 0.900729 4.22295 0.683899 4.00508C0.46707 3.78722 0.295077 3.52859 0.177731 3.24394C0.0603856 2.9593 -3.39588e-06 2.65423 1.43231e-10 2.34613C2.64096e-06 1.7239 0.24602 1.12716 0.683927 0.687173C1.12183 0.24719 1.71575 -2.09983e-07 2.33505 0C2.95434 7.44458e-07 3.54826 0.24719 3.98617 0.687173C4.42407 1.12716 4.67009 1.7239 4.67009 2.34613Z" transform="translate(391.553 233.09)" fill="#E9C6AF"/>
<path d="M44.3583 20.074C44.3583 22.7102 43.7846 25.3205 42.67 27.756C41.5554 30.1915 39.9217 32.4044 37.8622 34.2685C35.8026 36.1325 33.3576 37.6112 30.6667 38.62C27.9758 39.6288 25.0918 40.148 22.1791 40.148C19.2665 40.148 16.3824 39.6288 13.6915 38.62C11.0006 37.6112 8.55565 36.1325 6.49613 34.2685C4.43661 32.4044 2.80289 30.1915 1.68828 27.756C0.573678 25.3205 -1.40981e-06 22.7102 0 20.074C7.6981e-06 14.7501 2.33674 9.64417 6.49613 5.87957C10.6555 2.11497 16.2969 -8.59817e-08 22.1791 0C28.0614 -8.59817e-08 33.7028 2.11497 37.8622 5.87957C42.0216 9.64417 44.3583 14.7501 44.3583 20.074Z" transform="translate(349.929 215.362)" fill="#E9C6AF"/>
<path d="M13.0304 2.89047C13.0304 3.27006 12.8619 3.64594 12.5345 3.99663C12.2071 4.34732 11.7271 4.66596 11.1221 4.93436C10.5172 5.20277 9.79893 5.41571 9.00847 5.56097C8.21801 5.70623 7.37079 5.781 6.5152 5.781C5.65961 5.781 4.8124 5.70623 4.02194 5.56097C3.23147 5.41571 2.51326 5.20277 1.90826 4.93436C1.30327 4.66596 0.823341 4.34732 0.495921 3.99663C0.168501 3.64594 -6.28483e-07 3.27006 0 2.89047C-6.28483e-07 2.51089 0.168501 2.13501 0.495921 1.78432C0.823341 1.43363 1.30327 1.11499 1.90826 0.846583C2.51326 0.578175 3.23147 0.365295 4.02194 0.220034C4.8124 0.0747723 5.65961 -1.25206e-07 6.5152 0C7.37079 8.34709e-08 8.21801 0.0747722 9.00847 0.220034C9.79893 0.365295 10.5172 0.578175 11.1221 0.846583C11.7271 1.11499 12.2071 1.43363 12.5345 1.78432C12.8619 2.13501 13.0304 2.51089 13.0304 2.89047Z" transform="translate(365.592 243.844)" fill="#E9C6AF"/>
<path d="M0 0C0.159905 1.44779 0.845097 2.78566 1.92469 3.75792C3.00427 4.73019 4.40255 5.26871 5.85235 5.27059C7.30284 5.26971 8.70211 4.7316 9.78255 3.75924C10.863 2.78688 11.5488 1.44848 11.7088 0H0Z" transform="translate(366.253 243.682)" fill="#333333"/>
<path d="M102.261 0C-4.00437 26.5331 0.477588 88.713 0 100.533H0.48969C6.0643 62.8961 44.6887 58.1883 86.644 58.1453C128.597 58.1878 160.889 62.8919 166.467 100.526H166.921C155.012 29.2169 135.931 25.5265 102.261 0Z" transform="translate(350.02 206.17) scale(0.264583)" fill="#333333"/>
<path d="M4.7201 5.5904C4.45623 5.98652 4.17641 6.37309 3.75037 6.37949C3.32432 6.38669 3.18758 6.12723 2.70431 6.12723C2.21785 6.12723 2.06844 6.37338 1.66465 6.38921C1.24814 6.40721 0.933373 5.9675 0.666301 5.58096C0.122611 4.79194 -0.293918 3.33842 0.265667 2.3609C0.542285 1.87529 1.03829 1.56864 1.57562 1.55907C1.98259 1.55187 2.37047 1.83687 2.62165 1.83687C2.86965 1.83687 3.34022 1.49501 3.83303 1.54611C4.03969 1.55331 4.61836 1.62923 4.99036 2.17865C4.96171 2.19664 4.3004 2.58752 4.30676 3.39572C4.31607 4.36051 5.14932 4.68312 5.15885 4.68633C5.14954 4.70792 5.02534 5.14636 4.7201 5.5904ZM2.90464 0.47911C3.13674 0.213883 3.52145 0.0127755 3.8394 0C3.88073 0.373764 3.73129 0.75065 3.50872 1.01901C3.28934 1.29071 2.92689 1.50139 2.57079 1.47264C2.52308 1.10524 2.70112 0.721916 2.90464 0.47911Z" transform="translate(359.002 265.053)" fill="#4D4D4D"/>
<path d="M0 0H31.1943V32.5718H0V0Z" transform="translate(430.104 401.698)" fill="#D35F5F"/>
<path d="M0 0H44.8131V11.0717H0V0Z" transform="matrix(0.977474 0.211054 -0.0740747 0.997253 426.587 429.015)" fill="#333333"/>
<path d="M0.0192164 5.96661C-0.0401963 5.24446 0.0384798 4.51731 0.250781 3.82662C0.463082 3.13593 0.804843 2.49527 1.25653 1.9412C1.70822 1.38714 2.261 0.930516 2.8833 0.597446C3.5056 0.264376 4.18523 0.0613623 4.88338 0L5.78742 10.9962C4.37774 11.1203 2.97813 10.6602 1.89641 9.71701C0.814691 8.7738 0.139455 7.42473 0.0192164 5.96661Z" transform="translate(415.53 438.984)" fill="#CCCCCC"/>
<path d="M3.50191 0C5.44196 0 7.0038 1.80692 7.0038 4.05137V18.3461C7.0038 20.5906 5.44196 22.3975 3.50191 22.3975C1.56187 22.3975 0 20.5906 0 18.3461V4.05137C0 1.80692 1.56187 0 3.50191 0Z" transform="translate(468.189 399.427) scale(-1 1)" fill="#E9C6AF"/>
<path d="M3.51026 0C5.45492 0 7.02047 1.80266 7.02047 4.04183V18.3029C7.02047 20.5421 5.45492 22.3447 3.51026 22.3447C1.56557 22.3447 0 20.5421 0 18.3029V4.04183C0 1.80266 1.56557 0 3.51026 0Z" transform="translate(469.692 418.201) scale(-0.99763 1.00236) rotate(-45)" fill="#E9C6AF"/>
<path d="M35.5323 10.3468C35.5323 11.7056 35.0728 13.0511 34.18 14.3064C33.2872 15.5617 31.9785 16.7023 30.3287 17.6631C28.679 18.6239 26.7205 19.3861 24.565 19.9061C22.4095 20.426 20.0993 20.6937 17.7662 20.6937C15.4331 20.6937 13.1228 20.426 10.9674 19.9061C8.81186 19.3861 6.85332 18.6239 5.20358 17.6631C3.55384 16.7023 2.24521 15.5617 1.35238 14.3064C0.459543 13.0511 -1.45996e-06 11.7056 0 10.3468C-1.45996e-06 8.98808 0.459543 7.64262 1.35238 6.38729C2.24521 5.13195 3.55384 3.99134 5.20358 3.03055C6.85332 2.06976 8.81186 1.3076 10.9674 0.787619C13.1228 0.267642 15.4331 -1.37032e-07 17.7662 0C20.0993 -1.37032e-07 22.4095 0.267642 24.565 0.787619C26.7205 1.3076 28.679 2.06976 30.3287 3.03055C31.9785 3.99134 33.2872 5.13195 34.18 6.38729C35.0728 7.64262 35.5323 8.98808 35.5323 10.3468Z" transform="matrix(0.948077 0.31804 -0.315342 0.948978 419.941 414.928)" fill="#333333"/>
<path d="M0 0H44.8154V11.0715H0V0Z" transform="matrix(0.972032 -0.23485 -0.098178 -0.995169 421.316 449.958)" fill="#333333"/>
<path d="M0 0H36.2319V23.1801H0V0Z" transform="translate(427.543 361.349)" fill="#D38D5F"/>
<path d="M0 0H7.66871V6.03009H0V0Z" transform="translate(441.825 378.499)" fill="#E9C6AF"/>
<path d="M3.50191 0C5.44196 0 7.0038 1.80692 7.0038 4.05137V18.3462C7.0038 20.5907 5.44196 22.3976 3.50191 22.3976C1.56187 22.3976 0 20.5907 0 18.3462V4.05137C0 1.80692 1.56187 0 3.50191 0Z" transform="translate(423.161 399.427)" fill="#E9C6AF"/>
<path d="M3.51023 0C5.4549 0 7.02045 1.80265 7.02045 4.04182V18.3029C7.02045 20.5421 5.4549 22.3447 3.51023 22.3447C1.56557 22.3447 0 20.5421 0 18.3029V4.04182C0 1.80265 1.56557 0 3.51023 0Z" transform="translate(421.659 418.201) scale(0.99763 1.00236) rotate(-45)" fill="#E9C6AF"/>
<path d="M22.7267 0C16.6991 0.000318586 10.9184 1.84757 6.6564 5.1354C2.39436 8.42323 8.6468e-06 12.8824 0 17.5319C0.00610764 18.3937 0.0945715 19.2539 0.264684 20.1056H45.1819C45.3542 19.254 45.4448 18.3938 45.453 17.5319C45.453 12.8824 43.0586 8.42323 38.7966 5.1354C34.5345 1.84757 28.7539 0.000311259 22.7263 0H22.7267Z" transform="translate(422.933 382.958)" fill="#D35F5F"/>
<path d="M36.2319 18.2019C36.2319 23.0293 34.3232 27.6591 30.9258 31.0726C27.5284 34.4861 22.9206 36.4038 18.1159 36.4038C13.3113 36.4038 8.70343 34.4861 5.30603 31.0726C1.90864 27.6591 5.31963e-06 23.0293 0 18.2019C-4.17971e-06 13.3744 1.90861 8.74474 5.30601 5.33122C8.7034 1.91769 13.3113 5.34489e-06 18.1159 0C20.4949 -2.0794e-06 22.8507 0.470761 25.0486 1.38549C27.2465 2.30022 29.2436 3.64101 30.9258 5.33122C32.608 7.02142 33.9424 9.02796 34.8529 11.2363C35.7633 13.4447 36.2319 15.8116 36.2319 18.2019Z" transform="translate(427.543 343.772)" fill="#D38D5F"/>
<path d="M3.7141 1.86587C3.71411 2.1109 3.66607 2.35351 3.57274 2.57989C3.47942 2.80627 3.34264 3.01198 3.1702 3.18524C2.99775 3.35851 2.79301 3.4959 2.5677 3.58967C2.34239 3.68344 2.10092 3.73173 1.85705 3.73173C1.61318 3.73173 1.37168 3.68344 1.14637 3.58967C0.921063 3.4959 0.71635 3.35851 0.543906 3.18524C0.371462 3.01198 0.234685 2.80627 0.14136 2.57989C0.0480345 2.35351 -1.62272e-06 2.1109 0 1.86587C6.22208e-06 1.37101 0.19564 0.896399 0.543906 0.546487C0.892172 0.196576 1.36453 -3.29282e-06 1.85705 0C2.34957 -3.29282e-06 2.8219 0.196576 3.17017 0.546487C3.51844 0.896399 3.7141 1.37101 3.7141 1.86587Z" transform="translate(426.309 362.398)" fill="#E9C6AF"/>
<path d="M36.2319 15.9104C36.2319 20.1301 34.3232 24.1769 30.9258 27.1607C27.5284 30.1445 22.9206 31.8208 18.1159 31.8208C15.7369 31.8208 13.3812 31.4092 11.1833 30.6097C8.98535 29.8101 6.98826 28.6381 5.30603 27.1607C3.62381 25.6833 2.28941 23.9294 1.379 21.999C0.468591 20.0687 -1.18383e-06 17.9998 0 15.9104C-1.18383e-06 13.821 0.468591 11.7521 1.379 9.82172C2.28941 7.89139 3.62381 6.13744 5.30603 4.66002C6.98826 3.18261 8.98535 2.01066 11.1833 1.21109C13.3812 0.41152 15.7369 -2.02416e-06 18.1159 0C22.9206 4.25485e-06 27.5284 1.6763 30.9258 4.66008C34.3232 7.64386 36.2319 11.6907 36.2319 15.9104Z" transform="translate(427.545 348.355)" fill="#E9C6AF"/>
<path d="M3.71408 1.86587C3.71408 2.36072 3.51843 2.83533 3.17017 3.18524C2.82191 3.53516 2.34957 3.73172 1.85705 3.73173C1.61318 3.73173 1.37171 3.68344 1.1464 3.58967C0.92109 3.4959 0.71635 3.35851 0.543906 3.18524C0.371462 3.01198 0.234685 2.80627 0.14136 2.57989C0.0480345 2.35351 -1.62272e-06 2.1109 0 1.86587C6.22208e-06 1.37101 0.195668 0.896399 0.543933 0.546487C0.892199 0.196576 1.36453 -3.29282e-06 1.85705 0C2.34956 6.2515e-06 2.82191 0.196632 3.17017 0.546542C3.51843 0.896453 3.71407 1.37102 3.71408 1.86587Z" transform="translate(461.269 362.398)" fill="#E9C6AF"/>
<path d="M8.18805 0C5.83823 0.00399833 3.51165 0.467329 1.33793 1.36408L0 4.13929L26.2589 16.9308C25.9387 12.3348 23.8957 8.03181 20.542 4.88972C17.1884 1.74763 12.7735 0.00021601 8.18805 0Z" transform="translate(437.472 343.772)" fill="#D38D5F"/>
<path d="M18.1147 0.00170228C13.3105 0.00202255 8.70314 1.9197 5.30604 5.33292C1.90894 8.74613 0.000330471 13.3754 2.21297e-06 18.2024C-7.37658e-07 18.2084 -7.37658e-07 18.2144 2.21297e-06 18.2204L20.8284 0.227776C19.9308 0.0835446 19.0237 0.00741985 18.1147 0V0.00170228Z" transform="translate(427.545 343.771)" fill="#D38D5F"/>
<path d="M0 0C0.117155 1.06067 0.619173 2.04079 1.4101 2.75308C2.20103 3.46538 3.22541 3.85989 4.28755 3.86127C5.3502 3.86062 6.37533 3.46644 7.16688 2.75407C7.95844 2.04171 8.46087 1.06118 8.57808 0H0Z" transform="translate(441.374 369.897)" fill="#333333"/>
<path d="M0 1.28342C1.18631 -0.392867 2.70235 -0.462395 4.17076 1.28342" transform="translate(438.012 361.529)" stroke="#333333" stroke-linecap="round"/>
<path d="M0 1.28342C1.18631 -0.392867 2.70235 -0.462395 4.17076 1.28342" transform="translate(449.14 361.529)" stroke="#333333" stroke-linecap="round"/>
<path d="M6.19592 3.424C6.19592 2.7921 5.98856 2.20686 5.57638 1.67461V5.17636C5.98842 4.65966 6.19592 4.07451 6.19592 3.424ZM5.15197 5.60281H1.66672C1.87769 5.77411 2.15309 5.91412 2.4939 6.04173C2.83165 6.16336 3.13828 6.22524 3.4078 6.22524C3.68073 6.22524 3.98399 6.163 4.32168 6.04173C4.6623 5.91433 4.93817 5.77361 5.15197 5.60281ZM3.09797 4.98027L1.85877 2.49016V4.98027H3.09797ZM4.95675 2.49016L3.7176 4.98027H4.95675V2.49016ZM3.4078 4.21144L4.5695 1.86762H2.24604L3.4078 4.21144ZM5.15197 1.24503C4.6377 0.8311 4.05527 0.622541 3.4078 0.622541C2.7603 0.622541 2.17787 0.831244 1.66672 1.24503H5.15197ZM1.2392 5.17636V1.67461C0.827194 2.20686 0.6196 2.7921 0.6196 3.424C0.6196 4.07451 0.827337 4.65966 1.2392 5.17636ZM6.81558 3.424C6.81558 4.36712 6.48713 5.17638 5.81802 5.84563C5.15196 6.51795 4.34647 6.84789 3.4078 6.84789C2.46906 6.84789 1.66673 6.51788 0.997553 5.84563C0.328413 5.17638 0 4.36712 0 3.424C0 2.48081 0.328449 1.67461 0.997553 1.00226C1.66673 0.329944 2.46906 0 3.4078 0C4.34647 0 5.15196 0.32998 5.81802 1.00226C6.48716 1.67461 6.81558 2.48081 6.81558 3.424Z" transform="translate(450.078 398.085)" fill="#E9AFAF"/>
<path d="M1.96253 0H36.2826C37.3698 0 38.2452 0.879451 38.2452 1.97185V22.3424C38.2452 23.4348 37.3698 24.3142 36.2826 24.3142H1.96253C0.875297 24.3142 0 23.4348 0 22.3424V1.97185C0 0.879451 0.875297 0 1.96253 0Z" transform="translate(426.33 409.15)" fill="#ECECEC"/>
<path d="M5.90435 6.99325C5.57412 7.48879 5.22426 7.97231 4.69133 7.9803C4.15837 7.99109 3.98739 7.66466 3.38283 7.66466C2.77433 7.66466 2.58741 7.97236 2.08231 7.99216C1.56131 8.01375 1.16753 7.46469 0.833463 6.98117C0.153364 5.99414 -0.367655 4.17594 0.332323 2.95313C0.678319 2.34573 1.29878 1.96214 1.97093 1.95016C2.48 1.94296 2.96524 2.29775 3.27943 2.29775C3.58961 2.29775 4.17825 1.87017 4.79473 1.93412C5.05334 1.94492 5.7771 2.03814 6.24244 2.72535C6.20662 2.75054 5.37938 3.2368 5.38734 4.2478C5.39808 5.45463 6.44131 5.85828 6.45323 5.86227C6.44249 5.89106 6.28631 6.43771 5.90435 6.99314V6.99325ZM3.63341 0.599423C3.92389 0.26762 4.40497 0.0159784 4.80269 0C4.85426 0.467547 4.6673 0.939099 4.38907 1.27479C4.11471 1.61451 3.66124 1.87815 3.21581 1.8422C3.156 1.38264 3.37879 0.90312 3.63341 0.599423Z" transform="translate(442.225 417.312)" fill="#4D4D4D"/>
<path d="M0.479293 0H22.5555C22.821 0 23.0347 0.214782 23.0347 0.481581V4.00305C23.0347 4.26986 22.821 4.48463 22.5555 4.48463H0.479293C0.213779 4.48463 0 4.26985 0 4.00305V0.481581C0 0.214807 0.213753 0 0.479293 0Z" transform="translate(168.655 106.806)" fill="#502D16"/>
<path d="M0 0H7.91573V6.22431H0V0Z" transform="translate(176.147 57.8469)" fill="#E9C6AF"/>
<path d="M36.7106 25.1616C36.7106 31.8349 34.7768 38.2349 31.3345 42.9536C27.8922 47.6723 23.2234 50.3233 18.3553 50.3233C13.4872 50.3233 8.81844 47.6723 5.37615 42.9536C1.93387 38.2349 -6.96262e-08 31.8349 0 25.1616C-6.96262e-08 18.4884 1.93387 12.0884 5.37615 7.36967C8.81844 2.65095 13.4872 2.60436e-07 18.3553 0C23.2234 2.60436e-07 27.8922 2.65095 31.3345 7.36967C34.7768 12.0884 36.7106 18.4884 36.7106 25.1616Z" transform="translate(161.75 62.7527)" fill="#FFCC00"/>
<path d="M2.44668 0H5.69119C7.04665 0 8.13788 1.09639 8.13788 2.45829V16.6592C8.13788 18.0211 7.04665 19.1175 5.69119 19.1175H2.44668C1.09121 19.1175 0 18.0211 0 16.6592V2.45829C0 1.09639 1.09121 0 2.44668 0Z" transform="translate(195.161 79.2825)" fill="#E9C6AF"/>
<path d="M2.44668 0H5.69119C7.04665 0 8.13788 1.0964 8.13788 2.45829V16.6592C8.13788 18.0211 7.04665 19.1175 5.69119 19.1175H2.44668C1.09121 19.1175 0 18.0211 0 16.6592V2.45829C0 1.0964 1.09121 0 2.44668 0Z" transform="translate(164.999 78.9752) scale(-1 1)" fill="#E9C6AF"/>
<path d="M23.4588 0C17.237 0.000320712 11.2701 1.90707 6.8708 5.30082C2.47147 8.69457 -1.32528e-05 13.2974 0 18.0967C0.00628395 18.9862 0.0975777 19.8741 0.273142 20.7532H46.6372C46.8152 19.8742 46.9089 18.9863 46.9176 18.0967C46.9176 13.2974 44.4461 8.69457 40.0468 5.30082C35.6474 1.90707 29.6806 0.000320712 23.4588 0H23.4588Z" transform="translate(156.647 62.5437)" fill="#FFCC00"/>
<path d="M2.45539 0H5.71147C7.07173 0 8.16686 1.09252 8.16686 2.44959V16.6002C8.16686 17.9573 7.07173 19.0498 5.71147 19.0498H2.45539C1.09509 19.0498 0 17.9573 0 16.6002V2.44959C0 1.09252 1.09509 0 2.45539 0Z" transform="matrix(-0.498226 -0.867047 0.864997 -0.501777 187.68 106.493)" fill="#E9C6AF"/>
<path d="M37.3989 18.1149C37.3989 20.4938 36.9153 22.8494 35.9755 25.0472C35.0358 27.245 33.6584 29.242 31.922 30.9241C30.1856 32.6063 28.1242 33.9406 25.8555 34.8509C23.5867 35.7613 21.1551 36.2299 18.6995 36.2299C16.2438 36.2299 13.8122 35.7613 11.5435 34.8509C9.27477 33.9406 7.21335 32.6063 5.47695 30.9241C3.74054 29.242 2.36316 27.245 1.42342 25.0472C0.483686 22.8494 -1.95137e-07 20.4938 0 18.1149C5.91145e-07 13.3106 1.97012 8.70295 5.47695 5.30574C8.98378 1.90853 13.7401 9.20241e-08 18.6995 0C23.6589 9.20241e-08 28.4152 1.90853 31.922 5.30574C35.4288 8.70295 37.3989 13.3106 37.3989 18.1149Z" transform="translate(161.405 22)" fill="#502D16"/>
<path d="M37.3989 16.6751C37.3989 21.0976 35.4288 25.339 31.922 28.4662C28.4152 31.5933 23.6589 33.3502 18.6995 33.3502C13.7401 33.3502 8.98378 31.5933 5.47695 28.4662C1.97012 25.339 3.21094e-07 21.0976 0 16.6751C3.21094e-07 12.2526 1.97012 8.0112 5.47695 4.88401C8.98378 1.75683 13.7401 8.47096e-08 18.6995 0C23.6589 8.47096e-08 28.4152 1.75683 31.922 4.88401C35.4288 8.0112 37.3989 12.2526 37.3989 16.6751Z" transform="translate(161.405 26.2264)" fill="#E9C6AF"/>
<path d="M17.9658 5.15745C17.9658 6.52529 17.0194 7.8371 15.3348 8.80431C13.6502 9.77152 11.3653 10.3149 8.98291 10.3149C7.80326 10.3149 6.63516 10.1815 5.54531 9.9223C4.45545 9.66311 3.46517 9.28322 2.63103 8.80431C1.79689 8.3254 1.13522 7.75683 0.68379 7.1311C0.232357 6.50537 1.64626e-07 5.83473 0 5.15745C1.64626e-07 4.48016 0.232357 3.80952 0.68379 3.18379C1.13522 2.55806 1.79689 1.9895 2.63103 1.51058C3.46517 1.03167 4.45545 0.651781 5.54531 0.392596C6.63516 0.13341 7.80326 -1.08021e-07 8.98291 0C11.3653 3.27238e-07 13.6502 0.543374 15.3348 1.51058C17.0194 2.47779 17.9658 3.78961 17.9658 5.15745Z" transform="translate(175.407 23.9836)" fill="#502D16"/>
<path d="M12.6902 3.64296C12.6902 4.60914 12.0217 5.53574 10.8318 6.21893C9.64182 6.90212 8.02792 7.28593 6.3451 7.28593C4.66227 7.28593 3.04837 6.90212 1.85843 6.21893C0.668496 5.53574 3.32477e-07 4.60914 0 3.64296C3.32477e-07 2.67679 0.668496 1.75019 1.85843 1.067C3.04837 0.383811 4.66227 -5.45396e-08 6.3451 0C8.02792 -5.45396e-08 9.64182 0.383811 10.8318 1.067C12.0217 1.75019 12.6902 2.67679 12.6902 3.64296Z" transform="translate(167.184 25.4989)" fill="#502D16"/>
<path d="M3.14489 1.57991C3.14489 1.78739 3.10423 1.99284 3.0252 2.18452C2.94618 2.37621 2.83035 2.55036 2.68433 2.69707C2.53832 2.84378 2.36498 2.96016 2.1742 3.03956C1.98342 3.11896 1.77892 3.15982 1.57242 3.15982C1.36592 3.15982 1.16147 3.11896 0.970691 3.03956C0.779912 2.96016 0.606576 2.84378 0.46056 2.69707C0.314544 2.55036 0.198713 2.37621 0.11969 2.18452C0.040667 1.99284 -5.97354e-07 1.78739 0 1.57991C-5.97354e-07 1.37243 0.040667 1.16698 0.11969 0.975298C0.198713 0.783613 0.314544 0.609455 0.46056 0.462746C0.606576 0.316037 0.779912 0.199656 0.970691 0.120258C1.16147 0.04086 1.36592 -6.00189e-07 1.57242 0C1.77892 -6.00189e-07 1.98342 0.04086 2.1742 0.120258C2.36498 0.199656 2.53832 0.316037 2.68433 0.462746C2.83035 0.609455 2.94618 0.783613 3.0252 0.975298C3.10423 1.16698 3.14489 1.37243 3.14489 1.57991Z" transform="translate(182.933 39.6364) scale(0.874209)" fill="#333333"/>
<path d="M3.14495 1.57991C3.14495 1.78739 3.10428 1.99284 3.02526 2.18452C2.94624 2.37621 2.8304 2.55036 2.68439 2.69707C2.53837 2.84378 2.36504 2.96016 2.17426 3.03956C1.98348 3.11896 1.77897 3.15982 1.57247 3.15982C1.36598 3.15982 1.16152 3.11896 0.970745 3.03956C0.779966 2.96016 0.606576 2.84378 0.46056 2.69707C0.314544 2.55036 0.198768 2.37621 0.119745 2.18452C0.0407216 1.99284 -5.97354e-07 1.78739 0 1.57991C-5.97354e-07 1.37243 0.0407216 1.16698 0.119745 0.975298C0.198768 0.783613 0.314544 0.609455 0.46056 0.462746C0.606576 0.316037 0.779966 0.199656 0.970745 0.120258C1.16152 0.04086 1.36598 -6.00189e-07 1.57247 0C1.77897 -6.00189e-07 1.98348 0.04086 2.17426 0.120258C2.36504 0.199656 2.53837 0.316037 2.68439 0.462746C2.8304 0.609455 2.94624 0.783613 3.02526 0.975298C3.10428 1.16698 3.14495 1.37243 3.14495 1.57991Z" transform="translate(174.53 39.6367) scale(0.874209)" fill="#333333"/>
<path d="M3.84981 1.93404C3.84981 2.44698 3.64701 2.9389 3.28602 3.3016C2.92503 3.66431 2.43542 3.86808 1.9249 3.86808C1.41439 3.86808 0.924776 3.66431 0.563786 3.3016C0.202796 2.9389 6.64954e-08 2.44698 0 1.93404C6.64954e-08 1.4211 0.202796 0.929179 0.563786 0.566475C0.924776 0.203772 1.41439 6.68111e-08 1.9249 0C2.43542 6.68111e-08 2.92503 0.203772 3.28602 0.566475C3.64701 0.929179 3.84981 1.4211 3.84981 1.93404Z" transform="translate(159.838 40.9673)" fill="#E9C6AF"/>
<path d="M3.84981 1.93404C3.84981 2.44698 3.64701 2.9389 3.28602 3.3016C2.92503 3.66431 2.43542 3.86808 1.9249 3.86808C1.41439 3.86808 0.924776 3.66431 0.563786 3.3016C0.202796 2.9389 6.64954e-08 2.44698 0 1.93404C6.64954e-08 1.4211 0.202796 0.929179 0.563786 0.566475C0.924776 0.203772 1.41439 6.68111e-08 1.9249 0C2.43542 6.68111e-08 2.92503 0.203772 3.28602 0.566475C3.64701 0.929179 3.84981 1.4211 3.84981 1.93404Z" transform="translate(196.076 40.9673)" fill="#E9C6AF"/>
<path d="M6.08444 0C4.3538 2.44541 2.14215 2.5469 0 0" transform="translate(177.064 49.0358)" stroke="#333333" stroke-linecap="round"/>
<path d="M23.0402 4.04671C23.0402 4.57813 22.7422 5.10435 22.1633 5.59532C21.5843 6.08629 20.7357 6.53239 19.666 6.90816C18.5963 7.28393 17.3263 7.58202 15.9286 7.78538C14.5309 7.98875 13.0329 8.09341 11.5201 8.09341C10.0072 8.09341 8.5092 7.98875 7.11152 7.78538C5.71384 7.58202 4.44387 7.28393 3.37414 6.90816C2.3044 6.53239 1.45583 6.08629 0.876893 5.59532C0.297957 5.10435 -5.11234e-06 4.57813 0 4.04671C5.43484e-07 2.97346 1.21371 1.94416 3.37415 1.18525C5.53458 0.426351 8.46476 0 11.5201 0C14.5754 0 17.5056 0.426351 19.666 1.18525C21.8264 1.94416 23.0402 2.97346 23.0402 4.04671Z" transform="translate(168.688 106.907)" fill="#502D16"/>
<path d="M9.27302 4.65851C9.27302 5.89403 8.78453 7.07893 7.91502 7.95257C7.0455 8.8262 5.86619 9.31703 4.63651 9.31703C3.40683 9.31703 2.22752 8.8262 1.358 7.95257C0.488489 7.07893 5.69961e-07 5.89403 0 4.65851C-1.88144e-07 4.04675 0.119929 3.44098 0.352935 2.87578C0.585941 2.31059 0.927463 1.79704 1.358 1.36446C1.78854 0.931878 2.29967 0.588736 2.8622 0.354624C3.42473 0.120512 4.02763 -1.89037e-07 4.63651 0C5.86619 5.72666e-07 7.0455 0.490821 7.91502 1.36446C8.78453 2.2381 9.27302 3.423 9.27302 4.65851Z" transform="translate(191.381 97.3435) scale(-1 1)" fill="#E9C6AF"/>
<path d="M0.555752 0H22.479C22.7869 0 23.0347 0.249018 23.0347 0.558376V4.6416C23.0347 4.95095 22.7869 5.2 22.479 5.2H0.555752C0.247866 5.2 0 4.95096 0 4.6416V0.558376C0 0.249029 0.247855 0 0.555752 0Z" transform="translate(168.78 108.236)" fill="#502D16"/>
<path d="M1.92655 0H9.84216C10.9095 0 11.7687 0.863314 11.7687 1.93568V19.8197C11.7687 20.892 10.9095 21.7553 9.84216 21.7553H1.92655C0.859244 21.7553 0 20.892 0 19.8197V1.93568C0 0.863314 0.859244 0 1.92655 0Z" transform="matrix(1.32079 -0.0411534 0.0407659 1.32081 172.49 79.4829)" fill="#CCCCCC"/>
<path d="M1.39774 0.661471H0.73432V0.859895H1.20529C1.1813 1.13685 0.95207 1.25534 0.735044 1.25534C0.45796 1.25534 0.214869 1.03583 0.214869 0.726898C0.214869 0.428889 0.446392 0.198425 0.735768 0.198425C0.959306 0.198425 1.09025 0.341635 1.09025 0.341635L1.22772 0.197711C1.22772 0.197711 1.05118 0 0.728527 0C0.317596 0 0 0.348896 0 0.726898C0 1.09398 0.298781 1.4538 0.739376 1.4538C1.12643 1.4538 1.40859 1.18702 1.40859 0.79304C1.40859 0.709442 1.39784 0.661471 1.39784 0.661471H1.39774Z" transform="matrix(1.32079 -0.0411534 0.0407659 1.32081 180.008 101.223)" fill="#999999"/>
<path d="M1.10688 0.556067C1.10688 0.703543 1.04857 0.844983 0.944776 0.949265C0.840986 1.05355 0.700213 1.11213 0.553432 1.11213C0.406651 1.11213 0.265877 1.05355 0.162088 0.949265C0.058298 0.844983 2.84982e-08 0.703543 0 0.556067C2.84982e-08 0.408591 0.058298 0.26715 0.162088 0.162869C0.265877 0.0585878 0.406651 2.86332e-08 0.553432 0C0.700213 2.86332e-08 0.840986 0.0585878 0.944776 0.162869C1.04857 0.26715 1.10688 0.408591 1.10688 0.556067Z" transform="matrix(0.999515 -0.0311429 0.0308497 0.999524 173.623 81.2)" fill="#999999"/>
<path d="M0.196107 0.0982467C0.196104 0.124304 0.185771 0.1493 0.167384 0.167725C0.148996 0.18615 0.124065 0.196491 0.0980602 0.196493C0.0720559 0.196491 0.0471112 0.18615 0.0287233 0.167725C0.0103355 0.1493 2.52286e-06 0.124304 0 0.0982467C2.52286e-06 0.0721893 0.0103355 0.0471937 0.0287233 0.0287684C0.0471112 0.010343 0.0720559 2.52801e-06 0.0980602 0C0.124065 2.52801e-06 0.148996 0.010343 0.167384 0.0287684C0.185771 0.0471937 0.196104 0.0721893 0.196107 0.0982467Z" transform="matrix(0.999515 -0.0311429 0.0308497 0.999524 177.7 81.5304)" fill="#999999"/>
<path d="M1.10688 0.556067C1.10688 0.703543 1.04857 0.844983 0.944776 0.949265C0.840986 1.05355 0.700213 1.11213 0.553432 1.11213C0.406651 1.11213 0.265877 1.05355 0.162088 0.949265C0.058298 0.844983 2.84982e-08 0.703543 0 0.556067C2.84982e-08 0.408591 0.058298 0.26715 0.162088 0.162869C0.265877 0.0585878 0.406651 2.86332e-08 0.553432 0C0.700213 2.86332e-08 0.840986 0.0585878 0.944776 0.162869C1.04857 0.26715 1.10688 0.408591 1.10688 0.556067Z" transform="matrix(0.999515 -0.0311429 0.0308497 0.999524 175.707 81.1347)" fill="#666666"/>
<path d="M0.196107 0.0982467C0.196104 0.124304 0.185771 0.1493 0.167384 0.167725C0.148996 0.18615 0.124065 0.196491 0.0980602 0.196493C0.0720559 0.196491 0.0471112 0.18615 0.0287233 0.167725C0.0103355 0.1493 2.52286e-06 0.124304 0 0.0982467C2.52286e-06 0.0721893 0.0103355 0.0471937 0.0287233 0.0287684C0.0471112 0.010343 0.0720559 2.52801e-06 0.0980602 0C0.124065 2.52801e-06 0.148996 0.010343 0.167384 0.0287684C0.185771 0.0471937 0.196104 0.0721893 0.196107 0.0982467Z" transform="matrix(0.999515 -0.0311429 0.0308497 0.999524 178.081 81.5182)" fill="#999999"/>
<path d="M0.118577 0.0594094C0.118578 0.0672113 0.117046 0.0749445 0.114067 0.0821527C0.111088 0.089361 0.106721 0.0959054 0.101216 0.101422C0.0957101 0.106939 0.089179 0.111302 0.0819854 0.114286C0.0747919 0.117271 0.0670744 0.11882 0.0592884 0.118819C0.0515025 0.11882 0.0437986 0.117271 0.036605 0.114286C0.0294114 0.111302 0.0228668 0.106939 0.0173613 0.101422C0.0118558 0.0959054 0.00748846 0.089361 0.00450961 0.0821527C0.00153075 0.0749445 -1.51455e-06 0.0672113 1.12335e-09 0.0594094C-1.51455e-06 0.0516076 0.00153075 0.0438744 0.00450961 0.0366661C0.00748846 0.0294579 0.0118558 0.0229135 0.0173613 0.0173967C0.0228668 0.01188 0.0294114 0.00751731 0.036605 0.00453238C0.0437986 0.00154745 0.0515025 -1.51765e-06 0.0592884 1.11579e-09C0.0670744 -1.51765e-06 0.0747919 0.00154745 0.0819854 0.00453238C0.089179 0.00751731 0.0957101 0.01188 0.101216 0.0173967C0.106721 0.0229135 0.111088 0.0294579 0.114067 0.0366661C0.117046 0.0438744 0.118578 0.0516076 0.118577 0.0594094Z" transform="matrix(0.999515 -0.0311429 0.0308497 0.999524 178.464 81.5462)" fill="#999999"/>
<path d="M2.45539 0H5.71147C7.07176 0 8.16686 1.09251 8.16686 2.44958V16.6002C8.16686 17.9573 7.07176 19.0498 5.71147 19.0498H2.45539C1.0951 19.0498 0 17.9573 0 16.6002V2.44958C0 1.09251 1.0951 0 2.45539 0Z" transform="matrix(0.498226 -0.867047 -0.864997 -0.501777 172.478 106.187)" fill="#E9C6AF"/>
<path d="M10.0269 5.03722C10.0269 5.69871 9.89719 6.35374 9.64524 6.96488C9.3933 7.57603 9.02401 8.13132 8.55847 8.59908C8.09293 9.06682 7.54026 9.43786 6.932 9.69101C6.32374 9.94415 5.67181 10.0745 5.01344 10.0745C3.68379 10.0745 2.4086 9.54374 1.4684 8.59908C0.5282 7.65441 -9.49937e-08 6.37317 0 5.03722C-9.49938e-08 3.70126 0.5282 2.42002 1.4684 1.47536C2.4086 0.530693 3.68379 8.58999e-07 5.01344 0C5.67181 -4.72592e-08 6.32374 0.130281 6.932 0.383425C7.54026 0.63657 8.09293 1.00761 8.55847 1.47536C9.02401 1.94311 9.3933 2.4984 9.64524 3.10955C9.89719 3.72069 10.0269 4.37572 10.0269 5.03722Z" transform="translate(167.981 95.6494)" fill="#E9C6AF"/>
<path d="M2.25848 0C3.50965 0 4.51696 1.01205 4.51696 2.2692V19.3386C4.51696 20.5957 3.50965 21.6078 2.25848 21.6078C1.00727 21.6078 0 20.5957 0 19.3386V2.2692C0 1.01205 1.00727 0 2.25848 0Z" transform="translate(169.522 105.693) scale(1.91743)" fill="#502D16"/>
<path d="M2.25848 0C3.50965 0 4.51696 1.01205 4.51696 2.2692V19.3386C4.51696 20.5957 3.50965 21.6078 2.25848 21.6078C1.00727 21.6078 0 20.5957 0 19.3386V2.2692C0 1.01205 1.00727 0 2.25848 0Z" transform="translate(182.027 105.692) scale(1.91743)" fill="#502D16"/>
<path d="M5.50724 8.55713e-09C4.784 -4.0403e-05 4.06784 0.143054 3.39964 0.421122C2.73145 0.699191 2.12432 1.10679 1.61292 1.62063C1.10151 2.13446 0.695853 2.74448 0.419106 3.41585C0.142359 4.08721 -4.91449e-05 4.80679 1.27221e-08 5.53346H11.0128C11.0129 4.06617 10.4329 2.65893 9.40048 1.62123C8.36801 0.583537 6.9676 0.000362174 5.50724 8.55713e-09Z" transform="translate(168.347 142.452)" fill="black"/>
<path d="M5.5072 6.32303e-09C4.78396 -3.47335e-05 4.0678 0.143079 3.39962 0.42115C2.73143 0.699221 2.1243 1.10682 1.6129 1.62065C1.1015 2.13449 0.69585 2.74448 0.419106 3.41585C0.142362 4.08721 -4.91444e-05 4.80679 1.27215e-08 5.53346H11.0128C11.0129 4.06617 10.4329 2.65893 9.40044 1.62123C8.36797 0.583537 6.96756 0.000362172 5.5072 6.32303e-09Z" transform="translate(180.852 142.452)" fill="black"/>
<path d="M3.14489 1.57991C3.14489 1.78739 3.10423 1.99284 3.0252 2.18452C2.94618 2.37621 2.83035 2.55036 2.68433 2.69707C2.53832 2.84378 2.36498 2.96016 2.1742 3.03956C1.98342 3.11896 1.77892 3.15982 1.57242 3.15982C1.36592 3.15982 1.16147 3.11896 0.970691 3.03956C0.779912 2.96016 0.606576 2.84378 0.46056 2.69707C0.314544 2.55036 0.198713 2.37621 0.11969 2.18452C0.040667 1.99284 -5.97354e-07 1.78739 0 1.57991C-5.97354e-07 1.37243 0.040667 1.16698 0.11969 0.975298C0.198713 0.783613 0.314544 0.609455 0.46056 0.462746C0.606576 0.316037 0.779912 0.199656 0.970691 0.120258C1.16147 0.04086 1.36592 -6.00189e-07 1.57242 0C1.77892 -6.00189e-07 1.98342 0.04086 2.1742 0.120258C2.36498 0.199656 2.53832 0.316037 2.68433 0.462746C2.83035 0.609455 2.94618 0.783613 3.0252 0.975298C3.10423 1.16698 3.14489 1.37243 3.14489 1.57991Z" transform="translate(376.208 232.779) scale(1.26817)" fill="#333333"/>
<path d="M3.14495 1.57991C3.14495 1.78739 3.10428 1.99284 3.02526 2.18452C2.94624 2.37621 2.8304 2.55036 2.68439 2.69707C2.53837 2.84378 2.36504 2.96016 2.17426 3.03956C1.98348 3.11896 1.77897 3.15982 1.57247 3.15982C1.36598 3.15982 1.16152 3.11896 0.970745 3.03956C0.779966 2.96016 0.606576 2.84378 0.46056 2.69707C0.314544 2.55036 0.198768 2.37621 0.119745 2.18452C0.0407216 1.99284 -5.97354e-07 1.78739 0 1.57991C-5.97354e-07 1.37243 0.0407216 1.16698 0.119745 0.975298C0.198768 0.783613 0.314544 0.609455 0.46056 0.462746C0.606576 0.316037 0.779966 0.199656 0.970745 0.120258C1.16152 0.04086 1.36598 -6.00189e-07 1.57247 0C1.77897 -6.00189e-07 1.98348 0.04086 2.17426 0.120258C2.36504 0.199656 2.53837 0.316037 2.68439 0.462746C2.8304 0.609455 2.94624 0.783613 3.02526 0.975298C3.10428 1.16698 3.14495 1.37243 3.14495 1.57991Z" transform="translate(364.019 232.779) scale(1.26817)" fill="#333333"/>
</svg>
