<svg width="127" height="95" viewBox="0 0 127 95" fill="none" xmlns="http://www.w3.org/2000/svg">
<path d="M0 37.6487H8.12485V13.7149L26.2454 37.6487H33.2477V0H25.1229V23.1809L7.59032 0H0V37.6487Z" transform="translate(0 12.4071)" fill="#4D4D4D"/>
<path d="M13.0425 39.8001C17.2653 39.8001 19.9914 37.8101 21.9692 35.1209V39.2622H30.094V0H21.9692V14.1989C20.0448 11.8862 17.3722 9.89623 13.0425 9.89623C6.25399 9.89623 0 15.1671 0 24.7944C0 34.5293 6.3609 39.8001 13.0425 39.8001ZM15.1272 32.862C11.332 32.862 8.12485 29.6887 8.12485 24.9019C8.12485 19.9538 11.332 16.8344 15.1272 16.8344C18.9223 16.8344 22.0761 20.0076 22.0761 24.7944C22.0761 29.6887 18.9223 32.862 15.1272 32.862Z" transform="translate(67.6548 10.2559)" fill="#4D4D4D"/>
<path d="M14.9668 30.0114C20.1518 30.0114 24.0004 27.9676 26.673 24.633L22.0226 20.4917C19.7776 22.5892 17.7998 23.4498 15.0737 23.4498C11.4389 23.4498 8.87319 21.5136 8.0714 17.8025H28.0093C28.0628 17.0495 28.1162 16.2965 28.1162 15.6511C28.1162 7.47596 23.7331 0 14.165 0C5.82637 0 0 6.77676 0 15.0057C0 23.9338 6.3609 30.0114 14.9668 30.0114ZM7.96449 12.693C8.60593 8.9819 10.7975 6.56163 14.165 6.56163C17.586 6.56163 19.7241 9.03569 20.2052 12.693H7.96449Z" transform="translate(98.8835 20.0444)" fill="#4D4D4D"/>
<path d="M9.83534 29.6887C13.7909 29.6887 16.517 28.2366 18.4947 26.0314V29.1509H26.3523V12.4241C26.3523 8.55165 25.3901 5.3784 23.252 3.22704C21.2208 1.18326 18.0136 0 13.577 0C8.71283 0 5.61256 0.914325 2.45883 2.31271L4.49005 8.55165C7.10924 7.58354 9.30081 6.99191 12.4011 6.99191C16.4635 6.99191 18.5482 8.87435 18.5482 12.2627V12.7468C16.517 12.0476 14.4323 11.5635 11.5458 11.5635C4.75731 11.5635 0 14.4679 0 20.7606C0 26.5693 4.43659 29.6887 9.83534 29.6887ZM12.2942 24.0414C9.67498 24.0414 7.85758 22.7506 7.85758 20.5455C7.85758 17.8563 9.9957 16.4579 13.4701 16.4579C15.4479 16.4579 17.2653 16.8881 18.6551 17.5336V18.9857C18.6551 21.9438 16.0893 24.0414 12.2942 24.0414Z" transform="translate(20.9247 65.3112)" fill="#4D4D4D"/>
<path d="M13.0425 39.8001C17.2653 39.8001 19.9914 37.8101 21.9692 35.1209V39.2622H30.094V0H21.9692V14.199C20.0449 11.8862 17.3722 9.89624 13.0425 9.89624C6.254 9.89624 0 15.1671 0 24.7944C0 34.5293 6.3609 39.8001 13.0425 39.8001ZM15.1272 32.862C11.332 32.862 8.12485 29.6887 8.12485 24.9019C8.12485 19.9538 11.332 16.8344 15.1272 16.8344C18.9223 16.8344 22.0761 20.0076 22.0761 24.7944C22.0761 29.6887 18.9223 32.862 15.1272 32.862Z" transform="translate(48.8655 55.2)" fill="#4D4D4D"/>
<path d="M12.2942 29.7963C18.4947 29.7963 23.252 26.892 23.252 20.4917C23.252 15.1133 18.6016 13.1771 14.5927 11.8325C11.4924 10.7568 8.76628 10.0038 8.76628 8.3903C8.76628 7.15327 9.78188 6.29273 11.7596 6.29273C13.8443 6.29273 16.6773 7.31462 19.5103 8.98192L22.6106 3.33461C19.5103 1.23704 15.5548 0 11.92 0C6.14709 0 1.44323 3.28083 1.44323 9.14326C1.44323 14.8444 5.98673 16.7268 9.9957 17.91C13.1494 18.8782 15.929 19.4698 15.929 21.2447C15.929 22.643 14.8599 23.5036 12.508 23.5036C9.83534 23.5036 6.57471 22.3203 3.47444 20.0614L0 25.4398C3.79516 28.4517 8.28519 29.7963 12.2942 29.7963Z" transform="translate(80.349 65.2036)" fill="#4D4D4D"/>
<path d="M23.2067 0L0 13.4732L8.97658 30.3205C10.649 29.3927 12.4944 28.8236 14.3963 28.6491L7.45199 15.6101L25.9873 4.8472L23.2067 0Z" transform="translate(35.9365 6.77652)" fill="#80E5FF"/>
<path d="M14.7053 0C12.7742 -3.20336e-06 10.8619 0.382713 9.07782 1.1263C7.29369 1.86988 5.67259 2.95977 4.30708 4.33373C2.94157 5.7077 1.85838 7.33883 1.11937 9.13401C0.380362 10.9292 -9.64748e-07 12.8532 0 14.7963C0 16.7394 0.380367 18.6635 1.11938 20.4586C1.85839 22.2538 2.94157 23.8849 4.30708 25.2589C5.67259 26.6329 7.29369 27.7228 9.07782 28.4663C10.8619 29.2099 12.7742 29.5926 14.7053 29.5926C18.6054 29.5926 22.3457 28.0337 25.1035 25.2589C27.8612 22.484 29.4105 18.7205 29.4105 14.7963C29.4105 10.8721 27.8612 7.1086 25.1035 4.33376C22.3457 1.55891 18.6054 7.64579e-06 14.7053 0ZM14.7053 9.19773C16.181 9.19774 17.5962 9.78759 18.6397 10.8375C19.6832 11.8875 20.2694 13.3115 20.2694 14.7963C20.2694 15.5315 20.1255 16.2595 19.8459 16.9388C19.5663 17.6181 19.1564 18.2352 18.6397 18.7551C18.1231 19.275 17.5097 19.6874 16.8346 19.9688C16.1595 20.2501 15.436 20.3949 14.7053 20.3949C13.9746 20.3949 13.251 20.2501 12.576 19.9688C11.9009 19.6874 11.2875 19.275 10.7708 18.7551C10.2541 18.2353 9.84428 17.6181 9.56466 16.9388C9.28503 16.2596 9.14111 15.5315 9.14112 14.7963C9.14113 13.3115 9.72736 11.8874 10.7708 10.8375C11.8143 9.78757 13.2296 9.19773 14.7053 9.19773Z" transform="translate(36.8658 28.8761)" fill="#00CCFF"/>
<path d="M11.1283 5.59861C11.1283 6.33382 10.9844 7.06184 10.7048 7.7411C10.4251 8.42035 10.0153 9.03754 9.49861 9.55742C8.98193 10.0773 8.36854 10.4897 7.69346 10.771C7.01839 11.0524 6.29485 11.1972 5.56415 11.1972C4.83346 11.1972 4.10992 11.0524 3.43485 10.771C2.75977 10.4897 2.14638 10.0773 1.6297 9.55742C1.11302 9.03754 0.703168 8.42035 0.423543 7.7411C0.143919 7.06184 -3.85898e-07 6.33382 0 5.59861C-9.64738e-08 4.86339 0.143924 4.13537 0.423549 3.45611C0.703174 2.77686 1.11302 2.15967 1.6297 1.63979C2.14638 1.11991 2.75977 0.707528 3.43485 0.426172C4.10992 0.144815 4.83346 0 5.56415 0C6.29485 0 7.01839 0.144815 7.69346 0.426172C8.36854 0.707528 8.98193 1.11991 9.49861 1.63979C10.0153 2.15967 10.4251 2.77686 10.7048 3.45611C10.9844 4.13537 11.1283 4.86339 11.1283 5.59861Z" transform="translate(34.1006 15.7215)" fill="#00CCFF"/>
<path d="M18.2822 9.19771C18.2822 10.4056 18.0458 11.6016 17.5864 12.7175C17.127 13.8334 16.4537 14.8474 15.6049 15.7015C14.756 16.5556 13.7483 17.2331 12.6393 17.6953C11.5302 18.1575 10.3415 18.3954 9.14111 18.3954C6.71674 18.3954 4.39166 17.4264 2.67737 15.7015C0.96308 13.9766 7.79356e-07 11.6371 0 9.19771C0 6.75833 0.96308 4.41885 2.67737 2.69395C4.39166 0.969042 6.71674 7.84183e-07 9.14111 0C10.3415 -4.85359e-07 11.5302 0.237909 12.6393 0.700137C13.7483 1.16236 14.756 1.83986 15.6049 2.69395C16.4537 3.54803 17.127 4.56198 17.5864 5.6779C18.0458 6.79382 18.2822 7.98985 18.2822 9.19771Z" transform="translate(51.3909)" fill="#00CCFF"/>
</svg>
