<svg width="867" height="470" viewBox="0 0 867 470" fill="none" xmlns="http://www.w3.org/2000/svg">
<path d="M217.32 0.000739294C215.982 0.00232488 214.837 0.95693 214.594 2.27143L56.2595 5.33783C55.9782 4.06998 54.8546 3.16695 53.5555 3.16453C52.0226 3.1643 50.7799 4.40661 50.78 5.93899C50.7819 6.81573 51.1982 7.64001 51.9028 8.16202L19.1914 107.555C19.144 107.551 19.0963 107.546 19.0487 107.546C17.5157 107.546 16.273 108.788 16.2732 110.32C16.2749 111.403 16.9067 112.386 17.8913 112.838L0 333.346L0.378571 333.354L0.0735529 333.641L76.5594 459.246C76.1932 459.633 75.989 460.146 75.9883 460.68C75.9878 461.835 76.9243 462.772 78.0802 462.773C79.2369 462.773 80.1747 461.836 80.1742 460.68C80.1732 460.528 80.1557 460.378 80.1223 460.23L81.5003 459.51L254.151 430.876L380.963 458.126L381.056 458.095L728.992 439.833L728.961 439.275L797.315 399.039C797.983 399.847 798.976 400.315 800.024 400.315C801.964 400.315 803.537 398.743 803.537 396.803C803.535 395.558 802.873 394.407 801.798 393.778L821.896 342.44L855.215 262.657C855.277 262.666 855.34 262.67 855.403 262.67C856.448 262.67 857.295 261.822 857.294 260.778C857.293 259.788 856.527 258.966 855.54 258.894L830.545 149.984L830.66 149.048L829.981 149.394L828.343 148.624L736.04 28.3462L735.747 28.4524L326.018 30.1867L324.913 29.7283C324.914 29.7062 324.916 29.6887 324.917 29.6675C324.918 28.7914 324.208 28.0806 323.331 28.0802C322.812 28.0805 322.325 28.3348 322.029 28.7614L220.087 2.90222C220.09 2.85818 220.092 2.81718 220.093 2.77446C220.094 1.24208 218.851 -0.000220191 217.318 2.92742e-08L217.32 0.000739294ZM214.616 3.38079C214.696 3.74019 214.848 4.07972 215.061 4.37988L115.928 110.347C115.491 110.076 114.987 109.933 114.472 109.932C114.18 109.932 113.889 109.979 113.612 110.07L55.3856 8.01928C55.8535 7.60879 56.1697 7.05274 56.2833 6.44075L214.616 3.38079ZM219.818 3.97758L321.755 29.8346C321.774 30.0178 321.825 30.1966 321.906 30.3622L178.695 181.261C178.534 181.155 178.364 181.064 178.187 180.989L217.268 5.54745C217.285 5.54833 217.303 5.54902 217.32 5.5496C218.385 5.54863 219.356 4.93761 219.818 3.97745V3.97758ZM215.87 5.13668C215.972 5.19967 216.079 5.25604 216.188 5.30537L177.111 180.751C177.065 180.747 177.019 180.742 176.973 180.742C176.403 180.743 175.843 180.9 175.355 181.194L116.677 114.384C117.046 113.902 117.246 113.313 117.248 112.706C117.247 112.13 117.067 111.568 116.733 111.099L215.87 5.13668ZM54.4251 8.57077L112.642 110.623C112.042 111.149 111.698 111.908 111.697 112.706C111.699 113.47 112.016 114.199 112.573 114.721L71.5645 181.024C71.4881 181.01 71.4107 181.002 71.3331 181.002C71.1616 181.003 70.9916 181.032 70.8312 181.094L21.0324 112.258C21.5387 111.741 21.8228 111.047 21.8241 110.323C21.8226 109.267 21.2223 108.304 20.2752 107.838L52.9065 8.63347C53.1189 8.68545 53.3368 8.71237 53.5555 8.71325C53.8511 8.71228 54.1447 8.66388 54.4251 8.5705V8.57077ZM732.648 29.5751L614.926 72.306C614.535 71.7504 613.899 71.419 613.22 71.4172C612.388 71.4177 611.636 71.91 611.303 72.6716L331.807 31.2727L732.648 29.5751ZM735.646 29.6681L826.159 147.593L749.489 111.523L615.233 74.0728C615.285 73.89 615.312 73.7007 615.313 73.5106C615.312 73.4551 615.31 73.3995 615.304 73.344L735.646 29.6681ZM324.489 30.7471V30.756L324.485 30.7824L324.476 30.7603C324.48 30.756 324.485 30.7515 324.489 30.7471H324.489ZM322.711 31.1255H322.713C322.909 31.2083 323.119 31.251 323.332 31.251C323.382 31.2504 323.431 31.2475 323.481 31.2422L392.22 172.488C391.171 173.184 390.491 174.315 390.368 175.567L180.036 183.216C179.943 182.785 179.759 182.378 179.497 182.023L322.711 31.1255ZM324.762 31.3461L326.583 31.6166L498.472 102.957C498.459 103.043 498.45 103.128 498.45 103.215C498.451 103.448 498.49 103.68 498.569 103.9L397.638 173.176C396.846 172.295 395.717 171.791 394.532 171.79C394.086 171.791 393.644 171.863 393.221 172.004L324.762 31.3461ZM331.067 32.2803L611.145 73.7656C611.158 73.8612 611.176 73.9559 611.199 74.0488L502.626 102.987C502.51 101.926 501.615 101.122 500.547 101.121C499.903 101.122 499.295 101.42 498.899 101.928L331.067 32.2803ZM611.796 75.0394C611.912 75.1477 612.04 75.2429 612.177 75.3226L566.705 200.706C566.273 200.597 565.829 200.54 565.384 200.538C563.582 200.538 561.896 201.424 560.875 202.908L503.426 191.734C503.4 190.81 502.769 190.012 501.875 189.773L501.12 105.226C501.667 105.07 502.127 104.698 502.394 104.196L611.796 75.0394ZM614.623 75.0614L749.097 112.572L827.634 149.518L828.224 150.288L680.942 225.23C680.282 224.323 679.228 223.786 678.106 223.785C677.008 223.787 675.974 224.302 675.311 225.178L570.718 204.831C570.357 203.197 569.267 201.819 567.761 201.089L613.261 75.604C613.766 75.5952 614.25 75.4005 614.623 75.0612V75.0614ZM499.195 104.813C499.431 105.012 499.708 105.156 500.006 105.235L500.765 189.78C500.404 189.883 500.078 190.08 499.82 190.353L430.503 153.091C430.49 152.762 430.331 152.456 430.068 152.258L499.195 104.813ZM20.2882 113.089L70.0178 181.85C69.9312 182.038 69.8861 182.244 69.8858 182.451C69.8868 182.754 69.9829 183.049 70.1606 183.294L50.9834 214.302C50.791 214.245 50.5914 214.216 50.3907 214.216C50.293 214.216 50.1954 214.225 50.0987 214.238L20.2882 113.089ZM18.9989 113.098C19.0157 113.099 19.032 113.099 19.0487 113.1C19.0614 113.099 19.0747 113.098 19.0874 113.098L49.0796 214.679C48.5857 215.076 48.2985 215.676 48.2986 216.309C48.2996 217.166 48.8223 217.935 49.6182 218.251L34.2483 354.225C33.8616 354.286 33.4996 354.453 33.2035 354.709L1.10743 333.069L18.9989 113.098ZM115.848 115.111V115.113L174.518 181.934C174.075 182.488 173.834 183.176 173.832 183.885C173.833 184.937 174.362 185.919 175.24 186.499L144.883 256.573C144.513 256.468 144.13 256.414 143.746 256.413C142.881 256.415 142.039 256.683 141.333 257.183L72.6461 183.054C72.7338 182.865 72.7795 182.659 72.7802 182.451C72.7795 182.149 72.6842 181.855 72.5077 181.61L113.521 115.307C113.825 115.42 114.148 115.477 114.472 115.478C114.955 115.477 115.43 115.351 115.848 115.11L115.848 115.111ZM829.313 150.976L816.958 252.732L681.496 226.378C681.478 226.323 681.461 226.268 681.444 226.214L829.313 150.976ZM830.154 153.216L854.458 259.14C854.151 259.317 853.9 259.576 853.733 259.888L818.046 252.944L830.154 153.216ZM428.364 153.426C428.456 153.751 428.694 154.016 429.008 154.142L437.657 209.923C437.062 210.099 436.514 210.405 436.052 210.819L398.039 178.256C398.481 177.578 398.717 176.786 398.719 175.977C398.719 175.319 398.564 174.671 398.266 174.084L428.364 153.426ZM430.133 154.135L499.299 191.322C499.263 191.476 499.243 191.634 499.242 191.793C499.242 191.843 499.243 191.893 499.246 191.943L442.563 212.032C441.847 210.633 440.408 209.753 438.836 209.753C438.805 209.754 438.778 209.754 438.749 209.755L430.133 154.135ZM390.405 176.675C390.477 177.097 390.614 177.505 390.81 177.886L323.968 224.371C323.379 223.783 322.581 223.452 321.748 223.452C320.56 223.454 319.475 224.127 318.945 225.191L180.38 184.311L390.405 176.675ZM391.446 178.796C391.746 179.125 392.096 179.404 392.484 179.623L328.015 341.107L327.669 340.746L322.445 229.648C323.873 229.323 324.888 228.054 324.889 226.59C324.888 226.137 324.788 225.69 324.597 225.279L391.446 178.796ZM397.312 179.095H397.315L435.329 211.66C434.888 212.337 434.652 213.128 434.65 213.937C434.65 216.248 436.524 218.121 438.836 218.121C440.236 218.121 441.543 217.42 442.319 216.255L475.546 232.523C475.52 232.653 475.507 232.785 475.507 232.917C475.507 233.364 475.65 233.799 475.916 234.158L412.624 314.752C412.399 314.695 412.167 314.665 411.934 314.664C411.746 314.665 411.559 314.686 411.374 314.722L395.561 180.027C396.21 179.861 396.811 179.541 397.311 179.095L397.312 179.095ZM393.509 180.027C393.821 180.106 394.14 180.15 394.461 180.157L410.311 315.172C409.531 315.708 409.064 316.594 409.063 317.54C409.064 317.567 409.064 317.597 409.065 317.625L330.059 342.958C329.799 342.47 329.415 342.059 328.945 341.767L393.509 180.027ZM71.8327 183.809L140.52 257.931C140.419 258.055 140.325 258.184 140.239 258.318L52.4501 216.679C52.4725 216.557 52.4844 216.433 52.4849 216.309C52.4833 215.783 52.2832 215.276 51.9246 214.891L71.1082 183.878C71.1825 183.892 71.2578 183.9 71.3332 183.9C71.5037 183.901 71.6729 183.87 71.8329 183.812L71.8327 183.809ZM179.777 185.286L318.629 226.248C318.616 226.361 318.609 226.475 318.609 226.589C318.611 228.162 319.777 229.491 321.337 229.697L326.499 339.521L179.506 185.733C179.608 185.592 179.699 185.442 179.776 185.285L179.777 185.286ZM178.708 186.495V186.497L326.577 341.202L326.585 341.373C325.556 341.61 324.714 342.349 324.346 343.339L228.897 326.056C228.804 324.975 227.899 324.145 226.814 324.144C226.765 324.144 226.716 324.145 226.667 324.148L178.515 186.609C178.581 186.574 178.645 186.535 178.708 186.495ZM176.25 186.934C176.487 186.992 176.729 187.022 176.973 187.023C177.138 187.021 177.302 187.005 177.464 186.979L225.622 324.518C225.606 324.531 225.59 324.54 225.575 324.553L147.341 262.727C147.725 262.082 147.929 261.346 147.931 260.595C147.928 259.13 147.16 257.774 145.904 257.018L176.25 186.934ZM503.16 192.812L560.324 203.929C560.052 204.588 559.912 205.294 559.911 206.007C559.914 208.105 561.116 210.016 563.007 210.927L543.315 265.234L479.689 232.779C479.654 232.276 479.442 231.802 479.088 231.445L500.811 193.813C500.983 193.859 501.159 193.883 501.337 193.884C502.094 193.883 502.791 193.472 503.16 192.812H503.16ZM499.619 192.987C499.687 193.086 499.764 193.178 499.848 193.263L478.129 230.895C477.957 230.85 477.78 230.827 477.602 230.827C477.209 230.828 476.824 230.939 476.492 231.149L474.954 230.364L475.285 231.17L442.803 215.261C442.947 214.834 443.021 214.387 443.022 213.937C443.021 213.649 442.991 213.362 442.929 213.081L499.619 192.987ZM570.855 205.984L674.77 226.203C674.654 226.555 674.594 226.924 674.593 227.295C674.593 229.234 676.166 230.807 678.106 230.807C678.652 230.806 679.19 230.678 679.679 230.433L738.155 311.734L685.407 334.929C684.76 333.927 683.649 333.321 682.456 333.32C681.334 333.322 680.281 333.858 679.62 334.765L544.313 265.744L564.055 211.306C564.489 211.417 564.935 211.474 565.384 211.476C568.405 211.476 570.854 209.028 570.854 206.008C570.854 205.999 570.854 205.99 570.854 205.981L570.855 205.984ZM51.9742 217.674L139.761 259.317C139.628 259.731 139.56 260.163 139.56 260.597C139.561 262.153 140.426 263.58 141.805 264.302L113.854 340.763C113.797 340.759 113.74 340.754 113.683 340.754C112.606 340.754 111.705 341.571 111.6 342.642L36.4616 355.407C36.2372 354.925 35.8372 354.546 35.3432 354.348L50.7173 218.376C51.2063 218.298 51.6516 218.049 51.9742 217.673L51.9742 217.674ZM681.608 227.533L816.824 253.839L814.016 276.972C813.114 277.132 812.455 277.915 812.454 278.832C812.456 278.905 812.463 278.979 812.472 279.052L739.192 311.278L680.581 229.788C681.186 229.186 681.552 228.384 681.609 227.533L681.608 227.533ZM479.447 233.901L542.933 266.287L518.915 332.522C518.81 332.509 518.704 332.5 518.599 332.496C518.456 332.497 518.313 332.509 518.173 332.535L478.042 234.957C478.642 234.828 479.156 234.442 479.446 233.902L479.447 233.901ZM476.537 235.171L440.324 400.007C440.307 400.008 440.293 400.008 440.277 400.009L413.359 320.034C414.257 319.523 414.811 318.572 414.813 317.54C414.811 316.633 414.382 315.78 413.654 315.239L476.537 235.171ZM477.413 236.343L517.148 332.959C516.47 333.432 516.065 334.206 516.064 335.033C516.065 335.895 516.505 336.698 517.232 337.163L488.033 417.685C487.513 417.496 486.965 417.397 486.412 417.396C484.531 417.398 482.828 418.507 482.066 420.226L442.509 402.684C442.553 402.512 442.575 402.336 442.576 402.159C442.575 401.352 442.125 400.613 441.408 400.243L477.413 236.343ZM817.912 254.051L853.524 260.98C853.524 260.989 853.525 260.993 853.526 261.002L815.777 277.601C815.595 277.39 815.368 277.222 815.113 277.108L817.912 254.051ZM853.974 262.012C854.041 262.09 854.115 262.164 854.194 262.23L820.874 342.024L801.097 392.536L814.676 280.693C815.58 280.534 816.238 279.749 816.238 278.832C816.236 278.758 816.229 278.685 816.22 278.613L853.974 262.012ZM146.657 263.603L224.885 325.425C224.776 325.682 224.72 325.958 224.72 326.238C224.721 326.721 224.889 327.19 225.196 327.563L163.451 414.434C163.317 414.385 163.18 414.35 163.039 414.33L144.797 264.646C145.497 264.465 146.138 264.105 146.657 263.603V263.603ZM142.846 264.682C143.126 264.744 143.413 264.776 143.7 264.78L161.893 414.143L115.26 344.219C115.592 343.838 115.774 343.351 115.775 342.846C115.774 342.168 115.445 341.533 114.892 341.142L142.846 264.682ZM543.933 266.797L679.114 335.753C679.001 336.101 678.944 336.465 678.943 336.832C678.944 337.132 678.983 337.431 679.06 337.721L544.619 396.839L520.053 337.104C520.728 336.631 521.131 335.858 521.132 335.033C521.131 334.169 520.69 333.365 519.962 332.9L543.933 266.797ZM812.915 280.066C813.098 280.278 813.324 280.446 813.579 280.559L799.895 393.297C799.393 393.314 798.901 393.442 798.452 393.667L739.854 312.197L812.915 280.066ZM738.815 312.653L797.55 394.311C797.418 394.443 797.297 394.585 797.188 394.737L685.796 337.915C685.911 337.565 685.969 337.2 685.969 336.832C685.968 336.532 685.929 336.233 685.852 335.943L738.815 312.653ZM409.316 318.71C409.419 318.941 409.551 319.158 409.71 319.355L332.675 412.065C332.115 411.713 331.48 411.498 330.821 411.438L327.978 347.486C329.409 347.164 330.425 345.895 330.427 344.429L330.827 344.05L330.7 343.916L409.316 318.71ZM410.564 320.064C410.986 320.293 411.458 320.414 411.938 320.414C412.062 320.412 412.185 320.401 412.308 320.383L439.232 400.357C438.713 400.699 438.368 401.249 438.284 401.864L334.5 414.549C334.326 413.884 333.991 413.272 333.525 412.767L410.564 320.064ZM228.698 327.142L324.147 344.418C324.147 344.422 324.147 344.427 324.147 344.431C324.149 344.779 324.208 345.124 324.322 345.452L267.862 376.97C267.468 376.571 266.93 376.347 266.369 376.348C266.105 376.348 265.843 376.398 265.597 376.496L228.569 327.377C228.617 327.302 228.66 327.224 228.698 327.143L228.698 327.142ZM227.74 328.115L264.712 377.16C264.43 377.526 264.277 377.974 264.277 378.436C264.278 379.194 264.69 379.893 265.352 380.261L253.294 429.222L164.807 416.144C164.76 415.751 164.602 415.38 164.353 415.073L226.1 328.204C226.329 328.288 226.571 328.331 226.814 328.332C227.135 328.332 227.452 328.258 227.74 328.115V328.115ZM2.33849 335.229L32.5871 355.624C32.5143 355.839 32.477 356.065 32.4768 356.292C32.4775 357.447 33.4136 358.383 34.5687 358.383C34.6578 358.382 34.7466 358.375 34.8348 358.361L74.7488 454.141L2.33849 335.229ZM519.027 337.528L543.604 397.287L490.864 420.479C490.511 419.542 489.87 418.74 489.034 418.187L518.277 337.543C518.384 337.557 518.491 337.565 518.599 337.565C518.743 337.564 518.886 337.552 519.028 337.526L519.027 337.528ZM679.501 338.735C680.149 339.738 681.262 340.344 682.456 340.344C682.772 340.344 683.086 340.3 683.391 340.218L727.943 438.119L592.788 431.047L491.135 422.709C491.157 422.524 491.17 422.339 491.174 422.153C491.171 421.958 491.157 421.764 491.13 421.571L679.501 338.735ZM685.29 338.901L796.682 395.725C796.568 396.074 796.51 396.438 796.509 396.804C796.51 397.243 796.593 397.678 796.754 398.087L729.07 437.929L684.395 339.758C684.741 339.527 685.045 339.238 685.29 338.901ZM111.788 343.731C111.958 344.094 112.229 344.401 112.569 344.615L78.1321 458.594C78.1149 458.593 78.0973 458.592 78.0802 458.592C77.9933 458.594 77.9066 458.6 77.8206 458.614L35.858 357.937C36.3071 357.587 36.5938 357.068 36.6519 356.501L111.788 343.731ZM114.345 344.829L161.157 415.02C160.823 415.401 160.639 415.89 160.638 416.397C160.64 416.547 160.657 416.696 160.69 416.842L81.1801 458.44L79.5187 458.715L79.6074 459.256C79.485 459.125 79.3461 459.01 79.1943 458.914L113.631 344.937C113.648 344.938 113.666 344.938 113.683 344.939C113.908 344.938 114.132 344.899 114.345 344.828L114.345 344.829ZM324.865 346.421C325.368 347.032 326.084 347.43 326.869 347.537L329.713 411.488C327.718 411.845 326.266 413.58 326.265 415.606C326.266 415.676 326.269 415.747 326.274 415.817L254.454 429.141L266.425 380.525C267.558 380.495 268.462 379.569 268.463 378.436C268.463 378.268 268.442 378.1 268.401 377.937L324.865 346.421ZM438.416 402.959C438.467 403.084 438.528 403.203 438.6 403.316L380.77 456.946L255.568 430.055L326.479 416.905C327.041 418.622 328.643 419.785 330.451 419.788C332.743 419.786 334.608 417.942 334.634 415.651L438.416 402.959ZM441.973 403.651L481.735 421.291C481.682 421.575 481.654 421.864 481.653 422.154C481.655 422.527 481.701 422.898 481.79 423.261L383.196 456.209L439.416 404.066C439.726 404.229 440.07 404.314 440.42 404.315C441.006 404.314 441.567 404.074 441.973 403.651L441.973 403.651ZM164.649 417.23L251.906 430.133L84.6456 457.865L161.205 417.822C161.6 418.245 162.153 418.485 162.732 418.486C163.564 418.485 164.317 417.992 164.649 417.23ZM490.871 423.799L592.714 432.151L723.645 438.999L384.98 456.784L482.168 424.301C482.977 425.901 484.618 426.91 486.412 426.911C488.403 426.908 490.182 425.667 490.871 423.799Z" transform="translate(5.80865 3.31826)" fill="#00CCFF"/>
<path d="M52.1999 0L2.78813 19.4241L0 326.012L1.16172 326.021L3.94124 20.2157L52.6216 1.0841L52.1999 0Z" transform="translate(5.29865 10.94)" fill="#00CCFF"/>
<path d="M0.0602373 0L0 1.16992L519.237 28.4652L519.297 27.3039L0.0602373 0Z" transform="translate(222.187 5.09903)" fill="#00CCFF"/>
<path d="M626.588 0L0 4.06031L0.00880701 5.23023L625.737 1.16992L639.092 43.5709L612.338 153.113L613.474 153.397L640.305 43.5367L626.588 0Z" transform="translate(222.213 1.03878)" fill="#00CCFF"/>
<path d="M0.111936 0L0 1.16132L120.457 12.7659L120.569 11.6132L0.111936 0Z" transform="translate(741.399 32.4031)" fill="#00CCFF"/>
<path d="M106.921 0L0 31.3642L0.335742 32.4825L107.248 1.11831L106.921 0Z" transform="translate(741.287 1.06471)" fill="#00CCFF"/>
<path d="M0.567952 0L0 217.614L1.17032 217.623L1.72967 0.000134412L0.567952 0Z" transform="translate(860.763 44.5926)" fill="#00CCFF"/>
<path d="M470.075 0L468.913 0.00880397L470.451 192.665L0.0259841 197.063L0 198.224L471.63 193.852L470.075 0Z" transform="translate(390.774 262.456)" fill="#00CCFF"/>
<path d="M71.4843 0L70.5808 0.739803L124.749 54.7774L0.232209 42.5473L0 43.6914L127.735 56.5581L71.4843 0Z" transform="translate(734.669 399.749)" fill="#00CCFF"/>
<path d="M303.286 0L0 3.85386L0.00881542 5.02378L303.295 1.16132L303.286 0Z" transform="translate(83.2887 459.682)" fill="#00CCFF"/>
<path d="M1.15311 0L0 0.19772L17.4086 101.284L78.3343 129.758L78.8248 128.708L18.4498 100.484L1.15311 0Z" transform="translate(5.3075 336.858)" fill="#00CCFF"/>
<path d="M5.8826 11.761C9.13147 11.761 11.7652 9.12827 11.7652 5.88052C11.7652 2.63277 9.13147 0 5.8826 0C2.63373 0 0 2.63277 0 5.88052C0 9.12827 2.63373 11.761 5.8826 11.761Z" transform="translate(77.4116 458.239)" fill="#00CCFF"/>
<path d="M5.8826 11.7612C9.13147 11.7612 11.7652 9.12827 11.7652 5.88052C11.7652 2.63277 9.13147 0 5.8826 0C2.63373 0 0 2.63277 0 5.88052C0 9.12827 2.63373 11.7612 5.8826 11.7612Z" transform="translate(161.083 412.457)" fill="#00CCFF"/>
<path d="M5.8826 11.7612C9.13147 11.7612 11.7652 9.1284 11.7652 5.88065C11.7652 2.6329 9.13147 0 5.8826 0C2.63373 0 0 2.6329 0 5.88065C0 9.1284 2.63373 11.7612 5.8826 11.7612Z" transform="translate(0 331.079)" fill="#00CCFF"/>
<path d="M5.88262 11.7612C9.13148 11.7612 11.7652 9.12833 11.7652 5.88059C11.7652 2.63284 9.13148 0 5.88262 0C2.63375 0 0 2.63284 0 5.88059C0 9.12833 2.63375 11.7612 5.88262 11.7612Z" transform="translate(500.693 187.218)" fill="#00CCFF"/>
<path d="M5.88262 11.7612C9.13149 11.7612 11.7652 9.12833 11.7652 5.88059C11.7652 2.63284 9.13149 0 5.88262 0C2.63375 0 0 2.63284 0 5.88059C0 9.12833 2.63375 11.7612 5.88262 11.7612Z" transform="translate(853.452 258.439)" fill="#00CCFF"/>
<path d="M5.88262 11.7612C9.13148 11.7612 11.7652 9.12833 11.7652 5.88059C11.7652 2.63284 9.13148 0 5.88262 0C2.63375 0 0 2.63284 0 5.88059C0 9.12833 2.63375 11.7612 5.88262 11.7612Z" transform="translate(829.089 152.326)" fill="#00CCFF"/>
<path d="M5.88262 11.7612C9.13148 11.7612 11.7652 9.12833 11.7652 5.88059C11.7652 2.63284 9.13148 0 5.88262 0C2.63375 0 0 2.63284 0 5.88059C0 9.12833 2.63375 11.7612 5.88262 11.7612Z" transform="translate(735.603 27.6869)" fill="#00CCFF"/>
<path d="M5.88262 11.761C9.13149 11.761 11.7652 9.12827 11.7652 5.88052C11.7652 2.63277 9.13149 0 5.88262 0C2.63375 0 0 2.63277 0 5.88052C0 9.12827 2.63375 11.761 5.88262 11.761Z" transform="translate(728.919 437.269)" fill="#00CCFF"/>
<path d="M5.88262 11.7612C9.13149 11.7612 11.7652 9.12833 11.7652 5.88059C11.7652 2.63284 9.13149 0 5.88262 0C2.63375 0 0 2.63284 0 5.88059C0 9.12833 2.63375 11.7612 5.88262 11.7612Z" transform="translate(323.257 31.3985)" fill="#00CCFF"/>
<path d="M2.64276 5.28373C4.10232 5.28373 5.28553 4.10092 5.28553 2.64186C5.28553 1.18281 4.10232 0 2.64276 0C1.1832 0 0 1.18281 0 2.64186C0 4.10092 1.1832 5.28373 2.64276 5.28373Z" transform="translate(20.7238 435.066)" fill="#00CCFF"/>
<path d="M2.78813 5.57433C4.32797 5.57433 5.57625 4.32647 5.57625 2.78716C5.57625 1.24786 4.32797 0 2.78813 0C1.24829 0 0 1.24786 0 2.78716C0 4.32647 1.24829 5.57433 2.78813 5.57433Z" transform="translate(5.29865 27.5771)" fill="#00CCFF"/>
<path d="M5.77431 11.5446C8.96337 11.5446 11.5486 8.96028 11.5486 5.77232C11.5486 2.58435 8.96337 0 5.77431 0C2.58524 0 0 2.58435 0 5.77232C0 8.96028 2.58524 11.5446 5.77431 11.5446Z" transform="translate(855.452 449.348)" fill="#00CCFF"/>
<path d="M2.34287 4.68412C3.6368 4.68412 4.68574 3.63555 4.68574 2.34206C4.68574 1.04857 3.6368 0 2.34287 0C1.04893 0 0 1.04857 0 2.34206C0 3.63555 1.04893 4.68412 2.34287 4.68412Z" transform="translate(859.625 42.8268)" fill="#00CCFF"/>
<path d="M2.34287 4.68412C3.6368 4.68412 4.68574 3.63555 4.68574 2.34206C4.68574 1.04857 3.6368 0 2.34287 0C1.04893 0 0 1.04857 0 2.34206C0 3.63555 1.04893 4.68412 2.34287 4.68412Z" transform="translate(845.65)" fill="#00CCFF"/>
<path d="M1.92652 3.85171C2.99052 3.85171 3.85304 2.98948 3.85304 1.92585C3.85304 0.862221 2.99052 0 1.92652 0C0.862518 0 0 0.862221 0 1.92585C0 2.98948 0.862518 3.85171 1.92652 3.85171Z" transform="translate(820.707 255.232)" fill="#00CCFF"/>
</svg>
